DaiBannaSILMaster-ExtraBoldItalic.ufo
<glyph name="exclam" format="2">
  <advance width="488"/>
  <unicode hex="0021"/>
  <outline>
    <contour>
      <point x="422" y="919" type="line" smooth="yes"/>
      <point x="415" y="883"/>
      <point x="392" y="779"/>
      <point x="384" y="758" type="curve" smooth="yes"/>
      <point x="241" y="342" type="line" smooth="yes"/>
      <point x="231" y="310"/>
      <point x="146" y="311"/>
      <point x="147" y="342" type="curve" smooth="yes"/>
      <point x="166" y="758" type="line" smooth="yes"/>
      <point x="168" y="795"/>
      <point x="184" y="887"/>
      <point x="191" y="923" type="curve" smooth="yes"/>
      <point x="198" y="956"/>
      <point x="219" y="968"/>
      <point x="316" y="968" type="curve" smooth="yes"/>
      <point x="417" y="968"/>
      <point x="428" y="950"/>
      <point x="422" y="919" type="curve" smooth="yes"/>
    </contour>
    <contour>
      <point x="266" y="147" type="line" smooth="yes"/>
      <point x="266" y="68"/>
      <point x="212" y="-17"/>
      <point x="125" y="-17" type="curve" smooth="yes"/>
      <point x="74" y="-17"/>
      <point x="38" y="32"/>
      <point x="38" y="100" type="curve" smooth="yes"/>
      <point x="38" y="181"/>
      <point x="89" y="259"/>
      <point x="178" y="259" type="curve" smooth="yes"/>
      <point x="231" y="259"/>
      <point x="266" y="212"/>
      <point x="266" y="147" type="curve" smooth="yes"/>
    </contour>
  </outline>
</glyph>
<glyph name="quotedbl" format="2">
  <advance width="929"/>
  <unicode hex="0022"/>
  <outline>
    <contour>
      <point x="716" y="776" type="line" smooth="yes"/>
      <point x="716" y="764"/>
      <point x="756" y="762"/>
      <point x="762" y="776" type="curve" smooth="yes"/>
      <point x="897" y="1103" type="line" smooth="yes"/>
      <point x="941" y="1207"/>
      <point x="964" y="1287"/>
      <point x="970" y="1315" type="curve" smooth="yes"/>
      <point x="987" y="1407"/>
      <point x="943" y="1457"/>
      <point x="872" y="1457" type="curve" smooth="yes"/>
      <point x="802" y="1457"/>
      <point x="745" y="1420"/>
      <point x="722" y="1302" type="curve" smooth="yes"/>
      <point x="715" y="1267"/>
      <point x="706" y="1194"/>
      <point x="708" y="1105" type="curve" smooth="yes"/>
    </contour>
    <contour>
      <point x="282" y="776" type="line" smooth="yes"/>
      <point x="282" y="764"/>
      <point x="322" y="762"/>
      <point x="328" y="776" type="curve" smooth="yes"/>
      <point x="463" y="1103" type="line" smooth="yes"/>
      <point x="507" y="1207"/>
      <point x="530" y="1287"/>
      <point x="536" y="1315" type="curve" smooth="yes"/>
      <point x="553" y="1407"/>
      <point x="509" y="1457"/>
      <point x="438" y="1457" type="curve" smooth="yes"/>
      <point x="368" y="1457"/>
      <point x="311" y="1420"/>
      <point x="288" y="1302" type="curve" smooth="yes"/>
      <point x="281" y="1267"/>
      <point x="272" y="1194"/>
      <point x="274" y="1105" type="curve" smooth="yes"/>
    </contour>
  </outline>
</glyph>
<glyph name="numbersign" format="2">
  <advance width="1140"/>
  <unicode hex="0023"/>
  <outline>
    <contour>
      <point x="1099" y="511" type="line" smooth="yes"/>
      <point x="1092" y="472"/>
      <point x="1087" y="446"/>
      <point x="1075" y="446" type="curve" smooth="yes"/>
      <point x="802" y="446" type="line"/>
      <point x="622" y="-7" type="line" smooth="yes"/>
      <point x="618" y="-16"/>
      <point x="574" y="-17"/>
      <point x="543" y="-17" type="curve" smooth="yes" name="hr01"/>
      <point x="510" y="-17"/>
      <point x="465" y="-16"/>
      <point x="469" y="-7" type="curve" smooth="yes"/>
      <point x="647" y="446" type="line" name="hr02"/>
      <point x="339" y="446" type="line"/>
      <point x="160" y="-7" type="line" smooth="yes"/>
      <point x="156" y="-16"/>
      <point x="112" y="-17"/>
      <point x="81" y="-17" type="curve" smooth="yes" name="hr03"/>
      <point x="48" y="-17"/>
      <point x="3" y="-16"/>
      <point x="7" y="-7" type="curve" smooth="yes"/>
      <point x="186" y="446" type="line" name="hr04"/>
      <point x="39" y="446" type="line" smooth="yes"/>
      <point x="27" y="446"/>
      <point x="32" y="472"/>
      <point x="39" y="509" type="curve" smooth="yes"/>
      <point x="47" y="548"/>
      <point x="52" y="574"/>
      <point x="64" y="574" type="curve" smooth="yes"/>
      <point x="239" y="574" type="line"/>
      <point x="383" y="939" type="line"/>
      <point x="135" y="939" type="line" smooth="yes"/>
      <point x="123" y="939"/>
      <point x="126" y="955"/>
      <point x="133" y="992" type="curve" smooth="yes"/>
      <point x="140" y="1031"/>
      <point x="147" y="1067"/>
      <point x="159" y="1067" type="curve" smooth="yes"/>
      <point x="434" y="1067" type="line"/>
      <point x="619" y="1533" type="line" smooth="yes"/>
      <point x="622" y="1542"/>
      <point x="665" y="1543"/>
      <point x="696" y="1543" type="curve" smooth="yes" name="hr05"/>
      <point x="729" y="1543"/>
      <point x="772" y="1542"/>
      <point x="769" y="1533" type="curve" smooth="yes"/>
      <point x="586" y="1067" type="line" name="hr06"/>
      <point x="894" y="1067" type="line"/>
      <point x="1085" y="1533" type="line" smooth="yes"/>
      <point x="1089" y="1542"/>
      <point x="1131" y="1543"/>
      <point x="1162" y="1543" type="curve" smooth="yes" name="hr07"/>
      <point x="1195" y="1543"/>
      <point x="1239" y="1542"/>
      <point x="1235" y="1533" type="curve" smooth="yes"/>
      <point x="1045" y="1067" type="line" name="hr08"/>
      <point x="1195" y="1067" type="line" smooth="yes"/>
      <point x="1207" y="1067"/>
      <point x="1200" y="1031"/>
      <point x="1193" y="994" type="curve" smooth="yes"/>
      <point x="1186" y="955"/>
      <point x="1183" y="939"/>
      <point x="1171" y="939" type="curve" smooth="yes"/>
      <point x="1000" y="939" type="line"/>
      <point x="854" y="574" type="line"/>
      <point x="1100" y="574" type="line" smooth="yes"/>
      <point x="1112" y="574"/>
      <point x="1107" y="548"/>
      <point x="1099" y="511" type="curve" smooth="yes"/>
    </contour>
    <contour>
      <point x="846" y="939" type="line"/>
      <point x="537" y="939" type="line"/>
      <point x="391" y="574" type="line"/>
      <point x="700" y="574" type="line"/>
    </contour>
  </outline>
</glyph>
<glyph name="dollar" format="2">
  <advance width="998"/>
  <unicode hex="0024"/>
  <outline>
    <contour>
      <point x="365" y="-171" type="curve" smooth="yes"/>
      <point x="401" y="-171"/>
      <point x="442" y="-169"/>
      <point x="446" y="-150" type="curve" smooth="yes"/>
      <point x="455" y="-104"/>
      <point x="463" y="-58"/>
      <point x="472" y="-12" type="curve"/>
      <point x="733" y="20"/>
      <point x="921" y="199"/>
      <point x="921" y="472" type="curve" smooth="yes"/>
      <point x="921" y="657"/>
      <point x="769" y="777"/>
      <point x="639" y="888" type="curve"/>
      <point x="673" y="1054"/>
      <point x="718" y="1265"/>
      <point x="751" y="1425" type="curve"/>
      <point x="827" y="1380"/>
      <point x="825" y="1242"/>
      <point x="837" y="1215" type="curve" smooth="yes"/>
      <point x="849" y="1186"/>
      <point x="875" y="1180"/>
      <point x="992" y="1253" type="curve" smooth="yes"/>
      <point x="1048" y="1288"/>
      <point x="1058" y="1305"/>
      <point x="1048" y="1335" type="curve" smooth="yes"/>
      <point x="1021" y="1416"/>
      <point x="901" y="1476"/>
      <point x="764" y="1493" type="curve"/>
      <point x="772" y="1533"/>
      <point x="780" y="1568"/>
      <point x="785" y="1595" type="curve" smooth="yes"/>
      <point x="789" y="1614"/>
      <point x="749" y="1615"/>
      <point x="712" y="1615" type="curve" smooth="yes"/>
      <point x="674" y="1615"/>
      <point x="635" y="1614"/>
      <point x="631" y="1595" type="curve" smooth="yes"/>
      <point x="626" y="1567"/>
      <point x="619" y="1532"/>
      <point x="612" y="1492" type="curve"/>
      <point x="387" y="1458"/>
      <point x="213" y="1302"/>
      <point x="213" y="1069" type="curve" smooth="yes"/>
      <point x="213" y="888"/>
      <point x="333" y="785"/>
      <point x="460" y="669" type="curve"/>
      <point x="428" y="509"/>
      <point x="375" y="259"/>
      <point x="334" y="59" type="curve"/>
      <point x="260" y="107"/>
      <point x="274" y="249"/>
      <point x="260" y="295" type="curve" smooth="yes"/>
      <point x="257" y="306"/>
      <point x="218" y="308"/>
      <point x="115" y="254" type="curve" smooth="yes"/>
      <point x="40" y="215"/>
      <point x="21" y="191"/>
      <point x="32" y="161" type="curve" smooth="yes"/>
      <point x="57" y="94"/>
      <point x="161" y="6"/>
      <point x="319" y="-13" type="curve"/>
      <point x="308" y="-65"/>
      <point x="299" y="-112"/>
      <point x="292" y="-150" type="curve" smooth="yes"/>
      <point x="288" y="-169"/>
      <point x="328" y="-171"/>
    </contour>
    <contour>
      <point x="483" y="54" type="curve"/>
      <point x="512" y="216"/>
      <point x="548" y="412"/>
      <point x="576" y="565" type="curve"/>
      <point x="686" y="463"/>
      <point x="736" y="403"/>
      <point x="736" y="325" type="curve" smooth="yes"/>
      <point x="736" y="190"/>
      <point x="605" y="84"/>
    </contour>
    <contour>
      <point x="521" y="990" type="curve"/>
      <point x="429" y="1073"/>
      <point x="394" y="1119"/>
      <point x="394" y="1185" type="curve" smooth="yes"/>
      <point x="394" y="1314"/>
      <point x="479" y="1393"/>
      <point x="599" y="1426" type="curve"/>
      <point x="573" y="1281"/>
      <point x="547" y="1135"/>
    </contour>
  </outline>
</glyph>
<glyph name="percent" format="2">
  <advance width="1466"/>
  <unicode hex="0025"/>
  <outline>
    <contour>
      <point x="847" y="1205" type="line" smooth="yes"/>
      <point x="847" y="993"/>
      <point x="680" y="813"/>
      <point x="476" y="813" type="curve" smooth="yes"/>
      <point x="306" y="813"/>
      <point x="218" y="947"/>
      <point x="218" y="1097" type="curve" smooth="yes"/>
      <point x="218" y="1309"/>
      <point x="386" y="1498"/>
      <point x="589" y="1498" type="curve" smooth="yes"/>
      <point x="770" y="1498"/>
      <point x="847" y="1362"/>
      <point x="847" y="1205" type="curve" smooth="yes"/>
    </contour>
    <contour>
      <point x="1371" y="1478" type="line"/>
      <point x="362" y="3" type="line" smooth="yes"/>
      <point x="349" y="-15"/>
      <point x="339" y="-17"/>
      <point x="268" y="-17" type="curve" smooth="yes"/>
      <point x="194" y="-17"/>
      <point x="186" y="-14"/>
      <point x="198" y="3" type="curve" smooth="yes"/>
      <point x="1212" y="1478" type="line" smooth="yes"/>
      <point x="1224" y="1495"/>
      <point x="1241" y="1498"/>
      <point x="1302" y="1498" type="curve" smooth="yes"/>
      <point x="1367" y="1498"/>
      <point x="1383" y="1496"/>
      <point x="1371" y="1478" type="curve" smooth="yes"/>
    </contour>
    <contour>
      <point x="1336" y="375" type="line" smooth="yes"/>
      <point x="1336" y="163"/>
      <point x="1169" y="-17"/>
      <point x="965" y="-17" type="curve" smooth="yes"/>
      <point x="795" y="-17"/>
      <point x="707" y="117"/>
      <point x="707" y="267" type="curve" smooth="yes" name="hr01"/>
      <point x="707" y="479"/>
      <point x="875" y="668"/>
      <point x="1078" y="668" type="curve" smooth="yes"/>
      <point x="1259" y="668"/>
      <point x="1336" y="532"/>
      <point x="1336" y="375" type="curve" smooth="yes"/>
    </contour>
    <contour>
      <point x="652" y="1336" type="line" smooth="yes" name="hr02"/>
      <point x="652" y="1398"/>
      <point x="636" y="1437"/>
      <point x="587" y="1437" type="curve" smooth="yes"/>
      <point x="473" y="1437"/>
      <point x="418" y="1091"/>
      <point x="418" y="988" type="curve" smooth="yes"/>
      <point x="418" y="920"/>
      <point x="433" y="874"/>
      <point x="478" y="874" type="curve" smooth="yes"/>
      <point x="601" y="874"/>
      <point x="652" y="1229"/>
      <point x="652" y="1336" type="curve" smooth="yes"/>
    </contour>
    <contour>
      <point x="1141" y="506" type="line" smooth="yes"/>
      <point x="1141" y="568"/>
      <point x="1125" y="607"/>
      <point x="1076" y="607" type="curve" smooth="yes"/>
      <point x="962" y="607"/>
      <point x="907" y="261"/>
      <point x="907" y="158" type="curve" smooth="yes" name="hr03"/>
      <point x="907" y="90"/>
      <point x="922" y="44"/>
      <point x="967" y="44" type="curve" smooth="yes"/>
      <point x="1090" y="44"/>
      <point x="1141" y="399"/>
      <point x="1141" y="506" type="curve" smooth="yes"/>
    </contour>
  </outline>
</glyph>
<glyph name="quotesingle" format="2">
  <advance width="412"/>
  <unicode hex="0027"/>
  <outline>
    <contour>
      <point x="486" y="1315" type="line" smooth="yes"/>
      <point x="480" y="1287"/>
      <point x="457" y="1207"/>
      <point x="413" y="1103" type="curve" smooth="yes"/>
      <point x="278" y="776" type="line" smooth="yes"/>
      <point x="272" y="762"/>
      <point x="232" y="764"/>
      <point x="232" y="776" type="curve" smooth="yes"/>
      <point x="224" y="1105" type="line" smooth="yes"/>
      <point x="222" y="1194"/>
      <point x="231" y="1267"/>
      <point x="238" y="1302" type="curve" smooth="yes"/>
      <point x="261" y="1420"/>
      <point x="318" y="1457"/>
      <point x="388" y="1457" type="curve" smooth="yes"/>
      <point x="459" y="1457"/>
      <point x="503" y="1407"/>
      <point x="486" y="1315" type="curve" smooth="yes"/>
    </contour>
  </outline>
</glyph>
<glyph name="parenleft" format="2">
  <advance width="728"/>
  <unicode hex="0028"/>
  <outline>
    <contour>
      <point x="611" y="-610" type="curve" smooth="yes"/>
      <point x="628" y="-599"/>
      <point x="611" y="-575"/>
      <point x="549" y="-544" type="curve" smooth="yes"/>
      <point x="461" y="-499"/>
      <point x="357" y="-268"/>
      <point x="357" y="74" type="curve" smooth="yes"/>
      <point x="357" y="495"/>
      <point x="590" y="1336"/>
      <point x="952" y="1529" type="curve" smooth="yes"/>
      <point x="1029" y="1570"/>
      <point x="1046" y="1580"/>
      <point x="1041" y="1591" type="curve" smooth="yes"/>
      <point x="1032" y="1611"/>
      <point x="967" y="1609"/>
      <point x="910" y="1581" type="curve" smooth="yes"/>
      <point x="390" y="1322"/>
      <point x="117" y="746"/>
      <point x="117" y="183" type="curve" smooth="yes"/>
      <point x="117" y="-254"/>
      <point x="302" y="-509"/>
      <point x="487" y="-596" type="curve" smooth="yes"/>
      <point x="541" y="-621"/>
      <point x="584" y="-627"/>
    </contour>
  </outline>
</glyph>
<glyph name="parenright" format="2">
  <advance width="728"/>
  <unicode hex="0029"/>
  <outline>
    <contour>
      <point x="-192" y="-600" type="line" smooth="yes"/>
      <point x="-248" y="-628"/>
      <point x="-315" y="-630"/>
      <point x="-324" y="-610" type="curve" smooth="yes"/>
      <point x="-329" y="-599"/>
      <point x="-311" y="-589"/>
      <point x="-235" y="-548" type="curve" smooth="yes"/>
      <point x="124" y="-357"/>
      <point x="361" y="474"/>
      <point x="361" y="890" type="curve" smooth="yes"/>
      <point x="361" y="1242"/>
      <point x="258" y="1480"/>
      <point x="168" y="1525" type="curve" smooth="yes"/>
      <point x="107" y="1556"/>
      <point x="89" y="1580"/>
      <point x="106" y="1591" type="curve" smooth="yes"/>
      <point x="133" y="1608"/>
      <point x="178" y="1602"/>
      <point x="232" y="1577" type="curve" smooth="yes"/>
      <point x="403" y="1497"/>
      <point x="600" y="1273"/>
      <point x="600" y="893" type="curve" smooth="yes"/>
      <point x="600" y="304"/>
      <point x="350" y="-331"/>
      <point x="-192" y="-600" type="curve" smooth="yes"/>
    </contour>
  </outline>
</glyph>
<glyph name="asterisk" format="2">
  <advance width="1025"/>
  <unicode hex="002A"/>
  <outline>
    <contour>
      <point x="1083" y="1260" type="line" smooth="yes"/>
      <point x="1096" y="1160"/>
      <point x="1077" y="1136"/>
      <point x="1046" y="1126" type="curve" smooth="yes"/>
      <point x="917" y="1087"/>
      <point x="806" y="1151"/>
      <point x="677" y="1103" type="curve"/>
      <point x="728" y="997"/>
      <point x="855" y="971"/>
      <point x="909" y="869" type="curve" smooth="yes"/>
      <point x="922" y="844"/>
      <point x="915" y="816"/>
      <point x="821" y="756" type="curve" smooth="yes"/>
      <point x="724" y="694"/>
      <point x="699" y="702"/>
      <point x="686" y="727" type="curve" smooth="yes"/>
      <point x="631" y="830"/>
      <point x="680" y="967"/>
      <point x="617" y="1066" type="curve" name="hr01"/>
      <point x="519" y="965"/>
      <point x="509" y="832"/>
      <point x="415" y="730" type="curve" smooth="yes"/>
      <point x="392" y="705"/>
      <point x="366" y="696"/>
      <point x="295" y="756" type="curve" smooth="yes"/>
      <point x="222" y="818"/>
      <point x="224" y="847"/>
      <point x="247" y="872" type="curve" smooth="yes"/>
      <point x="342" y="976"/>
      <point x="484" y="997"/>
      <point x="573" y="1105" type="curve"/>
      <point x="462" y="1149"/>
      <point x="329" y="1092"/>
      <point x="217" y="1131" type="curve" smooth="yes"/>
      <point x="189" y="1141"/>
      <point x="178" y="1163"/>
      <point x="228" y="1259" type="curve" smooth="yes"/>
      <point x="280" y="1360"/>
      <point x="309" y="1371"/>
      <point x="336" y="1361" type="curve" smooth="yes"/>
      <point x="450" y="1322"/>
      <point x="488" y="1198"/>
      <point x="607" y="1166" type="curve"/>
      <point x="636" y="1294"/>
      <point x="563" y="1392"/>
      <point x="588" y="1518" type="curve" smooth="yes"/>
      <point x="594" y="1549"/>
      <point x="614" y="1570"/>
      <point x="716" y="1570" type="curve" smooth="yes" name="hr02"/>
      <point x="821" y="1570"/>
      <point x="836" y="1549"/>
      <point x="830" y="1518" type="curve" smooth="yes"/>
      <point x="805" y="1390"/>
      <point x="687" y="1293"/>
      <point x="671" y="1164" type="curve"/>
      <point x="800" y="1200"/>
      <point x="888" y="1317"/>
      <point x="1016" y="1356" type="curve" smooth="yes"/>
      <point x="1047" y="1366"/>
      <point x="1071" y="1357"/>
      <point x="1083" y="1260" type="curve" smooth="yes"/>
    </contour>
  </outline>
</glyph>
<glyph name="comma" format="2">
  <advance width="449"/>
  <unicode hex="002C"/>
  <outline>
    <contour>
      <point x="277" y="133" type="line" smooth="yes"/>
      <point x="277" y="105"/>
      <point x="275" y="76"/>
      <point x="269" y="46" type="curve" smooth="yes"/>
      <point x="202" y="-296"/>
      <point x="-52" y="-423"/>
      <point x="-54" y="-397" type="curve" smooth="yes"/>
      <point x="-56" y="-378"/>
      <point x="121" y="-242"/>
      <point x="162" y="-56" type="curve" smooth="yes"/>
      <point x="165" y="-41"/>
      <point x="166" y="-22"/>
      <point x="167" y="-11" type="curve" smooth="yes"/>
      <point x="168" y="5"/>
      <point x="167" y="10"/>
      <point x="162" y="10" type="curve" smooth="yes"/>
      <point x="152" y="10"/>
      <point x="142" y="-17"/>
      <point x="112" y="-17" type="curve" smooth="yes"/>
      <point x="66" y="-17"/>
      <point x="19" y="32"/>
      <point x="19" y="106" type="curve" smooth="yes"/>
      <point x="19" y="194"/>
      <point x="69" y="296"/>
      <point x="165" y="296" type="curve" smooth="yes"/>
      <point x="239" y="296"/>
      <point x="277" y="225"/>
      <point x="277" y="133" type="curve" smooth="yes"/>
    </contour>
  </outline>
</glyph>
<glyph name="slash" format="2">
  <advance width="697"/>
  <unicode hex="002F"/>
  <outline>
    <contour>
      <point x="-28" y="-35" type="curve" smooth="yes"/>
      <point x="18" y="-35"/>
      <point x="53" y="-28"/>
      <point x="59" y="-16" type="curve" smooth="yes"/>
      <point x="897" y="1564" type="line" smooth="yes"/>
      <point x="905" y="1579"/>
      <point x="876" y="1584"/>
      <point x="833" y="1584" type="curve" smooth="yes"/>
      <point x="789" y="1584"/>
      <point x="756" y="1579"/>
      <point x="748" y="1564" type="curve" smooth="yes"/>
      <point x="-95" y="-16" type="line" smooth="yes"/>
      <point x="-101" y="-28"/>
      <point x="-75" y="-35"/>
    </contour>
  </outline>
</glyph>
<glyph name="zero" format="2">
  <advance width="956"/>
  <unicode hex="0030"/>
  <outline>
    <contour>
      <point x="972" y="1021" type="line" smooth="yes"/>
      <point x="972" y="676"/>
      <point x="804" y="-17"/>
      <point x="385" y="-17" type="curve" smooth="yes"/>
      <point x="164" y="-17"/>
      <point x="78" y="221"/>
      <point x="78" y="487" type="curve" smooth="yes"/>
      <point x="78" y="821"/>
      <point x="264" y="1498"/>
      <point x="659" y="1498" type="curve" smooth="yes"/>
      <point x="890" y="1498"/>
      <point x="972" y="1288"/>
      <point x="972" y="1021" type="curve" smooth="yes"/>
    </contour>
    <contour>
      <point x="751" y="1245" type="line" smooth="yes"/>
      <point x="751" y="1368"/>
      <point x="728" y="1438"/>
      <point x="658" y="1438" type="curve" smooth="yes"/>
      <point x="450" y="1438"/>
      <point x="296" y="468"/>
      <point x="296" y="240" type="curve" smooth="yes"/>
      <point x="296" y="114"/>
      <point x="319" y="43"/>
      <point x="386" y="43" type="curve" smooth="yes"/>
      <point x="595" y="43"/>
      <point x="751" y="1018"/>
      <point x="751" y="1245" type="curve" smooth="yes"/>
    </contour>
  </outline>
</glyph>
<glyph name="one" format="2">
  <advance width="956"/>
  <unicode hex="0031"/>
  <outline>
    <contour>
      <point x="884" y="1447" type="line" smooth="yes"/>
      <point x="873" y="1389"/>
      <point x="783" y="1033"/>
      <point x="732" y="769" type="curve" smooth="yes"/>
      <point x="681" y="505"/>
      <point x="618" y="76"/>
      <point x="608" y="24" type="curve" smooth="yes"/>
      <point x="600" y="-17"/>
      <point x="537" y="-17"/>
      <point x="485" y="-17" type="curve" smooth="yes"/>
      <point x="433" y="-17"/>
      <point x="370" y="-17"/>
      <point x="378" y="24" type="curve" smooth="yes"/>
      <point x="388" y="76"/>
      <point x="491" y="505"/>
      <point x="542" y="769" type="curve" smooth="yes"/>
      <point x="574" y="936"/>
      <point x="606" y="1139"/>
      <point x="628" y="1281" type="curve"/>
      <point x="545" y="1168"/>
      <point x="451" y="1018"/>
      <point x="403" y="914" type="curve" smooth="yes"/>
      <point x="393" y="893"/>
      <point x="360" y="898"/>
      <point x="322" y="931" type="curve" smooth="yes"/>
      <point x="266" y="980"/>
      <point x="255" y="1002"/>
      <point x="272" y="1015" type="curve" smooth="yes"/>
      <point x="332" y="1063"/>
      <point x="641" y="1400"/>
      <point x="654" y="1447" type="curve" smooth="yes"/>
      <point x="665" y="1488"/>
      <point x="727" y="1488"/>
      <point x="777" y="1488" type="curve" smooth="yes"/>
      <point x="827" y="1488"/>
      <point x="892" y="1488"/>
      <point x="884" y="1447" type="curve" smooth="yes"/>
    </contour>
  </outline>
</glyph>
<glyph name="three" format="2">
  <advance width="956"/>
  <unicode hex="0033"/>
  <outline>
    <contour>
      <point x="963" y="1230" type="line" smooth="yes"/>
      <point x="963" y="1067"/>
      <point x="854" y="899"/>
      <point x="692" y="857" type="curve"/>
      <point x="806" y="829"/>
      <point x="885" y="721"/>
      <point x="885" y="559" type="curve" smooth="yes" name="hr01"/>
      <point x="885" y="258"/>
      <point x="685" y="-17"/>
      <point x="363" y="-17" type="curve" smooth="yes"/>
      <point x="169" y="-17"/>
      <point x="60" y="85"/>
      <point x="32" y="161" type="curve" smooth="yes"/>
      <point x="21" y="191"/>
      <point x="40" y="215"/>
      <point x="115" y="254" type="curve" smooth="yes"/>
      <point x="219" y="308"/>
      <point x="257" y="306"/>
      <point x="260" y="295" type="curve" smooth="yes"/>
      <point x="276" y="240"/>
      <point x="244" y="43"/>
      <point x="352" y="43" type="curve" smooth="yes"/>
      <point x="538" y="43"/>
      <point x="634" y="481"/>
      <point x="634" y="644" type="curve" smooth="yes"/>
      <point x="634" y="754"/>
      <point x="591" y="809"/>
      <point x="482" y="791" type="curve" smooth="yes"/>
      <point x="477" y="790"/>
      <point x="467" y="800"/>
      <point x="476" y="854" type="curve" smooth="yes"/>
      <point x="482" y="890"/>
      <point x="494" y="909"/>
      <point x="514" y="909" type="curve" smooth="yes"/>
      <point x="689" y="909"/>
      <point x="720" y="1168"/>
      <point x="720" y="1306" type="curve" smooth="yes" name="hr02"/>
      <point x="720" y="1385"/>
      <point x="697" y="1439"/>
      <point x="631" y="1439" type="curve" smooth="yes"/>
      <point x="499" y="1439"/>
      <point x="478" y="1247"/>
      <point x="452" y="1215" type="curve" smooth="yes"/>
      <point x="428" y="1186"/>
      <point x="401" y="1180"/>
      <point x="313" y="1253" type="curve" smooth="yes"/>
      <point x="271" y="1288"/>
      <point x="265" y="1305"/>
      <point x="287" y="1335" type="curve" smooth="yes"/>
      <point x="357" y="1431"/>
      <point x="518" y="1498"/>
      <point x="652" y="1498" type="curve" smooth="yes"/>
      <point x="862" y="1498"/>
      <point x="963" y="1379"/>
      <point x="963" y="1230" type="curve" smooth="yes"/>
    </contour>
  </outline>
</glyph>
<glyph name="four" format="2">
  <advance width="956"/>
  <unicode hex="0034"/>
  <outline>
    <contour>
      <point x="984" y="1457" type="line" smooth="yes"/>
      <point x="973" y="1399"/>
      <point x="885" y="1043"/>
      <point x="834" y="779" type="curve" smooth="yes"/>
      <point x="822" y="716"/>
      <point x="809" y="642"/>
      <point x="796" y="567" type="curve"/>
      <point x="831" y="579"/>
      <point x="862" y="595"/>
      <point x="887" y="614" type="curve" smooth="yes"/>
      <point x="895" y="620"/>
      <point x="912" y="589"/>
      <point x="907" y="520" type="curve" smooth="yes"/>
      <point x="902" y="459"/>
      <point x="887" y="423"/>
      <point x="875" y="421" type="curve" smooth="yes"/>
      <point x="847" y="416"/>
      <point x="811" y="412"/>
      <point x="770" y="410" type="curve"/>
      <point x="739" y="223"/>
      <point x="714" y="55"/>
      <point x="708" y="24" type="curve" smooth="yes"/>
      <point x="700" y="-17"/>
      <point x="637" y="-17"/>
      <point x="585" y="-17" type="curve" smooth="yes"/>
      <point x="533" y="-17"/>
      <point x="470" y="-17"/>
      <point x="478" y="24" type="curve" smooth="yes"/>
      <point x="484" y="55"/>
      <point x="522" y="220"/>
      <point x="564" y="405" type="curve" name="hr01"/>
      <point x="119" y="405" type="line" smooth="yes"/>
      <point x="73" y="405"/>
      <point x="53" y="420"/>
      <point x="62" y="467" type="curve" smooth="yes"/>
      <point x="94" y="633"/>
      <point x="210" y="756"/>
      <point x="416" y="1002" type="curve" smooth="yes"/>
      <point x="454" y="1048"/>
      <point x="723" y="1376"/>
      <point x="756" y="1456" type="curve" smooth="yes"/>
      <point x="771" y="1492"/>
      <point x="821" y="1498"/>
      <point x="877" y="1498" type="curve" smooth="yes"/>
      <point x="927" y="1498"/>
      <point x="992" y="1498"/>
      <point x="984" y="1457" type="curve" smooth="yes"/>
    </contour>
    <contour>
      <point x="727" y="1272" type="line"/>
      <point x="697" y="1232"/>
      <point x="665" y="1187"/>
      <point x="632" y="1141" type="curve" smooth="yes"/>
      <point x="426" y="851"/>
      <point x="355" y="772"/>
      <point x="320" y="591" type="curve" smooth="yes"/>
      <point x="315" y="566"/>
      <point x="323" y="535"/>
      <point x="345" y="535" type="curve" smooth="yes"/>
      <point x="593" y="535" type="line"/>
      <point x="612" y="622"/>
      <point x="630" y="707"/>
      <point x="644" y="779" type="curve" smooth="yes"/>
      <point x="675" y="938"/>
      <point x="705" y="1131"/>
      <point x="727" y="1272" type="curve"/>
    </contour>
  </outline>
</glyph>
<glyph name="five" format="2">
  <advance width="956"/>
  <unicode hex="0035"/>
  <outline>
    <contour>
      <point x="373" y="-17" type="curve" smooth="yes"/>
      <point x="726" y="-17"/>
      <point x="904" y="308"/>
      <point x="904" y="624" type="curve" smooth="yes"/>
      <point x="904" y="872"/>
      <point x="750" y="969"/>
      <point x="575" y="969" type="curve" smooth="yes" name="hr01"/>
      <point x="468" y="969"/>
      <point x="477" y="952"/>
      <point x="464" y="952" type="curve" smooth="yes"/>
      <point x="456" y="952"/>
      <point x="454" y="953"/>
      <point x="459" y="970" type="curve" smooth="yes"/>
      <point x="489" y="1065"/>
      <point x="579" y="1323"/>
      <point x="587" y="1342" type="curve" smooth="yes"/>
      <point x="595" y="1362"/>
      <point x="605" y="1361"/>
      <point x="626" y="1361" type="curve" smooth="yes"/>
      <point x="809" y="1361" type="line" smooth="yes"/>
      <point x="879" y="1361"/>
      <point x="928" y="1318"/>
      <point x="952" y="1310" type="curve" smooth="yes"/>
      <point x="960" y="1307"/>
      <point x="971" y="1313"/>
      <point x="1005" y="1389" type="curve" smooth="yes"/>
      <point x="1031" y="1448"/>
      <point x="1031" y="1474"/>
      <point x="1020" y="1478" type="curve" smooth="yes"/>
      <point x="995" y="1488"/>
      <point x="931" y="1491"/>
      <point x="828" y="1491" type="curve" smooth="yes"/>
      <point x="445" y="1491" type="line" smooth="yes"/>
      <point x="412" y="1491"/>
      <point x="400" y="1481"/>
      <point x="396" y="1462" type="curve" smooth="yes"/>
      <point x="388" y="1420"/>
      <point x="227" y="960"/>
      <point x="198" y="890" type="curve" smooth="yes"/>
      <point x="191" y="872"/>
      <point x="203" y="857"/>
      <point x="265" y="824" type="curve" smooth="yes"/>
      <point x="319" y="796"/>
      <point x="357" y="787"/>
      <point x="371" y="787" type="curve" smooth="yes"/>
      <point x="440" y="787"/>
      <point x="444" y="912"/>
      <point x="565" y="912" type="curve" smooth="yes"/>
      <point x="633" y="912"/>
      <point x="660" y="851"/>
      <point x="660" y="740" type="curve" smooth="yes"/>
      <point x="660" y="562"/>
      <point x="563" y="43"/>
      <point x="362" y="43" type="curve" smooth="yes"/>
      <point x="241" y="43"/>
      <point x="288" y="170"/>
      <point x="259" y="295" type="curve" smooth="yes"/>
      <point x="255" y="314"/>
      <point x="208" y="307"/>
      <point x="129" y="261" type="curve" smooth="yes"/>
      <point x="38" y="208"/>
      <point x="18" y="171"/>
      <point x="35" y="150" type="curve" smooth="yes"/>
      <point x="94" y="77"/>
      <point x="202" y="-17"/>
    </contour>
  </outline>
</glyph>
<glyph name="six" format="2">
  <advance width="956"/>
  <unicode hex="0036"/>
  <outline>
    <contour>
      <point x="998" y="1334" type="line" smooth="yes"/>
      <point x="1007" y="1316"/>
      <point x="981" y="1276"/>
      <point x="901" y="1231" type="curve" smooth="yes"/>
      <point x="804" y="1176"/>
      <point x="778" y="1193"/>
      <point x="784" y="1226" type="curve" smooth="yes"/>
      <point x="801" y="1315"/>
      <point x="789" y="1439"/>
      <point x="706" y="1439" type="curve" smooth="yes"/>
      <point x="564" y="1439"/>
      <point x="483" y="1266"/>
      <point x="403" y="914" type="curve"/>
      <point x="455" y="946"/>
      <point x="501" y="968"/>
      <point x="556" y="968" type="curve" smooth="yes"/>
      <point x="803" y="968"/>
      <point x="903" y="783"/>
      <point x="903" y="597" type="curve" smooth="yes" name="hr01"/>
      <point x="903" y="314"/>
      <point x="694" y="-17"/>
      <point x="385" y="-17" type="curve" smooth="yes"/>
      <point x="196" y="-17"/>
      <point x="64" y="127"/>
      <point x="64" y="405" type="curve" smooth="yes"/>
      <point x="64" y="792"/>
      <point x="261" y="1499"/>
      <point x="719" y="1499" type="curve" smooth="yes"/>
      <point x="841" y="1499"/>
      <point x="953" y="1429"/>
      <point x="998" y="1334" type="curve" smooth="yes"/>
    </contour>
    <contour>
      <point x="658" y="733" type="line" smooth="yes"/>
      <point x="658" y="831"/>
      <point x="631" y="908"/>
      <point x="554" y="908" type="curve" smooth="yes"/>
      <point x="457" y="908"/>
      <point x="376" y="777"/>
      <point x="336" y="584" type="curve"/>
      <point x="304" y="428"/>
      <point x="286" y="305"/>
      <point x="286" y="215" type="curve" smooth="yes"/>
      <point x="286" y="102"/>
      <point x="316" y="43"/>
      <point x="386" y="43" type="curve" smooth="yes"/>
      <point x="571" y="43"/>
      <point x="658" y="569"/>
      <point x="658" y="733" type="curve" smooth="yes"/>
    </contour>
  </outline>
</glyph>
<glyph name="eight" format="2">
  <advance width="956"/>
  <unicode hex="0038"/>
  <outline>
    <contour>
      <point x="385" y="-17" type="curve" smooth="yes"/>
      <point x="720" y="-17"/>
      <point x="892" y="257"/>
      <point x="892" y="558" type="curve" smooth="yes" name="hr01"/>
      <point x="892" y="694"/>
      <point x="845" y="813"/>
      <point x="722" y="864" type="curve"/>
      <point x="870" y="919"/>
      <point x="977" y="1051"/>
      <point x="977" y="1209" type="curve" smooth="yes"/>
      <point x="977" y="1349"/>
      <point x="887" y="1498"/>
      <point x="659" y="1498" type="curve" smooth="yes"/>
      <point x="439" y="1498"/>
      <point x="229" y="1318"/>
      <point x="229" y="1091" type="curve" smooth="yes" name="hr02"/>
      <point x="229" y="996"/>
      <point x="274" y="905"/>
      <point x="377" y="862" type="curve"/>
      <point x="177" y="784"/>
      <point x="33" y="564"/>
      <point x="33" y="352" type="curve" smooth="yes"/>
      <point x="33" y="193"/>
      <point x="100" y="-17"/>
    </contour>
    <contour>
      <point x="386" y="43" type="curve" smooth="yes"/>
      <point x="305" y="43"/>
      <point x="279" y="115"/>
      <point x="279" y="220" type="curve" smooth="yes"/>
      <point x="279" y="378"/>
      <point x="361" y="834"/>
      <point x="540" y="834" type="curve" smooth="yes"/>
      <point x="620" y="834"/>
      <point x="646" y="766"/>
      <point x="646" y="659" type="curve" smooth="yes" name="hr03"/>
      <point x="646" y="501"/>
      <point x="576" y="43"/>
    </contour>
    <contour>
      <point x="552" y="894" type="curve" smooth="yes"/>
      <point x="503" y="894"/>
      <point x="480" y="932"/>
      <point x="480" y="991" type="curve" smooth="yes"/>
      <point x="480" y="1103"/>
      <point x="533" y="1438"/>
      <point x="658" y="1438" type="curve" smooth="yes"/>
      <point x="713" y="1438"/>
      <point x="734" y="1378"/>
      <point x="734" y="1298" type="curve" smooth="yes"/>
      <point x="734" y="1186"/>
      <point x="686" y="894"/>
    </contour>
  </outline>
</glyph>
<glyph name="colon" format="2">
  <advance width="422"/>
  <unicode hex="003A"/>
  <outline>
    <contour>
      <point x="367" y="709" type="line" smooth="yes"/>
      <point x="367" y="628"/>
      <point x="306" y="523"/>
      <point x="213" y="523" type="curve" smooth="yes"/>
      <point x="162" y="523"/>
      <point x="119" y="564"/>
      <point x="119" y="653" type="curve" smooth="yes"/>
      <point x="119" y="732"/>
      <point x="181" y="835"/>
      <point x="273" y="835" type="curve" smooth="yes"/>
      <point x="327" y="835"/>
      <point x="367" y="786"/>
      <point x="367" y="709" type="curve" smooth="yes"/>
    </contour>
    <contour>
      <point x="262" y="169" type="line" smooth="yes" name="hr01"/>
      <point x="262" y="88"/>
      <point x="201" y="-17"/>
      <point x="108" y="-17" type="curve" smooth="yes"/>
      <point x="57" y="-17"/>
      <point x="14" y="24"/>
      <point x="14" y="113" type="curve" smooth="yes"/>
      <point x="14" y="192"/>
      <point x="76" y="295"/>
      <point x="168" y="295" type="curve" smooth="yes"/>
      <point x="222" y="295"/>
      <point x="262" y="246"/>
      <point x="262" y="169" type="curve" smooth="yes"/>
    </contour>
  </outline>
</glyph>
<glyph name="semicolon" format="2">
  <advance width="450"/>
  <unicode hex="003B"/>
  <outline>
    <contour>
      <point x="367" y="709" type="line" smooth="yes"/>
      <point x="367" y="629"/>
      <point x="306" y="523"/>
      <point x="213" y="523" type="curve" smooth="yes"/>
      <point x="162" y="523"/>
      <point x="119" y="564"/>
      <point x="119" y="653" type="curve" smooth="yes"/>
      <point x="119" y="732"/>
      <point x="181" y="835"/>
      <point x="273" y="835" type="curve" smooth="yes"/>
      <point x="327" y="835"/>
      <point x="367" y="786"/>
      <point x="367" y="709" type="curve" smooth="yes"/>
    </contour>
    <contour>
      <point x="277" y="133" type="line" smooth="yes" name="hr01"/>
      <point x="277" y="105"/>
      <point x="275" y="76"/>
      <point x="269" y="46" type="curve" smooth="yes"/>
      <point x="202" y="-297"/>
      <point x="-52" y="-423"/>
      <point x="-54" y="-397" type="curve" smooth="yes"/>
      <point x="-56" y="-378"/>
      <point x="121" y="-242"/>
      <point x="162" y="-56" type="curve" smooth="yes"/>
      <point x="165" y="-41"/>
      <point x="166" y="-22"/>
      <point x="167" y="-11" type="curve" smooth="yes"/>
      <point x="168" y="5"/>
      <point x="167" y="10"/>
      <point x="162" y="10" type="curve" smooth="yes"/>
      <point x="152" y="10"/>
      <point x="142" y="-17"/>
      <point x="112" y="-17" type="curve" smooth="yes"/>
      <point x="66" y="-17"/>
      <point x="19" y="32"/>
      <point x="19" y="106" type="curve" smooth="yes"/>
      <point x="19" y="194"/>
      <point x="69" y="296"/>
      <point x="165" y="296" type="curve" smooth="yes"/>
      <point x="239" y="296"/>
      <point x="277" y="225"/>
      <point x="277" y="133" type="curve" smooth="yes"/>
    </contour>
  </outline>
</glyph>
<glyph name="equal" format="2">
  <advance width="828"/>
  <unicode hex="003D"/>
  <outline>
    <contour>
      <point x="744" y="419" type="curve"/>
      <point x="719" y="450" type="line"/>
      <point x="94" y="450" type="line"/>
      <point x="80" y="426"/>
      <point x="46" y="366"/>
      <point x="36" y="339" type="curve"/>
      <point x="60" y="308" type="line"/>
      <point x="686" y="308" type="line"/>
      <point x="697" y="328"/>
      <point x="734" y="392"/>
    </contour>
    <contour>
      <point x="782" y="695" type="curve"/>
      <point x="757" y="726" type="line"/>
      <point x="132" y="726" type="line"/>
      <point x="118" y="702"/>
      <point x="83" y="642"/>
      <point x="74" y="615" type="curve"/>
      <point x="98" y="584" type="line"/>
      <point x="724" y="584" type="line"/>
      <point x="735" y="604"/>
      <point x="771" y="668"/>
    </contour>
  </outline>
</glyph>
<glyph name="question" format="2">
  <advance width="792"/>
  <unicode hex="003F"/>
  <outline>
    <contour>
      <point x="359" y="323" type="curve" smooth="yes"/>
      <point x="392" y="322"/>
      <point x="448" y="322"/>
      <point x="449" y="331" type="curve" smooth="yes"/>
      <point x="451" y="352"/>
      <point x="461" y="429"/>
      <point x="475" y="442" type="curve" smooth="yes"/>
      <point x="488" y="453"/>
      <point x="692" y="486"/>
      <point x="737" y="713" type="curve" smooth="yes"/>
      <point x="741" y="733"/>
      <point x="741" y="753"/>
      <point x="741" y="771" type="curve" smooth="yes"/>
      <point x="741" y="905"/>
      <point x="616" y="969"/>
      <point x="479" y="969" type="curve" smooth="yes"/>
      <point x="300" y="969"/>
      <point x="215" y="877"/>
      <point x="165" y="808" type="curve" smooth="yes"/>
      <point x="150" y="787"/>
      <point x="145" y="765"/>
      <point x="213" y="740" type="curve" smooth="yes"/>
      <point x="301" y="708"/>
      <point x="322" y="717"/>
      <point x="331" y="748" type="curve" smooth="yes"/>
      <point x="351" y="814"/>
      <point x="399" y="910"/>
      <point x="463" y="910" type="curve" smooth="yes" name="hr01"/>
      <point x="512" y="910"/>
      <point x="536" y="875"/>
      <point x="536" y="806" type="curve" smooth="yes"/>
      <point x="536" y="781"/>
      <point x="531" y="753"/>
      <point x="525" y="718" type="curve" smooth="yes"/>
      <point x="491" y="544"/>
      <point x="329" y="499"/>
      <point x="318" y="487" type="curve" smooth="yes"/>
      <point x="304" y="472"/>
      <point x="275" y="367"/>
      <point x="275" y="345" type="curve" smooth="yes"/>
      <point x="275" y="332"/>
      <point x="318" y="324"/>
    </contour>
    <contour>
      <point x="292" y="-16" type="curve" smooth="yes"/>
      <point x="384" y="-16"/>
      <point x="433" y="68"/>
      <point x="433" y="151" type="curve" smooth="yes"/>
      <point x="433" y="214"/>
      <point x="398" y="260"/>
      <point x="346" y="260" type="curve" smooth="yes"/>
      <point x="255" y="260"/>
      <point x="205" y="180"/>
      <point x="205" y="98" type="curve" smooth="yes"/>
      <point x="205" y="32"/>
      <point x="242" y="-16"/>
    </contour>
  </outline>
</glyph>
<glyph name="at" format="2">
  <advance width="1943"/>
  <unicode hex="0040"/>
  <outline>
    <contour>
      <point x="991" y="-443" type="curve" smooth="yes"/>
      <point x="1410" y="-443"/>
      <point x="1734" y="-203"/>
      <point x="1876" y="165" type="curve"/>
      <point x="1815" y="165" type="line"/>
      <point x="1696" y="-160"/>
      <point x="1383" y="-386"/>
      <point x="1001" y="-386" type="curve" smooth="yes"/>
      <point x="569" y="-386"/>
      <point x="211" y="-87"/>
      <point x="211" y="388" type="curve" smooth="yes"/>
      <point x="211" y="889"/>
      <point x="556" y="1322"/>
      <point x="1103" y="1322" type="curve" smooth="yes"/>
      <point x="1484" y="1322"/>
      <point x="1733" y="1051"/>
      <point x="1738" y="705" type="curve" smooth="yes"/>
      <point x="1744" y="282"/>
      <point x="1422" y="71"/>
      <point x="1310" y="71" type="curve" smooth="yes"/>
      <point x="1255" y="71"/>
      <point x="1225" y="114"/>
      <point x="1225" y="152" type="curve" smooth="yes"/>
      <point x="1225" y="250"/>
      <point x="1269" y="361"/>
      <point x="1440" y="934" type="curve"/>
      <point x="1198" y="926" type="line"/>
      <point x="1160" y="812" type="line"/>
      <point x="1155" y="845"/>
      <point x="1143" y="963"/>
      <point x="1023" y="963" type="curve" smooth="yes"/>
      <point x="790" y="963"/>
      <point x="500" y="567"/>
      <point x="500" y="225" type="curve" smooth="yes"/>
      <point x="500" y="116"/>
      <point x="548" y="0"/>
      <point x="664" y="0" type="curve" smooth="yes"/>
      <point x="826" y="0"/>
      <point x="920" y="162"/>
      <point x="1017" y="315" type="curve"/>
      <point x="1000" y="263"/>
      <point x="991" y="219"/>
      <point x="991" y="181" type="curve" smooth="yes"/>
      <point x="991" y="49"/>
      <point x="1084" y="0"/>
      <point x="1194" y="0" type="curve" smooth="yes"/>
      <point x="1549" y="0"/>
      <point x="1795" y="335"/>
      <point x="1795" y="703" type="curve" smooth="yes"/>
      <point x="1795" y="1093"/>
      <point x="1545" y="1385"/>
      <point x="1070" y="1385" type="curve" smooth="yes"/>
      <point x="477" y="1385"/>
      <point x="108" y="962"/>
      <point x="108" y="433" type="curve" smooth="yes"/>
      <point x="108" y="-101"/>
      <point x="505" y="-443"/>
    </contour>
    <contour>
      <point x="812" y="185" type="curve" smooth="yes" name="hr01"/>
      <point x="778" y="185"/>
      <point x="760" y="234"/>
      <point x="760" y="274" type="curve" smooth="yes"/>
      <point x="760" y="422"/>
      <point x="902" y="891"/>
      <point x="1046" y="891" type="curve" smooth="yes"/>
      <point x="1099" y="891"/>
      <point x="1115" y="813"/>
      <point x="1115" y="755" type="curve" smooth="yes"/>
      <point x="1115" y="514"/>
      <point x="920" y="185"/>
    </contour>
  </outline>
</glyph>
<glyph name="A" format="2">
  <advance width="1367"/>
  <unicode hex="0041"/>
  <outline>
    <contour>
      <point x="-114" y="0" type="line"/>
      <point x="290" y="0" type="line"/>
      <point x="290" y="37" type="line"/>
      <point x="221" y="39"/>
      <point x="177" y="67"/>
      <point x="177" y="102" type="curve" smooth="yes"/>
      <point x="177" y="134"/>
      <point x="182" y="165"/>
      <point x="317" y="325" type="curve" smooth="yes"/>
      <point x="412" y="437" type="line"/>
      <point x="829" y="437" type="line"/>
      <point x="824" y="305" type="line" smooth="yes"/>
      <point x="818" y="176"/>
      <point x="806" y="124"/>
      <point x="782" y="89" type="curve" smooth="yes"/>
      <point x="756" y="50"/>
      <point x="727" y="37"/>
      <point x="615" y="37" type="curve"/>
      <point x="605" y="0" type="line"/>
      <point x="1220" y="0" type="line"/>
      <point x="1229" y="37" type="line"/>
      <point x="1117" y="53"/>
      <point x="1105" y="77"/>
      <point x="1113" y="270" type="curve" smooth="yes"/>
      <point x="1158" y="1387" type="line"/>
      <point x="1113" y="1387" type="line"/>
      <point x="197" y="294" type="line" smooth="yes"/>
      <point x="13" y="74"/>
      <point x="-22" y="53"/>
      <point x="-106" y="37" type="curve"/>
    </contour>
    <contour>
      <point x="483" y="520" type="line"/>
      <point x="857" y="961" type="line"/>
      <point x="835" y="520" type="line" name="hr01"/>
    </contour>
  </outline>
</glyph>
<glyph name="B" format="2">
  <advance width="1367"/>
  <unicode hex="0042"/>
  <outline>
    <contour>
      <point x="-51" y="0" type="line"/>
      <point x="495" y="0" type="line" smooth="yes"/>
      <point x="885" y="0"/>
      <point x="982" y="32"/>
      <point x="1093" y="140" type="curve" smooth="yes"/>
      <point x="1151" y="195"/>
      <point x="1212" y="285"/>
      <point x="1212" y="400" type="curve" smooth="yes" name="hr01"/>
      <point x="1212" y="491"/>
      <point x="1172" y="654"/>
      <point x="879" y="725" type="curve"/>
      <point x="1210" y="792"/>
      <point x="1322" y="938"/>
      <point x="1322" y="1090" type="curve" smooth="yes"/>
      <point x="1322" y="1164"/>
      <point x="1291" y="1221"/>
      <point x="1245" y="1267" type="curve" smooth="yes"/>
      <point x="1162" y="1350"/>
      <point x="1064" y="1355"/>
      <point x="749" y="1355" type="curve" smooth="yes"/>
      <point x="317" y="1355" type="line"/>
      <point x="305" y="1320" type="line"/>
      <point x="459" y="1314"/>
      <point x="489" y="1280"/>
      <point x="449" y="1141" type="curve" smooth="yes"/>
      <point x="197" y="266" type="line" smooth="yes"/>
      <point x="141" y="72"/>
      <point x="108" y="43"/>
      <point x="-41" y="37" type="curve" name="hr02"/>
    </contour>
    <contour>
      <point x="508" y="75" type="curve" smooth="yes"/>
      <point x="479" y="75"/>
      <point x="428" y="79"/>
      <point x="428" y="79" type="curve"/>
      <point x="601" y="682" type="line"/>
      <point x="705" y="682"/>
      <point x="782" y="678"/>
      <point x="837" y="623" type="curve" smooth="yes"/>
      <point x="877" y="583"/>
      <point x="900" y="525"/>
      <point x="900" y="467" type="curve" smooth="yes" name="hr03"/>
      <point x="900" y="366"/>
      <point x="861" y="75"/>
    </contour>
    <contour>
      <point x="625" y="755" type="curve"/>
      <point x="776" y="1285" type="line"/>
      <point x="881" y="1285"/>
      <point x="927" y="1276"/>
      <point x="961" y="1239" type="curve" smooth="yes"/>
      <point x="993" y="1206"/>
      <point x="1013" y="1171"/>
      <point x="1013" y="1113" type="curve" smooth="yes"/>
      <point x="1013" y="892"/>
      <point x="845" y="755"/>
    </contour>
  </outline>
</glyph>
<glyph name="C" format="2">
  <advance width="1367"/>
  <unicode hex="0043"/>
  <outline>
    <contour>
      <point x="676" y="-32" type="curve" smooth="yes"/>
      <point x="1013" y="-32"/>
      <point x="1156" y="181"/>
      <point x="1237" y="305" type="curve"/>
      <point x="1190" y="305" type="line"/>
      <point x="1078" y="162"/>
      <point x="938" y="85"/>
      <point x="770" y="85" type="curve" smooth="yes"/>
      <point x="603" y="85"/>
      <point x="459" y="175"/>
      <point x="459" y="439" type="curve" smooth="yes"/>
      <point x="459" y="833"/>
      <point x="725" y="1304"/>
      <point x="1044" y="1304" type="curve" smooth="yes" name="hr02"/>
      <point x="1229" y="1304"/>
      <point x="1336" y="1155"/>
      <point x="1338" y="958" type="curve"/>
      <point x="1377" y="958" type="line" name="hr01"/>
      <point x="1478" y="1387" type="line"/>
      <point x="1436" y="1387" type="line" name="hr04"/>
      <point x="1436" y="1387"/>
      <point x="1403" y="1334"/>
      <point x="1336" y="1334" type="curve" smooth="yes" name="hr03"/>
      <point x="1269" y="1334"/>
      <point x="1186" y="1387"/>
      <point x="1032" y="1387" type="curve" smooth="yes"/>
      <point x="605" y="1387"/>
      <point x="132" y="1013"/>
      <point x="132" y="506" type="curve" smooth="yes"/>
      <point x="132" y="193"/>
      <point x="339" y="-32"/>
    </contour>
  </outline>
</glyph>
<glyph name="D" format="2">
  <advance width="1480"/>
  <unicode hex="0044"/>
  <outline>
    <contour>
      <point x="-71" y="0" type="line"/>
      <point x="495" y="0" type="line" smooth="yes"/>
      <point x="1149" y="0"/>
      <point x="1438" y="435"/>
      <point x="1438" y="796" type="curve" smooth="yes"/>
      <point x="1438" y="1156"/>
      <point x="1227" y="1355"/>
      <point x="749" y="1355" type="curve" smooth="yes"/>
      <point x="280" y="1355" type="line"/>
      <point x="268" y="1320" type="line"/>
      <point x="426" y="1312"/>
      <point x="470" y="1280"/>
      <point x="430" y="1141" type="curve" smooth="yes"/>
      <point x="177" y="266" type="line" smooth="yes"/>
      <point x="121" y="72"/>
      <point x="89" y="43"/>
      <point x="-61" y="37" type="curve"/>
    </contour>
    <contour>
      <point x="569" y="79" type="curve" smooth="yes"/>
      <point x="463" y="79"/>
      <point x="436" y="115"/>
      <point x="471" y="236" type="curve" smooth="yes"/>
      <point x="772" y="1277" type="line"/>
      <point x="967" y="1277"/>
      <point x="1109" y="1141"/>
      <point x="1109" y="857" type="curve" smooth="yes"/>
      <point x="1109" y="546"/>
      <point x="934" y="79"/>
    </contour>
  </outline>
</glyph>
<glyph name="E" format="2">
  <advance width="1367"/>
  <unicode hex="0045"/>
  <outline>
    <contour>
      <point x="1393" y="1355" type="line"/>
      <point x="1304" y="1017" type="line"/>
      <point x="1269" y="1017" type="line"/>
      <point x="1273" y="1107"/>
      <point x="1250" y="1153"/>
      <point x="1206" y="1198" type="curve" smooth="yes"/>
      <point x="1134" y="1270"/>
      <point x="1058" y="1283"/>
      <point x="863" y="1283" type="curve" smooth="yes" name="hr01"/>
      <point x="776" y="1283" type="line"/>
      <point x="625" y="757" type="line"/>
      <point x="853" y="756"/>
      <point x="917" y="786"/>
      <point x="971" y="831" type="curve" smooth="yes"/>
      <point x="1018" y="870"/>
      <point x="1046" y="910"/>
      <point x="1078" y="973" type="curve"/>
      <point x="1115" y="973" type="line"/>
      <point x="961" y="445" type="line"/>
      <point x="926" y="445" type="line"/>
      <point x="943" y="535"/>
      <point x="939" y="587"/>
      <point x="894" y="628" type="curve" smooth="yes"/>
      <point x="836" y="683"/>
      <point x="804" y="680"/>
      <point x="603" y="680" type="curve"/>
      <point x="475" y="236" type="line" smooth="yes"/>
      <point x="460" y="185"/>
      <point x="455" y="158"/>
      <point x="455" y="140" type="curve" smooth="yes"/>
      <point x="455" y="104"/>
      <point x="485" y="81"/>
      <point x="605" y="81" type="curve" smooth="yes"/>
      <point x="810" y="81"/>
      <point x="1019" y="160"/>
      <point x="1188" y="372" type="curve"/>
      <point x="1229" y="372" type="line"/>
      <point x="1088" y="0" type="line"/>
      <point x="-67" y="0" type="line"/>
      <point x="-57" y="37" type="line" name="hr02"/>
      <point x="93" y="43"/>
      <point x="125" y="72"/>
      <point x="181" y="266" type="curve" smooth="yes"/>
      <point x="433" y="1141" type="line" smooth="yes"/>
      <point x="474" y="1280"/>
      <point x="445" y="1312"/>
      <point x="288" y="1320" type="curve"/>
      <point x="299" y="1355" type="line"/>
    </contour>
  </outline>
</glyph>
<glyph name="F" format="2">
  <advance width="1367"/>
  <unicode hex="0046"/>
  <outline>
    <contour>
      <point x="1415" y="1355" type="line"/>
      <point x="1324" y="997" type="line"/>
      <point x="1287" y="997" type="line"/>
      <point x="1290" y="1064"/>
      <point x="1263" y="1162"/>
      <point x="1227" y="1198" type="curve" smooth="yes"/>
      <point x="1155" y="1270"/>
      <point x="1095" y="1283"/>
      <point x="863" y="1283" type="curve" smooth="yes" name="hr01"/>
      <point x="776" y="1283" type="line"/>
      <point x="627" y="770" type="line"/>
      <point x="802" y="770"/>
      <point x="856" y="775"/>
      <point x="956" y="841" type="curve" smooth="yes"/>
      <point x="991" y="865"/>
      <point x="1028" y="916"/>
      <point x="1060" y="979" type="curve"/>
      <point x="1097" y="979" type="line"/>
      <point x="942" y="443" type="line"/>
      <point x="904" y="443" type="line"/>
      <point x="920" y="530"/>
      <point x="916" y="589"/>
      <point x="881" y="634" type="curve" smooth="yes"/>
      <point x="841" y="685"/>
      <point x="781" y="689"/>
      <point x="605" y="694" type="curve"/>
      <point x="473" y="236" type="line" smooth="yes"/>
      <point x="430" y="87"/>
      <point x="427" y="44"/>
      <point x="609" y="37" type="curve"/>
      <point x="599" y="0" type="line"/>
      <point x="-75" y="0" type="line"/>
      <point x="-59" y="37" type="line"/>
      <point x="91" y="43"/>
      <point x="123" y="72"/>
      <point x="179" y="266" type="curve" smooth="yes"/>
      <point x="431" y="1141" type="line" smooth="yes"/>
      <point x="472" y="1280"/>
      <point x="443" y="1312"/>
      <point x="286" y="1320" type="curve"/>
      <point x="297" y="1355" type="line"/>
    </contour>
  </outline>
</glyph>
<glyph name="G" format="2">
  <advance width="1480"/>
  <unicode hex="0047"/>
  <outline>
    <contour>
      <point x="1531" y="1387" type="line"/>
      <point x="1436" y="954" type="line" name="hr01"/>
      <point x="1399" y="954" type="line"/>
      <point x="1393" y="1153"/>
      <point x="1316" y="1310"/>
      <point x="1101" y="1310" type="curve" smooth="yes" name="hr02"/>
      <point x="709" y="1310"/>
      <point x="459" y="833"/>
      <point x="459" y="439" type="curve" smooth="yes"/>
      <point x="459" y="175"/>
      <point x="607" y="39"/>
      <point x="768" y="39" type="curve" smooth="yes"/>
      <point x="800" y="39"/>
      <point x="839" y="51"/>
      <point x="885" y="67" type="curve"/>
      <point x="1003" y="475" type="line" smooth="yes"/>
      <point x="1038" y="595"/>
      <point x="993" y="628"/>
      <point x="875" y="632" type="curve"/>
      <point x="885" y="670" type="line"/>
      <point x="1472" y="670" type="line"/>
      <point x="1462" y="632" type="line"/>
      <point x="1348" y="621"/>
      <point x="1341" y="597"/>
      <point x="1298" y="451" type="curve" smooth="yes"/>
      <point x="1180" y="49" type="line"/>
      <point x="1032" y="-4"/>
      <point x="910" y="-32"/>
      <point x="745" y="-32" type="curve" smooth="yes"/>
      <point x="325" y="-32"/>
      <point x="142" y="252"/>
      <point x="142" y="565" type="curve" smooth="yes"/>
      <point x="142" y="1097"/>
      <point x="658" y="1387"/>
      <point x="1091" y="1387" type="curve" smooth="yes"/>
      <point x="1269" y="1387"/>
      <point x="1332" y="1338"/>
      <point x="1413" y="1338" type="curve" smooth="yes" name="hr03"/>
      <point x="1462" y="1338"/>
      <point x="1493" y="1387"/>
      <point x="1493" y="1387" type="curve" name="hr04"/>
    </contour>
  </outline>
</glyph>
<glyph name="H" format="2">
  <advance width="1594"/>
  <unicode hex="0048"/>
  <outline>
    <contour>
      <point x="1750" y="1355" type="line"/>
      <point x="1734" y="1320" type="line"/>
      <point x="1614" y="1314"/>
      <point x="1567" y="1292"/>
      <point x="1511" y="1097" type="curve" smooth="yes"/>
      <point x="1263" y="236" type="line" smooth="yes"/>
      <point x="1220" y="87"/>
      <point x="1223" y="44"/>
      <point x="1405" y="37" type="curve"/>
      <point x="1395" y="0" type="line"/>
      <point x="721" y="0" type="line"/>
      <point x="731" y="37" type="line"/>
      <point x="881" y="43"/>
      <point x="913" y="72"/>
      <point x="969" y="266" type="curve" smooth="yes"/>
      <point x="1082" y="650" type="line"/>
      <point x="587" y="650" type="line"/>
      <point x="467" y="236" type="line" smooth="yes"/>
      <point x="423" y="87"/>
      <point x="427" y="44"/>
      <point x="609" y="37" type="curve"/>
      <point x="599" y="0" type="line"/>
      <point x="-75" y="0" type="line"/>
      <point x="-65" y="37" type="line"/>
      <point x="85" y="43"/>
      <point x="117" y="72"/>
      <point x="173" y="266" type="curve" smooth="yes"/>
      <point x="426" y="1141" type="line" smooth="yes"/>
      <point x="466" y="1280"/>
      <point x="437" y="1312"/>
      <point x="280" y="1320" type="curve"/>
      <point x="292" y="1355" type="line"/>
      <point x="954" y="1355" type="line"/>
      <point x="938" y="1320" type="line"/>
      <point x="818" y="1314"/>
      <point x="771" y="1292"/>
      <point x="715" y="1097" type="curve" smooth="yes"/>
      <point x="611" y="733" type="line"/>
      <point x="1103" y="733" type="line"/>
      <point x="1222" y="1141" type="line" smooth="yes"/>
      <point x="1262" y="1280"/>
      <point x="1233" y="1312"/>
      <point x="1076" y="1320" type="curve"/>
      <point x="1088" y="1355" type="line"/>
    </contour>
  </outline>
</glyph>
<glyph name="I" format="2">
  <advance width="599"/>
  <unicode hex="0049"/>
  <anchor x="247" y="0" name="H"/>
  <anchor x="230" y="-92" name="L"/>
  <anchor x="298" y="0" name="O"/>
  <anchor x="596" y="986" name="R"/>
  <anchor x="400" y="1214" name="U"/>
  <outline>
    <contour>
      <point x="637" y="1159" type="line"/>
      <point x="167" y="1159" type="line"/>
      <point x="157" y="1082" type="line"/>
      <point x="236" y="1065"/>
      <point x="265" y="1040"/>
      <point x="264" y="1025" type="curve" smooth="yes"/>
      <point x="141" y="132" type="line" smooth="yes"/>
      <point x="139" y="115"/>
      <point x="97" y="92"/>
      <point x="19" y="76" type="curve"/>
      <point x="9" y="0" type="line"/>
      <point x="479" y="0" type="line"/>
      <point x="489" y="76" type="line"/>
      <point x="409" y="92"/>
      <point x="379" y="117"/>
      <point x="381" y="132" type="curve" smooth="yes"/>
      <point x="504" y="1025" type="line" smooth="yes"/>
      <point x="506" y="1043"/>
      <point x="548" y="1065"/>
      <point x="627" y="1082" type="curve"/>
    </contour>
  </outline>
</glyph>
<glyph name="J" format="2">
  <advance width="605"/>
  <unicode hex="004A"/>
  <anchor x="188" y="-552" name="L"/>
  <anchor x="431" y="1214" name="U"/>
  <outline>
    <contour>
      <point x="661" y="1159" type="line"/>
      <point x="145" y="1159" type="line"/>
      <point x="135" y="1082" type="line"/>
      <point x="266" y="1061"/>
      <point x="287" y="1040"/>
      <point x="286" y="1025" type="curve" smooth="yes"/>
      <point x="162" y="122" type="line" smooth="yes"/>
      <point x="123" y="-165"/>
      <point x="57" y="-200"/>
      <point x="0" y="-200" type="curve" smooth="yes"/>
      <point x="-75" y="-200"/>
      <point x="-135" y="-111"/>
      <point x="-159" y="-111" type="curve" smooth="yes"/>
      <point x="-189" y="-111"/>
      <point x="-334" y="-250"/>
      <point x="-334" y="-276" type="curve" smooth="yes"/>
      <point x="-334" y="-307"/>
      <point x="-230" y="-368"/>
      <point x="-133" y="-368" type="curve" smooth="yes"/>
      <point x="-48" y="-368"/>
      <point x="71" y="-317"/>
      <point x="138" y="-265" type="curve" smooth="yes"/>
      <point x="238" y="-188"/>
      <point x="378" y="-80"/>
      <point x="414" y="188" type="curve" smooth="yes"/>
      <point x="525" y="1025" type="line" smooth="yes"/>
      <point x="528" y="1043"/>
      <point x="572" y="1065"/>
      <point x="649" y="1082" type="curve"/>
    </contour>
  </outline>
</glyph>
<glyph name="K" format="2">
  <advance width="1367"/>
  <unicode hex="004B"/>
  <outline>
    <contour>
      <point x="-69" y="0" type="line"/>
      <point x="605" y="0" type="line"/>
      <point x="615" y="37" type="line"/>
      <point x="432" y="44"/>
      <point x="430" y="87"/>
      <point x="473" y="236" type="curve" smooth="yes"/>
      <point x="615" y="729" type="line"/>
      <point x="774" y="240" type="line" smooth="yes"/>
      <point x="784" y="212"/>
      <point x="796" y="165"/>
      <point x="796" y="142" type="curve" smooth="yes"/>
      <point x="796" y="91"/>
      <point x="759" y="41"/>
      <point x="680" y="37" type="curve"/>
      <point x="670" y="0" type="line"/>
      <point x="1257" y="0" type="line"/>
      <point x="1269" y="37" type="line"/>
      <point x="1151" y="41"/>
      <point x="1110" y="147"/>
      <point x="1066" y="284" type="curve" smooth="yes"/>
      <point x="875" y="881" type="line"/>
      <point x="1082" y="1064" type="line" smooth="yes"/>
      <point x="1288" y="1247"/>
      <point x="1391" y="1320"/>
      <point x="1517" y="1320" type="curve"/>
      <point x="1527" y="1355" type="line"/>
      <point x="1019" y="1355" type="line"/>
      <point x="1009" y="1320" type="line"/>
      <point x="1076" y="1314"/>
      <point x="1103" y="1277"/>
      <point x="1103" y="1237" type="curve" smooth="yes"/>
      <point x="1103" y="1198"/>
      <point x="1092" y="1182"/>
      <point x="1001" y="1099" type="curve" smooth="yes"/>
      <point x="625" y="760" type="line"/>
      <point x="721" y="1097" type="line" smooth="yes"/>
      <point x="777" y="1292"/>
      <point x="824" y="1314"/>
      <point x="944" y="1320" type="curve"/>
      <point x="959" y="1355" type="line"/>
      <point x="297" y="1355" type="line"/>
      <point x="286" y="1320" type="line"/>
      <point x="443" y="1312"/>
      <point x="472" y="1280"/>
      <point x="431" y="1141" type="curve" smooth="yes"/>
      <point x="179" y="266" type="line" smooth="yes"/>
      <point x="123" y="72"/>
      <point x="91" y="43"/>
      <point x="-59" y="37" type="curve"/>
    </contour>
  </outline>
</glyph>
<glyph name="L" format="2">
  <advance width="1251"/>
  <unicode hex="004C"/>
  <outline>
    <contour>
      <point x="-63" y="0" type="line"/>
      <point x="1026" y="0" type="line"/>
      <point x="1178" y="380" type="line"/>
      <point x="1137" y="380" type="line"/>
      <point x="997" y="181"/>
      <point x="766" y="75"/>
      <point x="562" y="75" type="curve" smooth="yes" name="hr02"/>
      <point x="506" y="75"/>
      <point x="459" y="99"/>
      <point x="459" y="130" type="curve" smooth="yes"/>
      <point x="459" y="148"/>
      <point x="465" y="187"/>
      <point x="479" y="236" type="curve" smooth="yes"/>
      <point x="727" y="1097" type="line" smooth="yes"/>
      <point x="783" y="1292"/>
      <point x="829" y="1314"/>
      <point x="950" y="1320" type="curve"/>
      <point x="965" y="1355" type="line"/>
      <point x="303" y="1355" type="line"/>
      <point x="292" y="1320" type="line"/>
      <point x="449" y="1312"/>
      <point x="478" y="1280"/>
      <point x="437" y="1141" type="curve" smooth="yes"/>
      <point x="185" y="266" type="line" smooth="yes"/>
      <point x="129" y="72"/>
      <point x="97" y="43"/>
      <point x="-53" y="37" type="curve" name="hr01"/>
    </contour>
  </outline>
</glyph>
<glyph name="M" format="2">
  <advance width="1822"/>
  <unicode hex="004D"/>
  <outline>
    <contour>
      <point x="-69" y="0" type="line"/>
      <point x="378" y="0" type="line"/>
      <point x="390" y="37" type="line"/>
      <point x="258" y="41"/>
      <point x="211" y="97"/>
      <point x="254" y="248" type="curve" smooth="yes"/>
      <point x="512" y="1145" type="line"/>
      <point x="634" y="0" type="line"/>
      <point x="676" y="0" type="line"/>
      <point x="1452" y="1123" type="line"/>
      <point x="1202" y="266" type="line" smooth="yes"/>
      <point x="1145" y="72"/>
      <point x="1113" y="43"/>
      <point x="963" y="37" type="curve"/>
      <point x="954" y="0" type="line"/>
      <point x="1627" y="0" type="line"/>
      <point x="1637" y="37" type="line"/>
      <point x="1455" y="44"/>
      <point x="1452" y="87"/>
      <point x="1495" y="236" type="curve" smooth="yes"/>
      <point x="1744" y="1097" type="line" smooth="yes"/>
      <point x="1800" y="1292"/>
      <point x="1864" y="1314"/>
      <point x="1984" y="1320" type="curve"/>
      <point x="1996" y="1355" type="line"/>
      <point x="1521" y="1355" type="line"/>
      <point x="875" y="424" type="line"/>
      <point x="774" y="1355" type="line"/>
      <point x="292" y="1355" type="line"/>
      <point x="278" y="1320" type="line"/>
      <point x="376" y="1320"/>
      <point x="404" y="1308"/>
      <point x="467" y="1245" type="curve"/>
      <point x="195" y="319" type="line" smooth="yes"/>
      <point x="139" y="128"/>
      <point x="99" y="45"/>
      <point x="-59" y="37" type="curve"/>
    </contour>
  </outline>
</glyph>
<glyph name="N" format="2">
  <advance width="1480"/>
  <unicode hex="004E"/>
  <outline>
    <contour>
      <point x="1056" y="-14" type="line"/>
      <point x="1093" y="-14" type="line"/>
      <point x="1422" y="1095" type="line" smooth="yes"/>
      <point x="1480" y="1288"/>
      <point x="1533" y="1302"/>
      <point x="1651" y="1320" type="curve"/>
      <point x="1661" y="1355" type="line"/>
      <point x="1231" y="1355" type="line"/>
      <point x="1222" y="1320" type="line"/>
      <point x="1355" y="1314"/>
      <point x="1379" y="1230"/>
      <point x="1354" y="1141" type="curve" smooth="yes"/>
      <point x="1155" y="453" type="line"/>
      <point x="729" y="1355" type="line"/>
      <point x="286" y="1355" type="line"/>
      <point x="276" y="1320" type="line"/>
      <point x="363" y="1320"/>
      <point x="396" y="1289"/>
      <point x="459" y="1225" type="curve"/>
      <point x="193" y="319" type="line" smooth="yes"/>
      <point x="137" y="128"/>
      <point x="97" y="45"/>
      <point x="-61" y="37" type="curve"/>
      <point x="-71" y="0" type="line"/>
      <point x="376" y="0" type="line"/>
      <point x="388" y="37" type="line" name="hr01"/>
      <point x="256" y="41"/>
      <point x="208" y="97"/>
      <point x="252" y="248" type="curve" smooth="yes"/>
      <point x="512" y="1141" type="line"/>
    </contour>
  </outline>
</glyph>
<glyph name="O" format="2">
  <advance width="1095"/>
  <unicode hex="004F"/>
  <anchor x="496" y="0" name="H"/>
  <anchor x="501" y="-92" name="L"/>
  <anchor x="566" y="0" name="O"/>
  <anchor x="1148" y="986" name="R"/>
  <anchor x="670" y="1214" name="U"/>
  <outline>
    <contour>
      <point x="1085" y="712" type="curve" smooth="yes"/>
      <point x="1085" y="970"/>
      <point x="954" y="1186"/>
      <point x="685" y="1186" type="curve" smooth="yes"/>
      <point x="483" y="1186"/>
      <point x="331" y="1073"/>
      <point x="228" y="936" type="curve" smooth="yes"/>
      <point x="128" y="804"/>
      <point x="64" y="637"/>
      <point x="64" y="446" type="curve" smooth="yes"/>
      <point x="64" y="188"/>
      <point x="216" y="-28"/>
      <point x="470" y="-28" type="curve" smooth="yes"/>
      <point x="633" y="-28"/>
      <point x="797" y="75"/>
      <point x="902" y="207" type="curve" smooth="yes"/>
      <point x="1013" y="346"/>
      <point x="1085" y="539"/>
    </contour>
    <contour>
      <point x="838" y="695" type="curve" smooth="yes"/>
      <point x="838" y="461"/>
      <point x="747" y="101"/>
      <point x="529" y="101" type="curve" smooth="yes"/>
      <point x="388" y="101"/>
      <point x="314" y="260"/>
      <point x="314" y="489" type="curve" smooth="yes"/>
      <point x="314" y="721"/>
      <point x="412" y="1062"/>
      <point x="618" y="1062" type="curve" smooth="yes"/>
      <point x="761" y="1062"/>
      <point x="838" y="902"/>
    </contour>
  </outline>
</glyph>
<glyph name="P" format="2">
  <advance width="1251"/>
  <unicode hex="0050"/>
  <outline>
    <contour>
      <point x="-63" y="0" type="line"/>
      <point x="601" y="0" type="line"/>
      <point x="611" y="37" type="line"/>
      <point x="429" y="44"/>
      <point x="425" y="87"/>
      <point x="469" y="236" type="curve" smooth="yes"/>
      <point x="581" y="623" type="line"/>
      <point x="621" y="615"/>
      <point x="731" y="607"/>
      <point x="776" y="607" type="curve" smooth="yes"/>
      <point x="1149" y="607"/>
      <point x="1320" y="845"/>
      <point x="1320" y="1036" type="curve" smooth="yes"/>
      <point x="1320" y="1137"/>
      <point x="1289" y="1199"/>
      <point x="1227" y="1257" type="curve" smooth="yes"/>
      <point x="1166" y="1314"/>
      <point x="1090" y="1355"/>
      <point x="835" y="1355" type="curve" smooth="yes"/>
      <point x="311" y="1355" type="line"/>
      <point x="299" y="1320" type="line"/>
      <point x="435" y="1320"/>
      <point x="478" y="1280"/>
      <point x="437" y="1141" type="curve" smooth="yes"/>
      <point x="185" y="266" type="line" smooth="yes"/>
      <point x="129" y="72"/>
      <point x="97" y="43"/>
      <point x="-53" y="37" type="curve"/>
    </contour>
    <contour>
      <point x="711" y="694" type="curve" smooth="yes"/>
      <point x="686" y="694"/>
      <point x="642" y="695"/>
      <point x="603" y="701" type="curve"/>
      <point x="766" y="1277" type="line"/>
      <point x="871" y="1277"/>
      <point x="908" y="1271"/>
      <point x="952" y="1231" type="curve" smooth="yes"/>
      <point x="986" y="1200"/>
      <point x="1007" y="1141"/>
      <point x="1007" y="1084" type="curve" smooth="yes"/>
      <point x="1007" y="956"/>
      <point x="932" y="694"/>
    </contour>
  </outline>
</glyph>
<glyph name="Q" format="2">
  <advance width="1123"/>
  <unicode hex="0051"/>
  <anchor x="529" y="-92" name="L"/>
  <anchor x="699" y="1214" name="U"/>
  <outline>
    <contour>
      <point x="1085" y="712" type="curve" smooth="yes"/>
      <point x="1085" y="970"/>
      <point x="954" y="1186"/>
      <point x="685" y="1186" type="curve" smooth="yes"/>
      <point x="483" y="1186"/>
      <point x="330" y="1073"/>
      <point x="228" y="936" type="curve"/>
      <point x="130" y="802"/>
      <point x="64" y="637"/>
      <point x="64" y="446" type="curve" smooth="yes"/>
      <point x="64" y="188"/>
      <point x="216" y="-28"/>
      <point x="470" y="-28" type="curve" smooth="yes"/>
      <point x="633" y="-28"/>
      <point x="798" y="75"/>
      <point x="902" y="207" type="curve" smooth="yes"/>
      <point x="1013" y="346"/>
      <point x="1085" y="539"/>
    </contour>
    <contour>
      <point x="1197" y="-116" type="curve"/>
      <point x="1158" y="-47" type="line"/>
      <point x="1082" y="-102"/>
      <point x="1060" y="-110"/>
      <point x="1032" y="-110" type="curve" smooth="yes"/>
      <point x="909" y="-110"/>
      <point x="800" y="7"/>
      <point x="639" y="45" type="curve" smooth="yes"/>
      <point x="610" y="51"/>
      <point x="418" y="18"/>
      <point x="418" y="18" type="curve"/>
      <point x="621" y="-14"/>
      <point x="797" y="-308"/>
      <point x="1000" y="-308" type="curve" smooth="yes"/>
      <point x="1035" y="-308"/>
      <point x="1128" y="-223"/>
    </contour>
    <contour>
      <point x="838" y="695" type="curve" smooth="yes"/>
      <point x="838" y="461"/>
      <point x="747" y="101"/>
      <point x="529" y="101" type="curve" smooth="yes"/>
      <point x="388" y="101"/>
      <point x="314" y="260"/>
      <point x="314" y="489" type="curve" smooth="yes"/>
      <point x="314" y="721"/>
      <point x="412" y="1062"/>
      <point x="618" y="1062" type="curve" smooth="yes"/>
      <point x="761" y="1062"/>
      <point x="838" y="902"/>
    </contour>
  </outline>
</glyph>
<glyph name="R" format="2">
  <advance width="1367"/>
  <unicode hex="0052"/>
  <outline>
    <contour>
      <point x="1310" y="1056" type="line" smooth="yes"/>
      <point x="1310" y="884"/>
      <point x="1172" y="737"/>
      <point x="940" y="682" type="curve"/>
      <point x="1064" y="276" type="line" smooth="yes"/>
      <point x="1131" y="58"/>
      <point x="1135" y="51"/>
      <point x="1269" y="37" type="curve"/>
      <point x="1269" y="0" type="line"/>
      <point x="849" y="0" type="line"/>
      <point x="656" y="660" type="line"/>
      <point x="620" y="661"/>
      <point x="587" y="662"/>
      <point x="587" y="662" type="curve"/>
      <point x="463" y="236" type="line" smooth="yes"/>
      <point x="419" y="87"/>
      <point x="423" y="44"/>
      <point x="605" y="37" type="curve"/>
      <point x="595" y="0" type="line"/>
      <point x="-69" y="0" type="line"/>
      <point x="-59" y="37" type="line"/>
      <point x="91" y="43"/>
      <point x="123" y="72"/>
      <point x="179" y="266" type="curve" smooth="yes"/>
      <point x="431" y="1141" type="line" smooth="yes"/>
      <point x="472" y="1280"/>
      <point x="430" y="1320"/>
      <point x="294" y="1320" type="curve"/>
      <point x="305" y="1355" type="line"/>
      <point x="829" y="1355" type="line" smooth="yes"/>
      <point x="1084" y="1355"/>
      <point x="1155" y="1324"/>
      <point x="1223" y="1261" type="curve" smooth="yes"/>
      <point x="1286" y="1204"/>
      <point x="1310" y="1139"/>
      <point x="1310" y="1056" type="curve" smooth="yes"/>
    </contour>
    <contour>
      <point x="995" y="1084" type="line" smooth="yes"/>
      <point x="995" y="1141"/>
      <point x="978" y="1200"/>
      <point x="944" y="1231" type="curve" smooth="yes"/>
      <point x="900" y="1271"/>
      <point x="826" y="1283"/>
      <point x="760" y="1277" type="curve"/>
      <point x="603" y="723" type="line"/>
      <point x="619" y="721"/>
      <point x="644" y="719"/>
      <point x="662" y="719" type="curve" smooth="yes"/>
      <point x="883" y="719"/>
      <point x="995" y="892"/>
      <point x="995" y="1084" type="curve" smooth="yes"/>
    </contour>
  </outline>
</glyph>
<glyph name="S" format="2">
  <advance width="1139"/>
  <unicode hex="0053"/>
  <outline>
    <contour>
      <point x="1194" y="1387" type="line"/>
      <point x="1082" y="928" type="line" name="hr01"/>
      <point x="1048" y="928" type="line"/>
      <point x="1046" y="1125"/>
      <point x="910" y="1296"/>
      <point x="751" y="1296" type="curve" smooth="yes" name="hr02"/>
      <point x="640" y="1296"/>
      <point x="554" y="1200"/>
      <point x="554" y="1099" type="curve" smooth="yes"/>
      <point x="554" y="825"/>
      <point x="989" y="697"/>
      <point x="989" y="372" type="curve" smooth="yes"/>
      <point x="989" y="187"/>
      <point x="877" y="-32"/>
      <point x="512" y="-32" type="curve" smooth="yes"/>
      <point x="378" y="-32"/>
      <point x="191" y="20"/>
      <point x="124" y="20" type="curve" smooth="yes" name="hr03"/>
      <point x="45" y="20"/>
      <point x="-4" y="-32"/>
      <point x="-4" y="-32" type="curve" name="hr04"/>
      <point x="-45" y="-32" type="line"/>
      <point x="75" y="485" type="line" name="hr05"/>
      <point x="114" y="485" type="line"/>
      <point x="124" y="236"/>
      <point x="256" y="53"/>
      <point x="467" y="53" type="curve" smooth="yes" name="hr06"/>
      <point x="609" y="53"/>
      <point x="699" y="156"/>
      <point x="699" y="274" type="curve" smooth="yes"/>
      <point x="699" y="554"/>
      <point x="268" y="682"/>
      <point x="268" y="1017" type="curve" smooth="yes"/>
      <point x="268" y="1151"/>
      <point x="368" y="1387"/>
      <point x="713" y="1387" type="curve" smooth="yes"/>
      <point x="839" y="1387"/>
      <point x="954" y="1326"/>
      <point x="1046" y="1326" type="curve" smooth="yes" name="hr07"/>
      <point x="1115" y="1326"/>
      <point x="1151" y="1387"/>
      <point x="1151" y="1387" type="curve" name="hr08"/>
    </contour>
  </outline>
</glyph>
<glyph name="T" format="2">
  <advance width="1033"/>
  <unicode hex="0054"/>
  <anchor x="459" y="0" name="H"/>
  <anchor x="446" y="-92" name="L"/>
  <anchor x="625" y="1214" name="U"/>
  <outline>
    <contour>
      <point x="1120" y="1127" type="curve"/>
      <point x="1091" y="1159" type="line"/>
      <point x="735" y="1159" type="line"/>
      <point x="693" y="1039" type="line"/>
      <point x="930" y="1039" type="line" smooth="yes"/>
      <point x="978" y="1039"/>
      <point x="968" y="960"/>
      <point x="976" y="846" type="curve"/>
      <point x="1048" y="846" type="line"/>
      <point x="1072" y="923"/>
      <point x="1110" y="1064"/>
    </contour>
    <contour>
      <point x="514" y="1039" type="line"/>
      <point x="523" y="1159" type="line"/>
      <point x="158" y="1159" type="line"/>
      <point x="138" y="1094"/>
      <point x="96" y="935"/>
      <point x="80" y="863" type="curve"/>
      <point x="148" y="837" type="line"/>
      <point x="219" y="980"/>
      <point x="251" y="1039"/>
      <point x="286" y="1039" type="curve" smooth="yes"/>
    </contour>
    <contour>
      <point x="730" y="76" type="line"/>
      <point x="628" y="99"/>
      <point x="606" y="126"/>
      <point x="608" y="142" type="curve" smooth="yes"/>
      <point x="731" y="1046" type="line" smooth="yes"/>
      <point x="734" y="1063"/>
      <point x="779" y="1074"/>
      <point x="859" y="1082" type="curve"/>
      <point x="869" y="1159" type="line"/>
      <point x="400" y="1159" type="line"/>
      <point x="390" y="1082" type="line"/>
      <point x="469" y="1074"/>
      <point x="493" y="1060"/>
      <point x="491" y="1046" type="curve" smooth="yes"/>
      <point x="368" y="142" type="line" smooth="yes"/>
      <point x="365" y="125"/>
      <point x="335" y="99"/>
      <point x="227" y="76" type="curve"/>
      <point x="217" y="0" type="line"/>
      <point x="720" y="0" type="line"/>
    </contour>
  </outline>
</glyph>
<glyph name="U" format="2">
  <advance width="1179"/>
  <unicode hex="0055"/>
  <anchor x="570" y="0" name="H"/>
  <anchor x="542" y="-92" name="L"/>
  <anchor x="632" y="0" name="O"/>
  <anchor x="1192" y="986" name="R"/>
  <anchor x="712" y="1214" name="U"/>
  <outline>
    <contour>
      <point x="1242" y="1159" type="line"/>
      <point x="864" y="1159" type="line"/>
      <point x="854" y="1082" type="line"/>
      <point x="933" y="1065"/>
      <point x="956" y="1040"/>
      <point x="954" y="1025" type="curve" smooth="yes"/>
      <point x="871" y="431" type="line"/>
      <point x="846" y="248"/>
      <point x="779" y="115"/>
      <point x="619" y="115" type="curve" smooth="yes"/>
      <point x="468" y="115"/>
      <point x="397" y="194"/>
      <point x="397" y="365" type="curve" smooth="yes"/>
      <point x="397" y="397"/>
      <point x="402" y="433"/>
      <point x="407" y="469" type="curve" smooth="yes"/>
      <point x="488" y="1025" type="line" smooth="yes"/>
      <point x="491" y="1043"/>
      <point x="532" y="1065"/>
      <point x="609" y="1082" type="curve"/>
      <point x="620" y="1159" type="line"/>
      <point x="155" y="1159" type="line"/>
      <point x="145" y="1082" type="line"/>
      <point x="224" y="1065"/>
      <point x="253" y="1040"/>
      <point x="251" y="1025" type="curve" smooth="yes"/>
      <point x="165" y="425" type="line" smooth="yes"/>
      <point x="160" y="388"/>
      <point x="157" y="352"/>
      <point x="157" y="320" type="curve" smooth="yes"/>
      <point x="157" y="95"/>
      <point x="343" y="-28"/>
      <point x="544" y="-28" type="curve" smooth="yes"/>
      <point x="787" y="-28"/>
      <point x="994" y="149"/>
      <point x="1039" y="471" type="curve" smooth="yes"/>
      <point x="1117" y="1025" type="line" smooth="yes"/>
      <point x="1120" y="1043"/>
      <point x="1155" y="1065"/>
      <point x="1232" y="1082" type="curve"/>
    </contour>
  </outline>
</glyph>
<glyph name="V" format="2">
  <advance width="1367"/>
  <unicode hex="0056"/>
  <outline>
    <contour>
      <point x="319" y="-32" type="line" name="hr01"/>
      <point x="364" y="-32" type="line"/>
      <point x="1308" y="1066" type="line" smooth="yes"/>
      <point x="1462" y="1245"/>
      <point x="1513" y="1312"/>
      <point x="1590" y="1320" type="curve"/>
      <point x="1600" y="1355" type="line"/>
      <point x="1218" y="1355" type="line"/>
      <point x="1202" y="1320" type="line"/>
      <point x="1266" y="1312"/>
      <point x="1310" y="1287"/>
      <point x="1310" y="1243" type="curve" smooth="yes"/>
      <point x="1310" y="1188"/>
      <point x="1242" y="1099"/>
      <point x="1166" y="1011" type="curve" smooth="yes"/>
      <point x="627" y="386" type="line" name="hr03"/>
      <point x="658" y="1060" type="line" smooth="yes"/>
      <point x="666" y="1240"/>
      <point x="686" y="1314"/>
      <point x="814" y="1320" type="curve"/>
      <point x="826" y="1355" type="line"/>
      <point x="254" y="1355" type="line"/>
      <point x="244" y="1320" type="line"/>
      <point x="366" y="1306"/>
      <point x="372" y="1281"/>
      <point x="364" y="1091" type="curve" smooth="yes" name="hr02"/>
    </contour>
  </outline>
</glyph>
<glyph name="W" format="2">
  <advance width="1822"/>
  <unicode hex="0057"/>
  <outline>
    <contour>
      <point x="268" y="-32" type="line"/>
      <point x="327" y="-32" type="line"/>
      <point x="993" y="885" type="line"/>
      <point x="926" y="-32" type="line"/>
      <point x="985" y="-32" type="line"/>
      <point x="1848" y="1153" type="line" smooth="yes"/>
      <point x="1942" y="1282"/>
      <point x="1986" y="1310"/>
      <point x="2043" y="1320" type="curve"/>
      <point x="2053" y="1355" type="line"/>
      <point x="1690" y="1355" type="line"/>
      <point x="1681" y="1320" type="line"/>
      <point x="1840" y="1292"/>
      <point x="1820" y="1249"/>
      <point x="1657" y="1023" type="curve" smooth="yes"/>
      <point x="1253" y="463" type="line" name="hr04"/>
      <point x="1298" y="1060" type="line" smooth="yes" name="hr03"/>
      <point x="1312" y="1234"/>
      <point x="1306" y="1316"/>
      <point x="1456" y="1320" type="curve"/>
      <point x="1468" y="1355" type="line"/>
      <point x="916" y="1355" type="line"/>
      <point x="906" y="1320" type="line"/>
      <point x="1032" y="1300"/>
      <point x="1030" y="1269"/>
      <point x="1007" y="1023" type="curve"/>
      <point x="597" y="463" type="line" name="hr02"/>
      <point x="642" y="1060" type="line" smooth="yes"/>
      <point x="660" y="1293"/>
      <point x="674" y="1312"/>
      <point x="804" y="1320" type="curve"/>
      <point x="816" y="1355" type="line"/>
      <point x="264" y="1355" type="line"/>
      <point x="254" y="1320" type="line"/>
      <point x="364" y="1308"/>
      <point x="369" y="1279"/>
      <point x="355" y="1091" type="curve" smooth="yes" name="hr01"/>
    </contour>
  </outline>
</glyph>
<glyph name="X" format="2">
  <advance width="1367"/>
  <unicode hex="0058"/>
  <outline>
    <contour>
      <point x="1564" y="1355" type="line"/>
      <point x="1554" y="1320" type="line"/>
      <point x="1474" y="1306"/>
      <point x="1419" y="1272"/>
      <point x="1058" y="934" type="curve" smooth="yes"/>
      <point x="875" y="762" type="line"/>
      <point x="1090" y="256" type="line" smooth="yes"/>
      <point x="1160" y="89"/>
      <point x="1200" y="55"/>
      <point x="1290" y="37" type="curve"/>
      <point x="1281" y="0" type="line"/>
      <point x="680" y="0" type="line"/>
      <point x="690" y="37" type="line"/>
      <point x="831" y="49"/>
      <point x="842" y="100"/>
      <point x="757" y="299" type="curve" smooth="yes"/>
      <point x="648" y="552" type="line"/>
      <point x="370" y="294" type="line" smooth="yes"/>
      <point x="257" y="188"/>
      <point x="238" y="158"/>
      <point x="238" y="116" type="curve" smooth="yes"/>
      <point x="238" y="85"/>
      <point x="256" y="41"/>
      <point x="359" y="37" type="curve"/>
      <point x="347" y="0" type="line"/>
      <point x="-122" y="0" type="line"/>
      <point x="-114" y="37" type="line"/>
      <point x="-35" y="49"/>
      <point x="27" y="86"/>
      <point x="264" y="303" type="curve" smooth="yes"/>
      <point x="617" y="627" type="line"/>
      <point x="418" y="1091" type="line" smooth="yes"/>
      <point x="361" y="1224"/>
      <point x="333" y="1318"/>
      <point x="201" y="1320" type="curve"/>
      <point x="209" y="1355" type="line"/>
      <point x="806" y="1355" type="line"/>
      <point x="796" y="1320" type="line"/>
      <point x="676" y="1312"/>
      <point x="660" y="1268"/>
      <point x="735" y="1091" type="curve" smooth="yes"/>
      <point x="843" y="835" type="line"/>
      <point x="1005" y="983" type="line" smooth="yes"/>
      <point x="1146" y="1112"/>
      <point x="1212" y="1188"/>
      <point x="1212" y="1243" type="curve" smooth="yes"/>
      <point x="1212" y="1289"/>
      <point x="1168" y="1316"/>
      <point x="1109" y="1320" type="curve"/>
      <point x="1121" y="1355" type="line"/>
    </contour>
  </outline>
</glyph>
<glyph name="Y" format="2">
  <advance width="1251"/>
  <unicode hex="0059"/>
  <outline>
    <contour>
      <point x="197" y="0" type="line"/>
      <point x="871" y="0" type="line"/>
      <point x="881" y="37" type="line"/>
      <point x="698" y="44"/>
      <point x="694" y="87"/>
      <point x="737" y="236" type="curve" smooth="yes"/>
      <point x="831" y="563" type="line"/>
      <point x="1223" y="1101" type="line" smooth="yes"/>
      <point x="1363" y="1293"/>
      <point x="1383" y="1308"/>
      <point x="1466" y="1320" type="curve"/>
      <point x="1476" y="1355" type="line"/>
      <point x="1062" y="1355" type="line"/>
      <point x="1052" y="1320" type="line"/>
      <point x="1116" y="1312"/>
      <point x="1164" y="1279"/>
      <point x="1164" y="1225" type="curve" smooth="yes"/>
      <point x="1164" y="1170"/>
      <point x="1134" y="1109"/>
      <point x="1066" y="1015" type="curve" smooth="yes"/>
      <point x="820" y="672" type="line"/>
      <point x="727" y="1091" type="line" smooth="yes"/>
      <point x="688" y="1268"/>
      <point x="751" y="1310"/>
      <point x="894" y="1320" type="curve"/>
      <point x="908" y="1355" type="line"/>
      <point x="248" y="1355" type="line"/>
      <point x="236" y="1320" type="line"/>
      <point x="366" y="1310"/>
      <point x="394" y="1233"/>
      <point x="428" y="1091" type="curve" smooth="yes"/>
      <point x="544" y="599" type="line"/>
      <point x="447" y="266" type="line" smooth="yes"/>
      <point x="391" y="72"/>
      <point x="357" y="43"/>
      <point x="207" y="37" type="curve"/>
    </contour>
  </outline>
</glyph>
<glyph name="Z" format="2">
  <advance width="1251"/>
  <unicode hex="005A"/>
  <outline>
    <contour>
      <point x="-55" y="0" type="line"/>
      <point x="995" y="0" type="line"/>
      <point x="1139" y="382" type="line"/>
      <point x="1095" y="382" type="line"/>
      <point x="912" y="154"/>
      <point x="755" y="73"/>
      <point x="445" y="73" type="curve" smooth="yes"/>
      <point x="353" y="73" type="line"/>
      <point x="1391" y="1320" type="line"/>
      <point x="1391" y="1355" type="line"/>
      <point x="364" y="1355" type="line"/>
      <point x="250" y="1013" type="line"/>
      <point x="290" y="1013" type="line"/>
      <point x="416" y="1229"/>
      <point x="577" y="1279"/>
      <point x="857" y="1279" type="curve" smooth="yes"/>
      <point x="979" y="1279" type="line"/>
      <point x="-55" y="37" type="line"/>
    </contour>
  </outline>
</glyph>
<glyph name="bracketleft" format="2">
  <advance width="790"/>
  <unicode hex="005B"/>
  <outline>
    <contour>
      <point x="522" y="-442" type="line"/>
      <point x="60" y="-442" type="line"/>
      <point x="444" y="1532" type="line"/>
      <point x="906" y="1532" type="line"/>
      <point x="889" y="1448" type="line"/>
      <point x="647" y="1448" type="line"/>
      <point x="297" y="-354" type="line"/>
      <point x="539" y="-354" type="line"/>
    </contour>
  </outline>
</glyph>
<glyph name="backslash" format="2">
  <advance width="608"/>
  <unicode hex="005C"/>
  <outline>
    <contour>
      <point x="507" y="-5" type="line"/>
      <point x="508" y="-18"/>
      <point x="504" y="-25"/>
      <point x="445" y="-25" type="curve" smooth="yes"/>
      <point x="395" y="-25"/>
      <point x="387" y="-20"/>
      <point x="386" y="-5" type="curve" smooth="yes"/>
      <point x="289" y="1555" type="line" smooth="yes"/>
      <point x="288" y="1570"/>
      <point x="296" y="1575"/>
      <point x="356" y="1575" type="curve" smooth="yes"/>
      <point x="404" y="1575"/>
      <point x="413" y="1569"/>
      <point x="414" y="1555" type="curve" smooth="yes"/>
    </contour>
  </outline>
</glyph>
<glyph name="bracketright" format="2">
  <advance width="790"/>
  <unicode hex="005D"/>
  <outline>
    <contour>
      <point x="362" y="-444" type="line"/>
      <point x="-99" y="-444" type="line"/>
      <point x="-82" y="-354" type="line"/>
      <point x="160" y="-354" type="line"/>
      <point x="511" y="1448" type="line"/>
      <point x="269" y="1448" type="line"/>
      <point x="285" y="1532" type="line"/>
      <point x="746" y="1532" type="line"/>
    </contour>
  </outline>
</glyph>
<glyph name="asciicircum" format="2">
  <advance width="1970"/>
  <unicode hex="005E"/>
  <outline>
    <contour>
      <point x="471" y="20" type="line"/>
      <point x="593" y="20" type="line"/>
      <point x="985" y="1076" type="line"/>
      <point x="1377" y="20" type="line"/>
      <point x="1499" y="20" type="line"/>
      <point x="1046" y="1202" type="line"/>
      <point x="924" y="1202" type="line"/>
    </contour>
  </outline>
</glyph>
<glyph name="grave" format="2">
  <advance width="557"/>
  <unicode hex="0060"/>
  <anchor x="484" y="1260" name="U"/>
  <outline>
    <contour>
      <point x="534" y="972" type="curve"/>
      <point x="425" y="1351" type="line"/>
      <point x="393" y="1351"/>
      <point x="241" y="1319"/>
      <point x="212" y="1313" type="curve"/>
      <point x="173" y="1262" type="line"/>
      <point x="449" y="934" type="line"/>
      <point x="471" y="940"/>
      <point x="509" y="957"/>
    </contour>
  </outline>
</glyph>
<glyph name="a" format="2">
  <advance width="1024"/>
  <unicode hex="0061"/>
  <outline>
    <contour>
      <point x="219" y="-30" type="curve" smooth="yes"/>
      <point x="321" y="-30"/>
      <point x="441" y="71"/>
      <point x="571" y="307" type="curve"/>
      <point x="558" y="260"/>
      <point x="514" y="134"/>
      <point x="514" y="85" type="curve" smooth="yes"/>
      <point x="514" y="20"/>
      <point x="548" y="-30"/>
      <point x="646" y="-30" type="curve" smooth="yes"/>
      <point x="772" y="-30"/>
      <point x="875" y="69"/>
      <point x="967" y="229" type="curve"/>
      <point x="932" y="246" type="line"/>
      <point x="885" y="169"/>
      <point x="824" y="106"/>
      <point x="792" y="106" type="curve" smooth="yes"/>
      <point x="759" y="106"/>
      <point x="760" y="141"/>
      <point x="778" y="207" type="curve" smooth="yes"/>
      <point x="979" y="916" type="line"/>
      <point x="745" y="900" type="line"/>
      <point x="711" y="778" type="line"/>
      <point x="690" y="887"/>
      <point x="638" y="928"/>
      <point x="581" y="928" type="curve" smooth="yes"/>
      <point x="353" y="928"/>
      <point x="41" y="577"/>
      <point x="41" y="213" type="curve" smooth="yes"/>
      <point x="41" y="47"/>
      <point x="124" y="-30"/>
    </contour>
    <contour>
      <point x="359" y="160" type="curve" smooth="yes"/>
      <point x="321" y="160"/>
      <point x="301" y="205"/>
      <point x="301" y="254" type="curve" smooth="yes"/>
      <point x="301" y="467"/>
      <point x="471" y="865"/>
      <point x="593" y="865" type="curve" smooth="yes"/>
      <point x="642" y="865"/>
      <point x="662" y="784"/>
      <point x="662" y="725" type="curve" smooth="yes"/>
      <point x="662" y="514"/>
      <point x="471" y="160"/>
    </contour>
  </outline>
</glyph>
<glyph name="b" format="2">
  <advance width="1024"/>
  <unicode hex="0062"/>
  <outline>
    <contour>
      <point x="366" y="-30" type="curve" smooth="yes"/>
      <point x="670" y="-30"/>
      <point x="961" y="284"/>
      <point x="961" y="640" type="curve" smooth="yes"/>
      <point x="961" y="827"/>
      <point x="851" y="928"/>
      <point x="729" y="928" type="curve" smooth="yes" name="hr01"/>
      <point x="607" y="928"/>
      <point x="536" y="849"/>
      <point x="475" y="786" type="curve"/>
      <point x="650" y="1387" type="line"/>
      <point x="591" y="1387" type="line"/>
      <point x="250" y="1332" type="line"/>
      <point x="238" y="1289" type="line"/>
      <point x="363" y="1294"/>
      <point x="353" y="1230"/>
      <point x="323" y="1125" type="curve" smooth="yes"/>
      <point x="18" y="67" type="line"/>
      <point x="114" y="20"/>
      <point x="244" y="-30"/>
    </contour>
    <contour>
      <point x="353" y="30" type="curve" smooth="yes"/>
      <point x="323" y="30"/>
      <point x="292" y="39"/>
      <point x="262" y="59" type="curve"/>
      <point x="412" y="567" type="line" smooth="yes"/>
      <point x="459" y="727"/>
      <point x="518" y="784"/>
      <point x="595" y="784" type="curve" smooth="yes"/>
      <point x="672" y="784"/>
      <point x="703" y="715"/>
      <point x="703" y="638" type="curve" smooth="yes"/>
      <point x="703" y="402"/>
      <point x="550" y="30"/>
    </contour>
  </outline>
</glyph>
<glyph name="c" format="2">
  <advance width="910"/>
  <unicode hex="0063"/>
  <outline>
    <contour>
      <point x="894" y="757" type="line" smooth="yes"/>
      <point x="894" y="644"/>
      <point x="818" y="593"/>
      <point x="755" y="593" type="curve" smooth="yes"/>
      <point x="695" y="593"/>
      <point x="650" y="636"/>
      <point x="650" y="695" type="curve" smooth="yes"/>
      <point x="650" y="776"/>
      <point x="741" y="790"/>
      <point x="741" y="839" type="curve" smooth="yes" name="hr01"/>
      <point x="741" y="857"/>
      <point x="715" y="881"/>
      <point x="674" y="881" type="curve" smooth="yes"/>
      <point x="496" y="881"/>
      <point x="313" y="595"/>
      <point x="313" y="327" type="curve" smooth="yes"/>
      <point x="313" y="193"/>
      <point x="386" y="108"/>
      <point x="495" y="108" type="curve" smooth="yes"/>
      <point x="603" y="108"/>
      <point x="699" y="173"/>
      <point x="772" y="242" type="curve"/>
      <point x="804" y="213" type="line"/>
      <point x="680" y="71"/>
      <point x="536" y="-30"/>
      <point x="357" y="-30" type="curve" smooth="yes"/>
      <point x="177" y="-30"/>
      <point x="57" y="89"/>
      <point x="57" y="266" type="curve" smooth="yes"/>
      <point x="57" y="556"/>
      <point x="333" y="928"/>
      <point x="674" y="928" type="curve" smooth="yes"/>
      <point x="800" y="928"/>
      <point x="894" y="869"/>
      <point x="894" y="757" type="curve" smooth="yes"/>
    </contour>
  </outline>
</glyph>
<glyph name="d" format="2">
  <advance width="1024"/>
  <unicode hex="0064"/>
  <outline>
    <contour>
      <point x="219" y="-30" type="curve" smooth="yes"/>
      <point x="321" y="-30"/>
      <point x="437" y="75"/>
      <point x="567" y="311" type="curve"/>
      <point x="554" y="264"/>
      <point x="514" y="134"/>
      <point x="514" y="85" type="curve" smooth="yes"/>
      <point x="514" y="20"/>
      <point x="558" y="-30"/>
      <point x="656" y="-30" type="curve" smooth="yes"/>
      <point x="782" y="-30"/>
      <point x="885" y="69"/>
      <point x="977" y="229" type="curve"/>
      <point x="942" y="246" type="line"/>
      <point x="894" y="169"/>
      <point x="833" y="106"/>
      <point x="802" y="106" type="curve" smooth="yes"/>
      <point x="768" y="106"/>
      <point x="769" y="141"/>
      <point x="788" y="207" type="curve" smooth="yes"/>
      <point x="1127" y="1387" type="line"/>
      <point x="1068" y="1387" type="line"/>
      <point x="727" y="1332" type="line"/>
      <point x="715" y="1289" type="line"/>
      <point x="839" y="1294"/>
      <point x="830" y="1229"/>
      <point x="800" y="1125" type="curve" smooth="yes"/>
      <point x="721" y="851" type="line"/>
      <point x="678" y="898"/>
      <point x="638" y="928"/>
      <point x="581" y="928" type="curve" smooth="yes"/>
      <point x="353" y="928"/>
      <point x="41" y="577"/>
      <point x="41" y="213" type="curve" smooth="yes"/>
      <point x="41" y="47"/>
      <point x="124" y="-30"/>
    </contour>
    <contour>
      <point x="359" y="160" type="curve" smooth="yes"/>
      <point x="321" y="160"/>
      <point x="301" y="205"/>
      <point x="301" y="254" type="curve" smooth="yes"/>
      <point x="301" y="467"/>
      <point x="475" y="871"/>
      <point x="597" y="871" type="curve" smooth="yes"/>
      <point x="646" y="871"/>
      <point x="678" y="820"/>
      <point x="678" y="760" type="curve" smooth="yes"/>
      <point x="678" y="550"/>
      <point x="471" y="160"/>
    </contour>
  </outline>
</glyph>
<glyph name="e" format="2">
  <advance width="814"/>
  <unicode hex="0065"/>
  <anchor x="366" y="0" name="H"/>
  <anchor x="353" y="-92" name="L"/>
  <anchor x="412" y="0" name="O"/>
  <anchor x="977" y="800" name="R"/>
  <anchor x="506" y="920" name="U"/>
  <outline>
    <contour>
      <point x="782" y="699" type="curve" smooth="yes"/>
      <point x="782" y="778"/>
      <point x="713" y="861"/>
      <point x="563" y="861" type="curve" smooth="yes"/>
      <point x="460" y="861"/>
      <point x="342" y="797"/>
      <point x="287" y="750" type="curve" smooth="yes"/>
      <point x="136" y="621"/>
      <point x="39" y="471"/>
      <point x="39" y="278" type="curve" smooth="yes"/>
      <point x="39" y="46"/>
      <point x="208" y="-37"/>
      <point x="317" y="-37" type="curve" smooth="yes"/>
      <point x="433" y="-37"/>
      <point x="559" y="36"/>
      <point x="760" y="211" type="curve"/>
      <point x="757" y="220"/>
      <point x="727" y="278"/>
      <point x="713" y="286" type="curve"/>
      <point x="565" y="167"/>
      <point x="463" y="115"/>
      <point x="411" y="115" type="curve" smooth="yes"/>
      <point x="339" y="115"/>
      <point x="280" y="214"/>
      <point x="280" y="374" type="curve" smooth="yes"/>
      <point x="280" y="509"/>
      <point x="310" y="586"/>
      <point x="368" y="664" type="curve" smooth="yes"/>
      <point x="398" y="702"/>
      <point x="448" y="727"/>
      <point x="467" y="727" type="curve" smooth="yes"/>
      <point x="499" y="727"/>
      <point x="524" y="698"/>
      <point x="524" y="648" type="curve" smooth="yes"/>
      <point x="524" y="557"/>
      <point x="490" y="496"/>
      <point x="168" y="359" type="curve"/>
      <point x="174" y="254" type="line"/>
      <point x="723" y="428"/>
      <point x="782" y="591"/>
    </contour>
  </outline>
</glyph>
<glyph name="f" format="2">
  <advance width="633"/>
  <unicode hex="0066"/>
  <anchor x="-46" y="-414" name="H"/>
  <anchor x="354" y="-92" name="L"/>
  <anchor x="577" y="1508" name="U"/>
  <outline>
    <contour>
      <point x="711" y="797" type="curve"/>
      <point x="683" y="832" type="line"/>
      <point x="178" y="832" type="line"/>
      <point x="48" y="750" type="line"/>
      <point x="71" y="713" type="line"/>
      <point x="453" y="713" type="line" smooth="yes"/>
      <point x="527" y="713"/>
      <point x="563" y="705"/>
      <point x="575" y="671" type="curve"/>
      <point x="600" y="684"/>
      <point x="687" y="763"/>
    </contour>
    <contour>
      <point x="968" y="1281" type="curve"/>
      <point x="931" y="1294"/>
      <point x="801" y="1398"/>
      <point x="675" y="1398" type="curve" smooth="yes"/>
      <point x="599" y="1398"/>
      <point x="524" y="1360"/>
      <point x="459" y="1312" type="curve" smooth="yes"/>
      <point x="302" y="1196"/>
      <point x="235" y="1026"/>
      <point x="210" y="827" type="curve"/>
      <point x="129" y="127" type="line"/>
      <point x="107" y="-73"/>
      <point x="30" y="-292"/>
      <point x="-92" y="-360" type="curve"/>
      <point x="-49" y="-446" type="line"/>
      <point x="131" y="-335"/>
      <point x="349" y="-92"/>
      <point x="381" y="177" type="curve"/>
      <point x="462" y="875" type="line"/>
      <point x="479" y="1032"/>
      <point x="511" y="1230"/>
      <point x="603" y="1230" type="curve" smooth="yes"/>
      <point x="664" y="1230"/>
      <point x="701" y="1117"/>
      <point x="742" y="1117" type="curve" smooth="yes"/>
      <point x="772" y="1117"/>
      <point x="916" y="1243"/>
    </contour>
  </outline>
</glyph>
<glyph name="g" format="2">
  <advance width="898"/>
  <unicode hex="0067"/>
  <anchor x="312" y="-414" name="H"/>
  <anchor x="302" y="-552" name="L"/>
  <anchor x="1008" y="800" name="R"/>
  <anchor x="504" y="920" name="U"/>
  <outline>
    <contour>
      <point x="828" y="747" type="curve"/>
      <point x="785" y="752"/>
      <point x="664" y="861"/>
      <point x="581" y="861" type="curve" smooth="yes"/>
      <point x="460" y="861"/>
      <point x="366" y="819"/>
      <point x="298" y="774" type="curve" smooth="yes"/>
      <point x="116" y="654"/>
      <point x="19" y="474"/>
      <point x="19" y="280" type="curve" smooth="yes"/>
      <point x="19" y="50"/>
      <point x="154" y="-37"/>
      <point x="235" y="-37" type="curve" smooth="yes"/>
      <point x="345" y="-37"/>
      <point x="446" y="57"/>
      <point x="552" y="209" type="curve"/>
      <point x="562" y="393" type="line"/>
      <point x="427" y="186"/>
      <point x="363" y="161"/>
      <point x="338" y="161" type="curve" smooth="yes"/>
      <point x="292" y="161"/>
      <point x="257" y="218"/>
      <point x="257" y="348" type="curve" smooth="yes"/>
      <point x="257" y="494"/>
      <point x="321" y="718"/>
      <point x="471" y="718" type="curve" smooth="yes"/>
      <point x="544" y="718"/>
      <point x="653" y="556"/>
      <point x="687" y="556" type="curve" smooth="yes"/>
      <point x="717" y="556"/>
      <point x="776" y="711"/>
    </contour>
    <contour>
      <point x="887" y="792" type="curve"/>
      <point x="851" y="861" type="line"/>
      <point x="743" y="812"/>
      <point x="591" y="732"/>
      <point x="573" y="618" type="curve" smooth="yes"/>
      <point x="526" y="330"/>
      <point x="561" y="199"/>
      <point x="517" y="-44" type="curve" smooth="yes"/>
      <point x="480" y="-247"/>
      <point x="419" y="-284"/>
      <point x="337" y="-284" type="curve" smooth="yes"/>
      <point x="201" y="-284"/>
      <point x="143" y="-189"/>
      <point x="115" y="-189" type="curve" smooth="yes"/>
      <point x="98" y="-189"/>
      <point x="-23" y="-316"/>
      <point x="-23" y="-357" type="curve" smooth="yes"/>
      <point x="-23" y="-401"/>
      <point x="118" y="-460"/>
      <point x="249" y="-460" type="curve" smooth="yes"/>
      <point x="441" y="-460"/>
      <point x="712" y="-253"/>
      <point x="758" y="0" type="curve" smooth="yes"/>
      <point x="792" y="189"/>
      <point x="779" y="333"/>
      <point x="812" y="624" type="curve" smooth="yes"/>
      <point x="822" y="713"/>
      <point x="846" y="758"/>
    </contour>
  </outline>
</glyph>
<glyph name="h" format="2">
  <advance width="1009"/>
  <unicode hex="0068"/>
  <anchor x="151" y="0" name="H"/>
  <anchor x="429" y="-92" name="L"/>
  <anchor x="644" y="1453" name="U"/>
  <outline>
    <contour>
      <point x="988" y="112" type="curve"/>
      <point x="960" y="183" type="line"/>
      <point x="920" y="163"/>
      <point x="897" y="152"/>
      <point x="863" y="152" type="curve" smooth="yes"/>
      <point x="839" y="152"/>
      <point x="830" y="165"/>
      <point x="830" y="207" type="curve" smooth="yes"/>
      <point x="830" y="309"/>
      <point x="906" y="589"/>
      <point x="906" y="717" type="curve" smooth="yes"/>
      <point x="906" y="836"/>
      <point x="861" y="861"/>
      <point x="783" y="861" type="curve" smooth="yes"/>
      <point x="674" y="861"/>
      <point x="551" y="809"/>
      <point x="407" y="678" type="curve"/>
      <point x="429" y="812"/>
      <point x="498" y="1235"/>
      <point x="498" y="1322" type="curve" smooth="yes"/>
      <point x="498" y="1379"/>
      <point x="469" y="1398"/>
      <point x="435" y="1398" type="curve" smooth="yes"/>
      <point x="384" y="1398"/>
      <point x="184" y="1320"/>
      <point x="80" y="1274" type="curve"/>
      <point x="96" y="1201" type="line"/>
      <point x="118" y="1208"/>
      <point x="173" y="1226"/>
      <point x="193" y="1226" type="curve" smooth="yes"/>
      <point x="213" y="1226"/>
      <point x="230" y="1220"/>
      <point x="230" y="1164" type="curve" smooth="yes"/>
      <point x="230" y="1008"/>
      <point x="105" y="263"/>
      <point x="60" y="0" type="curve"/>
      <point x="100" y="-37" type="line"/>
      <point x="130" y="-21"/>
      <point x="300" y="55"/>
      <point x="333" y="69" type="curve"/>
      <point x="333" y="103"/>
      <point x="333" y="141"/>
      <point x="354" y="276" type="curve" smooth="yes"/>
      <point x="371" y="386"/>
      <point x="393" y="477"/>
      <point x="428" y="535" type="curve" smooth="yes"/>
      <point x="491" y="638"/>
      <point x="568" y="658"/>
      <point x="599" y="658" type="curve" smooth="yes"/>
      <point x="625" y="658"/>
      <point x="639" y="644"/>
      <point x="639" y="570" type="curve" smooth="yes"/>
      <point x="639" y="487"/>
      <point x="567" y="135"/>
      <point x="567" y="69" type="curve" smooth="yes"/>
      <point x="567" y="3"/>
      <point x="601" y="-37"/>
      <point x="637" y="-37" type="curve" smooth="yes"/>
      <point x="711" y="-37"/>
      <point x="874" y="46"/>
    </contour>
  </outline>
</glyph>
<glyph name="i" format="2">
  <advance width="569"/>
  <unicode hex="0069"/>
  <outline>
    <contour>
      <point x="187" y="-30" type="curve" smooth="yes"/>
      <point x="313" y="-30"/>
      <point x="416" y="69"/>
      <point x="508" y="229" type="curve"/>
      <point x="473" y="246" type="line"/>
      <point x="426" y="169"/>
      <point x="364" y="106"/>
      <point x="333" y="106" type="curve" smooth="yes"/>
      <point x="299" y="106"/>
      <point x="300" y="141"/>
      <point x="319" y="207" type="curve" smooth="yes"/>
      <point x="526" y="928" type="line"/>
      <point x="467" y="928" type="line"/>
      <point x="126" y="873" type="line"/>
      <point x="114" y="829" type="line"/>
      <point x="114" y="829"/>
      <point x="126" y="833"/>
      <point x="142" y="833" type="curve" smooth="yes"/>
      <point x="231" y="833"/>
      <point x="234" y="786"/>
      <point x="199" y="666" type="curve" smooth="yes"/>
      <point x="69" y="221" type="line" smooth="yes"/>
      <point x="55" y="174"/>
      <point x="45" y="133"/>
      <point x="45" y="102" type="curve" smooth="yes"/>
      <point x="45" y="37"/>
      <point x="89" y="-30"/>
    </contour>
    <contour>
      <point x="469" y="1123" type="curve" smooth="yes"/>
      <point x="551" y="1123"/>
      <point x="615" y="1187"/>
      <point x="615" y="1269" type="curve" smooth="yes"/>
      <point x="615" y="1350"/>
      <point x="551" y="1417"/>
      <point x="469" y="1417" type="curve" smooth="yes"/>
      <point x="387" y="1417"/>
      <point x="321" y="1350"/>
      <point x="321" y="1269" type="curve" smooth="yes"/>
      <point x="321" y="1187"/>
      <point x="387" y="1123"/>
    </contour>
  </outline>
</glyph>
<glyph name="j" format="2">
  <advance width="569"/>
  <unicode hex="006A"/>
  <outline>
    <contour>
      <point x="623" y="1269" type="line" smooth="yes"/>
      <point x="623" y="1187"/>
      <point x="558" y="1123"/>
      <point x="477" y="1123" type="curve" smooth="yes"/>
      <point x="395" y="1123"/>
      <point x="329" y="1187"/>
      <point x="329" y="1269" type="curve" smooth="yes"/>
      <point x="329" y="1350"/>
      <point x="395" y="1417"/>
      <point x="477" y="1417" type="curve" smooth="yes"/>
      <point x="558" y="1417"/>
      <point x="623" y="1350"/>
      <point x="623" y="1269" type="curve" smooth="yes"/>
    </contour>
    <contour>
      <point x="550" y="928" type="line"/>
      <point x="335" y="134" type="line" smooth="yes"/>
      <point x="278" y="-78"/>
      <point x="173" y="-443"/>
      <point x="-162" y="-443" type="curve" smooth="yes"/>
      <point x="-260" y="-443"/>
      <point x="-325" y="-400"/>
      <point x="-325" y="-335" type="curve" smooth="yes"/>
      <point x="-325" y="-270"/>
      <point x="-266" y="-227"/>
      <point x="-207" y="-227" type="curve" smooth="yes"/>
      <point x="-148" y="-227"/>
      <point x="-120" y="-262"/>
      <point x="-120" y="-301" type="curve" smooth="yes"/>
      <point x="-120" y="-341"/>
      <point x="-160" y="-366"/>
      <point x="-160" y="-376" type="curve" smooth="yes"/>
      <point x="-160" y="-382"/>
      <point x="-156" y="-394"/>
      <point x="-134" y="-394" type="curve" smooth="yes" name="hr01"/>
      <point x="-71" y="-394"/>
      <point x="-41" y="-334"/>
      <point x="-8" y="-209" type="curve" smooth="yes"/>
      <point x="223" y="666" type="line" smooth="yes"/>
      <point x="255" y="787"/>
      <point x="254" y="833"/>
      <point x="165" y="833" type="curve" smooth="yes"/>
      <point x="150" y="833"/>
      <point x="138" y="829"/>
      <point x="138" y="829" type="curve"/>
      <point x="150" y="873" type="line"/>
      <point x="491" y="928" type="line"/>
    </contour>
  </outline>
</glyph>
<glyph name="k" format="2">
  <advance width="955"/>
  <unicode hex="006B"/>
  <anchor x="174" y="0" name="H"/>
  <anchor x="416" y="-92" name="L"/>
  <anchor x="1080" y="800" name="R"/>
  <anchor x="632" y="1453" name="U"/>
  <outline>
    <contour>
      <point x="974" y="789" type="curve" smooth="yes"/>
      <point x="974" y="830"/>
      <point x="954" y="855"/>
      <point x="876" y="855" type="curve" smooth="yes"/>
      <point x="799" y="855"/>
      <point x="685" y="841"/>
      <point x="576" y="825" type="curve"/>
      <point x="585" y="752" type="line"/>
      <point x="721" y="758"/>
      <point x="692" y="723"/>
      <point x="522" y="598" type="curve" smooth="yes"/>
      <point x="339" y="463" type="line"/>
      <point x="490" y="431" type="line"/>
      <point x="680" y="548" type="line" smooth="yes"/>
      <point x="864" y="661"/>
      <point x="974" y="753"/>
    </contour>
    <contour>
      <point x="496" y="1303" type="curve" smooth="yes"/>
      <point x="496" y="1390"/>
      <point x="476" y="1398"/>
      <point x="442" y="1398" type="curve" smooth="yes"/>
      <point x="393" y="1398"/>
      <point x="182" y="1320"/>
      <point x="79" y="1274" type="curve"/>
      <point x="96" y="1201" type="line"/>
      <point x="117" y="1208"/>
      <point x="170" y="1226"/>
      <point x="186" y="1226" type="curve" smooth="yes"/>
      <point x="215" y="1226"/>
      <point x="230" y="1222"/>
      <point x="230" y="1161" type="curve" smooth="yes"/>
      <point x="230" y="976"/>
      <point x="79" y="142"/>
      <point x="60" y="0" type="curve"/>
      <point x="102" y="-37" type="line"/>
      <point x="132" y="-21"/>
      <point x="306" y="53"/>
      <point x="340" y="70" type="curve"/>
      <point x="304" y="196"/>
      <point x="496" y="1066"/>
    </contour>
    <contour>
      <point x="955" y="117" type="curve"/>
      <point x="921" y="185" type="line"/>
      <point x="874" y="160"/>
      <point x="826" y="152"/>
      <point x="798" y="152" type="curve" smooth="yes"/>
      <point x="715" y="152"/>
      <point x="632" y="447"/>
      <point x="522" y="510" type="curve"/>
      <point x="339" y="463" type="line"/>
      <point x="439" y="391"/>
      <point x="552" y="-35"/>
      <point x="686" y="-35" type="curve" smooth="yes"/>
      <point x="742" y="-35"/>
      <point x="874" y="49"/>
    </contour>
  </outline>
</glyph>
<glyph name="l" format="2">
  <advance width="523"/>
  <unicode hex="006C"/>
  <anchor x="202" y="0" name="H"/>
  <anchor x="185" y="-92" name="L"/>
  <anchor x="612" y="800" name="R"/>
  <anchor x="411" y="1508" name="U"/>
  <outline>
    <contour>
      <point x="500" y="112" type="curve"/>
      <point x="484" y="183" type="line"/>
      <point x="430" y="161"/>
      <point x="403" y="152"/>
      <point x="375" y="152" type="curve" smooth="yes"/>
      <point x="356" y="152"/>
      <point x="343" y="165"/>
      <point x="343" y="207" type="curve" smooth="yes"/>
      <point x="343" y="374"/>
      <point x="494" y="1132"/>
      <point x="494" y="1322" type="curve" smooth="yes"/>
      <point x="494" y="1379"/>
      <point x="471" y="1398"/>
      <point x="437" y="1398" type="curve" smooth="yes"/>
      <point x="387" y="1398"/>
      <point x="179" y="1320"/>
      <point x="75" y="1274" type="curve"/>
      <point x="93" y="1201" type="line"/>
      <point x="93" y="1201"/>
      <point x="160" y="1226"/>
      <point x="180" y="1226" type="curve" smooth="yes"/>
      <point x="203" y="1226"/>
      <point x="227" y="1220"/>
      <point x="227" y="1164" type="curve" smooth="yes"/>
      <point x="227" y="992"/>
      <point x="78" y="194"/>
      <point x="78" y="71" type="curve" smooth="yes"/>
      <point x="78" y="0"/>
      <point x="110" y="-37"/>
      <point x="144" y="-37" type="curve" smooth="yes"/>
      <point x="225" y="-37"/>
      <point x="379" y="36"/>
    </contour>
  </outline>
</glyph>
<glyph name="m" format="2">
  <advance width="1594"/>
  <unicode hex="006D"/>
  <outline>
    <contour>
      <point x="1487" y="229" type="line"/>
      <point x="1395" y="69"/>
      <point x="1290" y="-12"/>
      <point x="1186" y="-12" type="curve" smooth="yes"/>
      <point x="1088" y="-12"/>
      <point x="1044" y="37"/>
      <point x="1044" y="102" type="curve" smooth="yes"/>
      <point x="1044" y="133"/>
      <point x="1054" y="174"/>
      <point x="1068" y="221" type="curve" smooth="yes"/>
      <point x="1198" y="666" type="line" smooth="yes"/>
      <point x="1213" y="717"/>
      <point x="1210" y="741"/>
      <point x="1186" y="741" type="curve" smooth="yes"/>
      <point x="1135" y="741"/>
      <point x="911" y="483"/>
      <point x="833" y="217" type="curve" smooth="yes"/>
      <point x="770" y="0" type="line"/>
      <point x="516" y="0" type="line"/>
      <point x="707" y="666" type="line" smooth="yes"/>
      <point x="721" y="712"/>
      <point x="721" y="741"/>
      <point x="697" y="741" type="curve" smooth="yes"/>
      <point x="646" y="741"/>
      <point x="421" y="492"/>
      <point x="343" y="223" type="curve" smooth="yes"/>
      <point x="278" y="0" type="line"/>
      <point x="24" y="0" type="line"/>
      <point x="219" y="666" type="line" smooth="yes"/>
      <point x="249" y="771"/>
      <point x="254" y="835"/>
      <point x="130" y="829" type="curve"/>
      <point x="142" y="873" type="line"/>
      <point x="483" y="928" type="line"/>
      <point x="542" y="928" type="line"/>
      <point x="418" y="491" type="line"/>
      <point x="514" y="640" type="line" smooth="yes"/>
      <point x="614" y="795"/>
      <point x="751" y="928"/>
      <point x="861" y="928" type="curve" smooth="yes"/>
      <point x="963" y="928"/>
      <point x="985" y="841"/>
      <point x="985" y="798" type="curve" smooth="yes"/>
      <point x="985" y="735"/>
      <point x="965" y="659"/>
      <point x="910" y="491" type="curve"/>
      <point x="1011" y="640" type="line" smooth="yes"/>
      <point x="1113" y="793"/>
      <point x="1239" y="928"/>
      <point x="1350" y="928" type="curve" smooth="yes"/>
      <point x="1452" y="928"/>
      <point x="1474" y="841"/>
      <point x="1474" y="798" type="curve" smooth="yes"/>
      <point x="1474" y="757"/>
      <point x="1456" y="679"/>
      <point x="1440" y="627" type="curve" smooth="yes"/>
      <point x="1318" y="207" type="line" smooth="yes"/>
      <point x="1301" y="150"/>
      <point x="1302" y="124"/>
      <point x="1332" y="124" type="curve" smooth="yes"/>
      <point x="1354" y="124"/>
      <point x="1405" y="169"/>
      <point x="1452" y="246" type="curve"/>
    </contour>
  </outline>
</glyph>
<glyph name="o" format="2">
  <advance width="1024"/>
  <unicode hex="006F"/>
  <outline>
    <contour>
      <point x="331" y="-30" type="curve" smooth="yes"/>
      <point x="664" y="-30"/>
      <point x="963" y="319"/>
      <point x="963" y="650" type="curve" smooth="yes"/>
      <point x="963" y="812"/>
      <point x="837" y="928"/>
      <point x="674" y="928" type="curve" smooth="yes"/>
      <point x="366" y="928"/>
      <point x="49" y="603"/>
      <point x="49" y="262" type="curve" smooth="yes"/>
      <point x="49" y="95"/>
      <point x="150" y="-30"/>
    </contour>
    <contour>
      <point x="392" y="24" type="curve" smooth="yes"/>
      <point x="339" y="24"/>
      <point x="299" y="69"/>
      <point x="299" y="136" type="curve" smooth="yes"/>
      <point x="299" y="400"/>
      <point x="471" y="875"/>
      <point x="625" y="875" type="curve" smooth="yes"/>
      <point x="682" y="875"/>
      <point x="715" y="829"/>
      <point x="715" y="759" type="curve" smooth="yes"/>
      <point x="715" y="496"/>
      <point x="538" y="24"/>
    </contour>
  </outline>
</glyph>
<glyph name="p" format="2">
  <advance width="1024"/>
  <unicode hex="0070"/>
  <outline>
    <contour>
      <point x="-250" y="-439" type="line"/>
      <point x="290" y="-439" type="line"/>
      <point x="297" y="-402" type="line"/>
      <point x="154" y="-380"/>
      <point x="148" y="-344"/>
      <point x="201" y="-164" type="curve" smooth="yes"/>
      <point x="252" y="10" type="line"/>
      <point x="276" y="0"/>
      <point x="317" y="-30"/>
      <point x="388" y="-30" type="curve" smooth="yes"/>
      <point x="692" y="-30"/>
      <point x="971" y="319"/>
      <point x="971" y="676" type="curve" smooth="yes"/>
      <point x="971" y="826"/>
      <point x="898" y="928"/>
      <point x="776" y="928" type="curve" smooth="yes"/>
      <point x="654" y="928"/>
      <point x="550" y="837"/>
      <point x="469" y="762" type="curve"/>
      <point x="514" y="928" type="line"/>
      <point x="455" y="928" type="line"/>
      <point x="116" y="873" type="line"/>
      <point x="104" y="829" type="line"/>
      <point x="229" y="835"/>
      <point x="219" y="771"/>
      <point x="189" y="666" type="curve" smooth="yes"/>
      <point x="-57" y="-195" type="line" smooth="yes"/>
      <point x="-94" y="-326"/>
      <point x="-122" y="-392"/>
      <point x="-240" y="-402" type="curve"/>
    </contour>
    <contour>
      <point x="392" y="20" type="curve" smooth="yes"/>
      <point x="363" y="20"/>
      <point x="313" y="39"/>
      <point x="278" y="100" type="curve"/>
      <point x="441" y="666" type="line"/>
      <point x="487" y="725"/>
      <point x="548" y="782"/>
      <point x="611" y="782" type="curve" smooth="yes"/>
      <point x="680" y="782"/>
      <point x="705" y="715"/>
      <point x="705" y="638" type="curve" smooth="yes"/>
      <point x="705" y="376"/>
      <point x="548" y="20"/>
    </contour>
  </outline>
</glyph>
<glyph name="q" format="2">
  <advance width="1024"/>
  <unicode hex="0071"/>
  <outline>
    <contour>
      <point x="240" y="-439" type="line"/>
      <point x="766" y="-439" type="line"/>
      <point x="774" y="-402" type="line"/>
      <point x="630" y="-380"/>
      <point x="630" y="-344"/>
      <point x="682" y="-164" type="curve" smooth="yes"/>
      <point x="989" y="900" type="line"/>
      <point x="757" y="900" type="line"/>
      <point x="719" y="770" type="line"/>
      <point x="697" y="879"/>
      <point x="652" y="928"/>
      <point x="563" y="928" type="curve" smooth="yes"/>
      <point x="364" y="928"/>
      <point x="41" y="589"/>
      <point x="41" y="213" type="curve" smooth="yes"/>
      <point x="41" y="47"/>
      <point x="124" y="-30"/>
      <point x="219" y="-30" type="curve" smooth="yes"/>
      <point x="321" y="-30"/>
      <point x="439" y="55"/>
      <point x="569" y="292" type="curve"/>
      <point x="556" y="244"/>
      <point x="428" y="-195"/>
      <point x="428" y="-195" type="curve"/>
      <point x="390" y="-325"/>
      <point x="368" y="-392"/>
      <point x="250" y="-402" type="curve"/>
    </contour>
    <contour>
      <point x="364" y="158" type="curve" smooth="yes" name="hr01"/>
      <point x="323" y="158"/>
      <point x="301" y="205"/>
      <point x="301" y="254" type="curve" smooth="yes"/>
      <point x="301" y="467"/>
      <point x="463" y="865"/>
      <point x="593" y="865" type="curve" smooth="yes"/>
      <point x="632" y="865"/>
      <point x="680" y="812"/>
      <point x="680" y="723" type="curve" smooth="yes"/>
      <point x="680" y="538"/>
      <point x="477" y="158"/>
    </contour>
  </outline>
</glyph>
<glyph name="r" format="2">
  <advance width="798"/>
  <unicode hex="0072"/>
  <outline>
    <contour>
      <point x="826" y="802" type="line" smooth="yes"/>
      <point x="826" y="709"/>
      <point x="768" y="605"/>
      <point x="713" y="605" type="curve" smooth="yes"/>
      <point x="638" y="605"/>
      <point x="640" y="694"/>
      <point x="605" y="694" type="curve" smooth="yes"/>
      <point x="550" y="694"/>
      <point x="398" y="487"/>
      <point x="276" y="0" type="curve"/>
      <point x="35" y="0" type="line"/>
      <point x="201" y="674" type="line" smooth="yes"/>
      <point x="235" y="814"/>
      <point x="211" y="833"/>
      <point x="114" y="831" type="curve"/>
      <point x="122" y="861" type="line"/>
      <point x="426" y="928" type="line"/>
      <point x="485" y="928" type="line"/>
      <point x="335" y="364" type="line"/>
      <point x="556" y="851"/>
      <point x="638" y="928"/>
      <point x="733" y="928" type="curve" smooth="yes"/>
      <point x="790" y="928"/>
      <point x="826" y="879"/>
      <point x="826" y="802" type="curve" smooth="yes"/>
    </contour>
  </outline>
</glyph>
<glyph name="s" format="2">
  <advance width="798"/>
  <unicode hex="0073"/>
  <outline>
    <contour>
      <point x="-6" y="-30" type="line"/>
      <point x="32" y="-30" type="line" name="hr04"/>
      <point x="45" y="-6"/>
      <point x="59" y="10"/>
      <point x="106" y="10" type="curve" smooth="yes" name="hr03"/>
      <point x="142" y="10"/>
      <point x="246" y="-30"/>
      <point x="329" y="-30" type="curve" smooth="yes"/>
      <point x="498" y="-30"/>
      <point x="654" y="93"/>
      <point x="654" y="278" type="curve" smooth="yes"/>
      <point x="654" y="400"/>
      <point x="571" y="493"/>
      <point x="477" y="595" type="curve" smooth="yes"/>
      <point x="382" y="697"/>
      <point x="357" y="727"/>
      <point x="357" y="784" type="curve" smooth="yes"/>
      <point x="357" y="841"/>
      <point x="414" y="877"/>
      <point x="467" y="877" type="curve" smooth="yes" name="hr02"/>
      <point x="554" y="877"/>
      <point x="670" y="790"/>
      <point x="678" y="619" type="curve"/>
      <point x="715" y="619" type="line" name="hr01"/>
      <point x="759" y="928" type="line"/>
      <point x="723" y="928" type="line" name="hr08"/>
      <point x="707" y="904"/>
      <point x="686" y="894"/>
      <point x="662" y="894" type="curve" smooth="yes" name="hr07"/>
      <point x="617" y="894"/>
      <point x="530" y="928"/>
      <point x="435" y="928" type="curve" smooth="yes"/>
      <point x="185" y="928"/>
      <point x="138" y="766"/>
      <point x="138" y="678" type="curve" smooth="yes"/>
      <point x="138" y="589"/>
      <point x="164" y="534"/>
      <point x="288" y="396" type="curve" smooth="yes"/>
      <point x="412" y="258"/>
      <point x="449" y="211"/>
      <point x="449" y="142" type="curve" smooth="yes"/>
      <point x="449" y="73"/>
      <point x="400" y="20"/>
      <point x="321" y="20" type="curve" smooth="yes" name="hr06"/>
      <point x="183" y="20"/>
      <point x="134" y="116"/>
      <point x="75" y="305" type="curve"/>
      <point x="45" y="305" type="line" name="hr05"/>
    </contour>
  </outline>
</glyph>
<glyph name="t" format="2">
  <advance width="569"/>
  <unicode hex="0074"/>
  <outline>
    <contour>
      <point x="187" y="-30" type="curve" smooth="yes"/>
      <point x="313" y="-30"/>
      <point x="416" y="69"/>
      <point x="508" y="229" type="curve"/>
      <point x="473" y="246" type="line"/>
      <point x="426" y="169"/>
      <point x="364" y="106"/>
      <point x="333" y="106" type="curve" smooth="yes"/>
      <point x="299" y="106"/>
      <point x="300" y="141"/>
      <point x="319" y="207" type="curve" smooth="yes"/>
      <point x="485" y="782" type="line"/>
      <point x="615" y="782" type="line"/>
      <point x="650" y="900" type="line"/>
      <point x="518" y="900" type="line" name="hr02"/>
      <point x="597" y="1172" type="line"/>
      <point x="548" y="1172" type="line" name="hr01"/>
      <point x="418" y="1024"/>
      <point x="296" y="920"/>
      <point x="118" y="859" type="curve"/>
      <point x="99" y="782" type="line"/>
      <point x="232" y="782" type="line"/>
      <point x="69" y="221" type="line" smooth="yes"/>
      <point x="55" y="174"/>
      <point x="45" y="133"/>
      <point x="45" y="102" type="curve" smooth="yes"/>
      <point x="45" y="37"/>
      <point x="89" y="-30"/>
    </contour>
  </outline>
</glyph>
<glyph name="u" format="2">
  <advance width="1139"/>
  <unicode hex="0075"/>
  <outline>
    <contour>
      <point x="201" y="-30" type="curve" smooth="yes"/>
      <point x="346" y="-30"/>
      <point x="488" y="146"/>
      <point x="656" y="398" type="curve"/>
      <point x="605" y="221" type="line" smooth="yes"/>
      <point x="591" y="174"/>
      <point x="581" y="133"/>
      <point x="581" y="102" type="curve" smooth="yes"/>
      <point x="581" y="37"/>
      <point x="625" y="-30"/>
      <point x="723" y="-30" type="curve" smooth="yes"/>
      <point x="833" y="-30"/>
      <point x="932" y="69"/>
      <point x="1024" y="229" type="curve"/>
      <point x="989" y="246" type="line"/>
      <point x="942" y="169"/>
      <point x="887" y="106"/>
      <point x="869" y="106" type="curve" smooth="yes"/>
      <point x="835" y="106"/>
      <point x="836" y="141"/>
      <point x="855" y="207" type="curve" smooth="yes"/>
      <point x="1054" y="900" type="line"/>
      <point x="804" y="891" type="line"/>
      <point x="711" y="585" type="line"/>
      <point x="510" y="219"/>
      <point x="400" y="160"/>
      <point x="359" y="160" type="curve" smooth="yes"/>
      <point x="329" y="160"/>
      <point x="323" y="171"/>
      <point x="349" y="262" type="curve" smooth="yes"/>
      <point x="540" y="928" type="line"/>
      <point x="481" y="928" type="line"/>
      <point x="140" y="873" type="line"/>
      <point x="128" y="829" type="line"/>
      <point x="128" y="829"/>
      <point x="140" y="833"/>
      <point x="156" y="833" type="curve" smooth="yes"/>
      <point x="244" y="833"/>
      <point x="248" y="786"/>
      <point x="213" y="666" type="curve" smooth="yes"/>
      <point x="83" y="221" type="line" smooth="yes"/>
      <point x="69" y="174"/>
      <point x="59" y="133"/>
      <point x="59" y="102" type="curve" smooth="yes"/>
      <point x="59" y="37"/>
      <point x="102" y="-30"/>
    </contour>
  </outline>
</glyph>
<glyph name="v" format="2">
  <advance width="918"/>
  <unicode hex="0076"/>
  <anchor x="404" y="0" name="H"/>
  <anchor x="384" y="-92" name="L"/>
  <anchor x="358" y="0" name="O"/>
  <anchor x="523" y="920" name="U"/>
  <outline>
    <contour>
      <point x="918" y="783" type="curve" smooth="yes"/>
      <point x="918" y="841"/>
      <point x="883" y="861"/>
      <point x="840" y="861" type="curve" smooth="yes"/>
      <point x="781" y="861"/>
      <point x="607" y="788"/>
      <point x="528" y="743" type="curve"/>
      <point x="549" y="674" type="line"/>
      <point x="575" y="684"/>
      <point x="593" y="688"/>
      <point x="613" y="688" type="curve" smooth="yes"/>
      <point x="647" y="688"/>
      <point x="661" y="674"/>
      <point x="661" y="641" type="curve" smooth="yes"/>
      <point x="661" y="615"/>
      <point x="651" y="497"/>
      <point x="485" y="241" type="curve"/>
      <point x="481" y="287"/>
      <point x="415" y="650"/>
      <point x="386" y="744" type="curve" smooth="yes"/>
      <point x="359" y="830"/>
      <point x="339" y="861"/>
      <point x="303" y="861" type="curve" smooth="yes"/>
      <point x="264" y="861"/>
      <point x="100" y="780"/>
      <point x="-3" y="726" type="curve"/>
      <point x="22" y="655" type="line"/>
      <point x="47" y="664"/>
      <point x="94" y="678"/>
      <point x="112" y="678" type="curve" smooth="yes"/>
      <point x="133" y="678"/>
      <point x="158" y="668"/>
      <point x="178" y="602" type="curve" smooth="yes"/>
      <point x="212" y="490"/>
      <point x="269" y="207"/>
      <point x="299" y="0" type="curve"/>
      <point x="337" y="-37" type="line"/>
      <point x="362" y="-26"/>
      <point x="490" y="36"/>
      <point x="511" y="47" type="curve"/>
      <point x="812" y="531"/>
      <point x="918" y="704"/>
    </contour>
  </outline>
</glyph>
<glyph name="w" format="2">
  <advance width="1367"/>
  <unicode hex="0077"/>
  <outline>
    <contour>
      <point x="1359" y="774" type="line" smooth="yes"/>
      <point x="1359" y="607"/>
      <point x="1225" y="363"/>
      <point x="768" y="-30" type="curve"/>
      <point x="727" y="-30" type="line"/>
      <point x="666" y="585" type="line"/>
      <point x="234" y="-30" type="line"/>
      <point x="191" y="-30" type="line" name="hr01"/>
      <point x="232" y="705"/>
      <point x="201" y="796"/>
      <point x="99" y="804" type="curve" smooth="yes"/>
      <point x="83" y="805"/>
      <point x="57" y="800"/>
      <point x="57" y="800" type="curve"/>
      <point x="57" y="835" type="line"/>
      <point x="402" y="928" type="line"/>
      <point x="451" y="780"/>
      <point x="465" y="613"/>
      <point x="453" y="380" type="curve"/>
      <point x="839" y="928" type="line"/>
      <point x="881" y="928" type="line"/>
      <point x="956" y="225" type="line"/>
      <point x="1143" y="408"/>
      <point x="1198" y="512"/>
      <point x="1198" y="601" type="curve" smooth="yes"/>
      <point x="1198" y="701"/>
      <point x="1109" y="703"/>
      <point x="1109" y="806" type="curve" smooth="yes" name="hr02"/>
      <point x="1109" y="869"/>
      <point x="1155" y="928"/>
      <point x="1231" y="928" type="curve" smooth="yes"/>
      <point x="1308" y="928"/>
      <point x="1359" y="855"/>
      <point x="1359" y="774" type="curve" smooth="yes"/>
    </contour>
  </outline>
</glyph>
<glyph name="x" format="2">
  <advance width="884"/>
  <unicode hex="0078"/>
  <anchor x="634" y="0" name="H"/>
  <anchor x="395" y="-92" name="L"/>
  <anchor x="533" y="920" name="U"/>
  <outline>
    <contour>
      <point x="895" y="812" type="curve" smooth="yes"/>
      <point x="895" y="838"/>
      <point x="864" y="861"/>
      <point x="788" y="861" type="curve" smooth="yes"/>
      <point x="730" y="861"/>
      <point x="596" y="845"/>
      <point x="515" y="828" type="curve"/>
      <point x="520" y="754" type="line"/>
      <point x="537" y="756"/>
      <point x="552" y="757"/>
      <point x="563" y="757" type="curve" smooth="yes"/>
      <point x="610" y="757"/>
      <point x="628" y="745"/>
      <point x="628" y="724" type="curve" smooth="yes"/>
      <point x="628" y="705"/>
      <point x="546" y="582"/>
      <point x="437" y="456" type="curve"/>
      <point x="519" y="377" type="line"/>
      <point x="765" y="626"/>
      <point x="895" y="762"/>
    </contour>
    <contour>
      <point x="871" y="103" type="curve"/>
      <point x="846" y="173" type="line"/>
      <point x="801" y="150"/>
      <point x="754" y="143"/>
      <point x="725" y="143" type="curve" smooth="yes"/>
      <point x="610" y="143"/>
      <point x="445" y="861"/>
      <point x="309" y="861" type="curve" smooth="yes"/>
      <point x="264" y="861"/>
      <point x="118" y="790"/>
      <point x="15" y="736" type="curve"/>
      <point x="37" y="663" type="line"/>
      <point x="76" y="673"/>
      <point x="136" y="687"/>
      <point x="157" y="687" type="curve" smooth="yes"/>
      <point x="276" y="687"/>
      <point x="425" y="-37"/>
      <point x="586" y="-37" type="curve" smooth="yes"/>
      <point x="653" y="-37"/>
      <point x="765" y="29"/>
    </contour>
    <contour>
      <point x="467" y="339" type="curve"/>
      <point x="382" y="422" type="line"/>
      <point x="273" y="287"/>
      <point x="75" y="109"/>
      <point x="-45" y="3" type="curve"/>
      <point x="-14" y="-37" type="line"/>
      <point x="30" y="-24"/>
      <point x="194" y="3"/>
      <point x="239" y="9" type="curve"/>
      <point x="336" y="156"/>
      <point x="416" y="265"/>
    </contour>
  </outline>
</glyph>
<glyph name="y" format="2">
  <advance width="916"/>
  <unicode hex="0079"/>
  <anchor x="625" y="-92" name="L"/>
  <anchor x="1079" y="800" name="R"/>
  <anchor x="552" y="920" name="U"/>
  <outline>
    <contour>
      <point x="544" y="52" type="line"/>
      <point x="501" y="299"/>
      <point x="424" y="589"/>
      <point x="369" y="744" type="curve" smooth="yes"/>
      <point x="340" y="828"/>
      <point x="315" y="861"/>
      <point x="281" y="861" type="curve" smooth="yes"/>
      <point x="233" y="861"/>
      <point x="83" y="792"/>
      <point x="-28" y="736" type="curve"/>
      <point x="-8" y="665" type="line"/>
      <point x="21" y="674"/>
      <point x="65" y="687"/>
      <point x="81" y="687" type="curve" smooth="yes"/>
      <point x="103" y="687"/>
      <point x="119" y="674"/>
      <point x="148" y="611" type="curve" smooth="yes"/>
      <point x="202" y="494"/>
      <point x="308" y="95"/>
      <point x="344" y="-116" type="curve"/>
      <point x="374" y="-143" type="line"/>
    </contour>
    <contour>
      <point x="904" y="791" type="curve" smooth="yes"/>
      <point x="904" y="851"/>
      <point x="861" y="861"/>
      <point x="819" y="861" type="curve" smooth="yes"/>
      <point x="750" y="861"/>
      <point x="613" y="803"/>
      <point x="525" y="752" type="curve"/>
      <point x="551" y="681" type="line"/>
      <point x="586" y="697"/>
      <point x="604" y="702"/>
      <point x="625" y="702" type="curve" smooth="yes"/>
      <point x="656" y="702"/>
      <point x="674" y="683"/>
      <point x="674" y="654" type="curve" smooth="yes"/>
      <point x="674" y="580"/>
      <point x="553" y="308"/>
      <point x="425" y="68" type="curve" smooth="yes"/>
      <point x="310" y="-146"/>
      <point x="216" y="-270"/>
      <point x="134" y="-270" type="curve" smooth="yes"/>
      <point x="89" y="-270"/>
      <point x="14" y="-235"/>
      <point x="-43" y="-175" type="curve"/>
      <point x="-77" y="-193"/>
      <point x="-184" y="-329"/>
      <point x="-184" y="-367" type="curve" smooth="yes"/>
      <point x="-184" y="-396"/>
      <point x="-69" y="-460"/>
      <point x="31" y="-460" type="curve" smooth="yes"/>
      <point x="250" y="-460"/>
      <point x="402" y="-240"/>
      <point x="575" y="75" type="curve" smooth="yes"/>
      <point x="750" y="397"/>
      <point x="904" y="708"/>
    </contour>
  </outline>
</glyph>
<glyph name="z" format="2">
  <advance width="898"/>
  <unicode hex="007A"/>
  <outline>
    <contour>
      <point x="928" y="877" type="line"/>
      <point x="276" y="217" type="line"/>
      <point x="567" y="217" type="line" smooth="yes"/>
      <point x="686" y="217"/>
      <point x="718" y="217"/>
      <point x="778" y="351" type="curve"/>
      <point x="814" y="351" type="line"/>
      <point x="695" y="0" type="line"/>
      <point x="-14" y="0" type="line"/>
      <point x="-14" y="30" type="line"/>
      <point x="636" y="692" type="line"/>
      <point x="345" y="692" type="line" smooth="yes"/>
      <point x="223" y="692"/>
      <point x="197" y="682"/>
      <point x="136" y="567" type="curve"/>
      <point x="100" y="567" type="line"/>
      <point x="223" y="900" type="line"/>
      <point x="928" y="900" type="line"/>
    </contour>
  </outline>
</glyph>
<glyph name="braceleft" format="2">
  <advance width="1217"/>
  <unicode hex="007B"/>
  <outline>
    <contour>
      <point x="755" y="-491" type="curve"/>
      <point x="766" y="-430" type="line"/>
      <point x="627" y="-393"/>
      <point x="540" y="-320"/>
      <point x="571" y="-158" type="curve" smooth="yes"/>
      <point x="592" y="-54"/>
      <point x="658" y="32"/>
      <point x="679" y="137" type="curve" smooth="yes"/>
      <point x="723" y="367"/>
      <point x="617" y="472"/>
      <point x="452" y="536" type="curve"/>
      <point x="640" y="600"/>
      <point x="791" y="714"/>
      <point x="833" y="930" type="curve" smooth="yes"/>
      <point x="854" y="1037"/>
      <point x="824" y="1143"/>
      <point x="845" y="1249" type="curve" smooth="yes"/>
      <point x="876" y="1411"/>
      <point x="992" y="1484"/>
      <point x="1146" y="1521" type="curve"/>
      <point x="1158" y="1582" type="line"/>
      <point x="989" y="1610"/>
      <point x="631" y="1457"/>
      <point x="580" y="1191" type="curve" smooth="yes"/>
      <point x="555" y="1066"/>
      <point x="578" y="915"/>
      <point x="558" y="813" type="curve" smooth="yes"/>
      <point x="531" y="674"/>
      <point x="370" y="609"/>
      <point x="262" y="596" type="curve"/>
      <point x="242" y="496" type="line"/>
      <point x="347" y="483"/>
      <point x="481" y="416"/>
      <point x="453" y="274" type="curve" smooth="yes"/>
      <point x="434" y="176"/>
      <point x="361" y="65"/>
      <point x="338" y="-54" type="curve" smooth="yes"/>
      <point x="286" y="-320"/>
      <point x="531" y="-522"/>
    </contour>
  </outline>
</glyph>
<glyph name="bar" format="2">
  <advance width="600"/>
  <unicode hex="007C"/>
  <outline>
    <contour>
      <point x="-16" y="-493" type="line"/>
      <point x="171" y="-493" type="line"/>
      <point x="575" y="1583" type="line"/>
      <point x="388" y="1583" type="line"/>
    </contour>
  </outline>
</glyph>
<glyph name="braceright" format="2">
  <advance width="1217"/>
  <unicode hex="007D"/>
  <outline>
    <contour>
      <point x="987" y="596" type="line"/>
      <point x="967" y="496" type="line"/>
      <point x="857" y="483"/>
      <point x="698" y="416"/>
      <point x="670" y="274" type="curve" smooth="yes"/>
      <point x="651" y="176"/>
      <point x="678" y="45"/>
      <point x="655" y="-74" type="curve" smooth="yes"/>
      <point x="603" y="-340"/>
      <point x="284" y="-522"/>
      <point x="73" y="-491" type="curve"/>
      <point x="84" y="-430" type="line"/>
      <point x="239" y="-393"/>
      <point x="353" y="-320"/>
      <point x="384" y="-158" type="curve" smooth="yes"/>
      <point x="405" y="-54"/>
      <point x="375" y="52"/>
      <point x="396" y="157" type="curve" smooth="yes"/>
      <point x="440" y="387"/>
      <point x="588" y="491"/>
      <point x="778" y="555" type="curve"/>
      <point x="615" y="619"/>
      <point x="508" y="734"/>
      <point x="550" y="950" type="curve" smooth="yes"/>
      <point x="571" y="1057"/>
      <point x="637" y="1143"/>
      <point x="658" y="1249" type="curve" smooth="yes"/>
      <point x="689" y="1411"/>
      <point x="603" y="1484"/>
      <point x="464" y="1521" type="curve"/>
      <point x="476" y="1582" type="line"/>
      <point x="655" y="1610"/>
      <point x="948" y="1437"/>
      <point x="897" y="1171" type="curve" smooth="yes"/>
      <point x="872" y="1046"/>
      <point x="795" y="915"/>
      <point x="775" y="813" type="curve" smooth="yes"/>
      <point x="748" y="674"/>
      <point x="884" y="609"/>
      <point x="987" y="596" type="curve"/>
    </contour>
  </outline>
</glyph>
<glyph name="asciitilde" format="2">
  <advance width="1125"/>
  <unicode hex="007E"/>
  <outline>
    <contour>
      <point x="1107" y="709" type="line"/>
      <point x="1107" y="532"/>
      <point x="1000" y="386"/>
      <point x="835" y="386" type="curve" smooth="yes"/>
      <point x="668" y="386"/>
      <point x="388" y="565"/>
      <point x="248" y="565" type="curve" smooth="yes"/>
      <point x="165" y="565"/>
      <point x="91" y="506"/>
      <point x="75" y="388" type="curve"/>
      <point x="18" y="388" type="line"/>
      <point x="26" y="587"/>
      <point x="122" y="711"/>
      <point x="282" y="711" type="curve" smooth="yes"/>
      <point x="457" y="711"/>
      <point x="741" y="526"/>
      <point x="873" y="526" type="curve" smooth="yes"/>
      <point x="981" y="526"/>
      <point x="1038" y="611"/>
      <point x="1050" y="709" type="curve"/>
    </contour>
  </outline>
</glyph>
<glyph name="cent" format="2">
  <advance width="890"/>
  <unicode hex="00A2"/>
  <outline>
    <contour>
      <point x="905" y="861" type="curve"/>
      <point x="849" y="874"/>
      <point x="743" y="970"/>
      <point x="626" y="970" type="curve" smooth="yes"/>
      <point x="505" y="970"/>
      <point x="426" y="938"/>
      <point x="359" y="895" type="curve"/>
      <point x="178" y="774"/>
      <point x="77" y="598"/>
      <point x="77" y="433" type="curve" smooth="yes"/>
      <point x="77" y="174"/>
      <point x="263" y="102"/>
      <point x="374" y="102" type="curve" smooth="yes"/>
      <point x="519" y="102"/>
      <point x="606" y="169"/>
      <point x="798" y="345" type="curve"/>
      <point x="793" y="356"/>
      <point x="757" y="405"/>
      <point x="747" y="421" type="curve"/>
      <point x="615" y="311"/>
      <point x="548" y="253"/>
      <point x="457" y="253" type="curve" smooth="yes"/>
      <point x="391" y="253"/>
      <point x="312" y="309"/>
      <point x="312" y="469" type="curve" smooth="yes"/>
      <point x="312" y="638"/>
      <point x="401" y="839"/>
      <point x="532" y="839" type="curve" smooth="yes"/>
      <point x="620" y="839"/>
      <point x="664" y="672"/>
      <point x="700" y="672" type="curve" smooth="yes"/>
      <point x="739" y="672"/>
      <point x="862" y="823"/>
    </contour>
    <contour>
      <point x="617" y="1098" type="line"/>
      <point x="598" y="1119" type="line"/>
      <point x="564" y="1109"/>
      <point x="531" y="1085"/>
      <point x="499" y="1063" type="curve"/>
      <point x="349" y="-24" type="line"/>
      <point x="367" y="-45" type="line"/>
      <point x="395" y="-35"/>
      <point x="445" y="-8"/>
      <point x="467" y="11" type="curve"/>
    </contour>
  </outline>
</glyph>
<glyph name="sterling" format="2">
  <advance width="890"/>
  <unicode hex="00A3"/>
  <outline>
    <contour>
      <point x="884" y="1071" type="curve"/>
      <point x="786" y="1129"/>
      <point x="682" y="1136"/>
      <point x="622" y="1136" type="curve" smooth="yes"/>
      <point x="351" y="1136"/>
      <point x="144" y="878"/>
      <point x="123" y="531" type="curve"/>
      <point x="101" y="194"/>
      <point x="65" y="141"/>
      <point x="-57" y="45" type="curve"/>
      <point x="-31" y="-27" type="line"/>
      <point x="152" y="87"/>
      <point x="560" y="-91"/>
      <point x="725" y="0" type="curve"/>
      <point x="739" y="35"/>
      <point x="786" y="192"/>
      <point x="810" y="298" type="curve"/>
      <point x="743" y="323" type="line"/>
      <point x="674" y="180"/>
      <point x="630" y="141"/>
      <point x="523" y="138" type="curve" smooth="yes"/>
      <point x="397" y="135"/>
      <point x="398" y="152"/>
      <point x="241" y="138" type="curve"/>
      <point x="331" y="253"/>
      <point x="375" y="375"/>
      <point x="382" y="547" type="curve"/>
      <point x="400" y="996"/>
      <point x="529" y="1017"/>
      <point x="593" y="1017" type="curve" smooth="yes"/>
      <point x="692" y="1017"/>
      <point x="738" y="915"/>
      <point x="734" y="763" type="curve"/>
      <point x="808" y="763" type="line"/>
      <point x="828" y="810"/>
      <point x="874" y="1009"/>
    </contour>
    <contour>
      <point x="660" y="564" type="line"/>
      <point x="633" y="595" type="line"/>
      <point x="45" y="595" type="line"/>
      <point x="34" y="575"/>
      <point x="4" y="525"/>
      <point x="-2" y="506" type="curve"/>
      <point x="19" y="474" type="line"/>
      <point x="609" y="474" type="line"/>
    </contour>
  </outline>
</glyph>
<glyph name="currency" format="2">
  <advance width="890"/>
  <unicode hex="00A4"/>
  <outline>
    <contour>
      <point x="477" y="770" type="curve"/>
      <point x="593" y="764"/>
      <point x="655" y="658"/>
      <point x="641" y="553" type="curve" smooth="yes"/>
      <point x="626" y="442"/>
      <point x="530" y="337"/>
      <point x="418" y="337" type="curve" smooth="yes"/>
      <point x="301" y="337"/>
      <point x="239" y="450"/>
      <point x="253" y="552" type="curve" smooth="yes"/>
      <point x="267" y="665"/>
      <point x="364" y="770"/>
    </contour>
    <contour>
      <point x="143" y="551" type="curve"/>
      <point x="123" y="377"/>
      <point x="220" y="215"/>
      <point x="402" y="215" type="curve" smooth="yes"/>
      <point x="586" y="215"/>
      <point x="728" y="384"/>
      <point x="751" y="551" type="curve" smooth="yes"/>
      <point x="774" y="718"/>
      <point x="669" y="894"/>
      <point x="494" y="894" type="curve" smooth="yes"/>
      <point x="309" y="894"/>
      <point x="166" y="717"/>
    </contour>
    <contour>
      <point x="264" y="414" type="line"/>
      <point x="225" y="411" type="line"/>
      <point x="27" y="220" type="line"/>
      <point x="34" y="193"/>
      <point x="44" y="163"/>
      <point x="52" y="140" type="curve"/>
      <point x="90" y="138" type="line"/>
      <point x="288" y="328" type="line"/>
    </contour>
    <contour>
      <point x="340" y="743" type="line"/>
      <point x="344" y="787" type="line"/>
      <point x="206" y="968" type="line"/>
      <point x="179" y="956"/>
      <point x="150" y="942"/>
      <point x="128" y="929" type="curve"/>
      <point x="119" y="885" type="line"/>
      <point x="258" y="703" type="line"/>
    </contour>
    <contour>
      <point x="768" y="177" type="line"/>
      <point x="773" y="221" type="line"/>
      <point x="633" y="404" type="line"/>
      <point x="609" y="392"/>
      <point x="578" y="377"/>
      <point x="556" y="364" type="curve"/>
      <point x="547" y="321" type="line"/>
      <point x="686" y="138" type="line"/>
    </contour>
    <contour>
      <point x="839" y="968" type="line"/>
      <point x="800" y="967" type="line"/>
      <point x="600" y="775" type="line"/>
      <point x="608" y="749"/>
      <point x="617" y="718"/>
      <point x="626" y="695" type="curve"/>
      <point x="665" y="692" type="line"/>
      <point x="862" y="884" type="line"/>
    </contour>
  </outline>
</glyph>
<glyph name="yen" format="2">
  <advance width="890"/>
  <unicode hex="00A5"/>
  <outline>
    <contour>
      <point x="1028" y="1107" type="line"/>
      <point x="664" y="1107" type="line"/>
      <point x="654" y="1031" type="line"/>
      <point x="739" y="1019"/>
      <point x="761" y="1002"/>
      <point x="740" y="970" type="curve"/>
      <point x="536" y="637" type="line"/>
      <point x="481" y="814"/>
      <point x="424" y="950"/>
      <point x="356" y="1071" type="curve" smooth="yes"/>
      <point x="341" y="1100"/>
      <point x="304" y="1116"/>
      <point x="271" y="1116" type="curve" smooth="yes"/>
      <point x="224" y="1116"/>
      <point x="88" y="1098"/>
      <point x="20" y="1088" type="curve"/>
      <point x="12" y="1012" type="line"/>
      <point x="107" y="1012"/>
      <point x="123" y="998"/>
      <point x="138" y="970" type="curve" smooth="yes"/>
      <point x="202" y="855"/>
      <point x="280" y="663"/>
      <point x="333" y="471" type="curve"/>
      <point x="332" y="461" type="line"/>
      <point x="94" y="461" type="line"/>
      <point x="84" y="442"/>
      <point x="57" y="382"/>
      <point x="49" y="364" type="curve"/>
      <point x="65" y="342" type="line"/>
      <point x="315" y="342" type="line"/>
      <point x="288" y="142" type="line" smooth="yes"/>
      <point x="286" y="125"/>
      <point x="254" y="99"/>
      <point x="148" y="76" type="curve"/>
      <point x="138" y="0" type="line"/>
      <point x="643" y="0" type="line"/>
      <point x="653" y="76" type="line"/>
      <point x="549" y="99"/>
      <point x="526" y="126"/>
      <point x="529" y="142" type="curve"/>
      <point x="555" y="342" type="line"/>
      <point x="769" y="342" type="line"/>
      <point x="816" y="440" type="line"/>
      <point x="798" y="461" type="line"/>
      <point x="572" y="461" type="line"/>
      <point x="573" y="468" type="line"/>
      <point x="885" y="970" type="line"/>
      <point x="906" y="1001"/>
      <point x="938" y="1015"/>
      <point x="1018" y="1031" type="curve"/>
    </contour>
  </outline>
</glyph>
<glyph name="dieresis" format="2">
  <advance width="958"/>
  <unicode hex="00A8"/>
  <anchor x="570" y="1244" name="U"/>
  <outline>
    <contour>
      <point x="862" y="1170" type="curve" smooth="yes"/>
      <point x="862" y="1220"/>
      <point x="832" y="1272"/>
      <point x="767" y="1272" type="curve" smooth="yes"/>
      <point x="669" y="1272"/>
      <point x="611" y="1165"/>
      <point x="611" y="1091" type="curve" smooth="yes"/>
      <point x="611" y="1040"/>
      <point x="640" y="989"/>
      <point x="705" y="989" type="curve" smooth="yes"/>
      <point x="804" y="989"/>
      <point x="862" y="1092"/>
    </contour>
    <contour>
      <point x="502" y="1170" type="curve" smooth="yes"/>
      <point x="502" y="1220"/>
      <point x="471" y="1272"/>
      <point x="406" y="1272" type="curve" smooth="yes"/>
      <point x="309" y="1272"/>
      <point x="251" y="1165"/>
      <point x="251" y="1091" type="curve" smooth="yes"/>
      <point x="251" y="1040"/>
      <point x="279" y="989"/>
      <point x="345" y="989" type="curve" smooth="yes"/>
      <point x="443" y="989"/>
      <point x="502" y="1092"/>
    </contour>
  </outline>
</glyph>
<glyph name="guillemotleft" format="2">
  <advance width="918"/>
  <unicode hex="00AB"/>
  <outline>
    <contour>
      <point x="701" y="-2" type="line"/>
      <point x="760" y="43" type="line"/>
      <point x="650" y="429" type="line"/>
      <point x="722" y="557"/>
      <point x="793" y="684"/>
      <point x="864" y="812" type="curve"/>
      <point x="818" y="858" type="line"/>
      <point x="414" y="462" type="line"/>
      <point x="410" y="440"/>
      <point x="406" y="417"/>
      <point x="402" y="395" type="curve"/>
    </contour>
    <contour>
      <point x="341" y="-2" type="line"/>
      <point x="402" y="43" type="line"/>
      <point x="290" y="429" type="line"/>
      <point x="362" y="557"/>
      <point x="434" y="684"/>
      <point x="506" y="812" type="curve"/>
      <point x="459" y="858" type="line"/>
      <point x="55" y="462" type="line"/>
      <point x="51" y="440"/>
      <point x="47" y="417"/>
      <point x="44" y="395" type="curve"/>
    </contour>
  </outline>
</glyph>
<glyph name="logicalnot" format="2">
  <advance width="890"/>
  <unicode hex="00AC"/>
  <outline>
    <contour>
      <point x="803" y="557" type="line"/>
      <point x="774" y="586" type="line"/>
      <point x="774" y="586"/>
      <point x="743" y="586"/>
      <point x="92" y="586" type="curve"/>
      <point x="78" y="563"/>
      <point x="43" y="503"/>
      <point x="34" y="478" type="curve"/>
      <point x="58" y="447" type="line"/>
      <point x="662" y="447" type="line"/>
      <point x="625" y="181" type="line"/>
      <point x="650" y="149" type="line"/>
      <point x="678" y="159"/>
      <point x="731" y="195"/>
      <point x="755" y="214" type="curve"/>
    </contour>
  </outline>
</glyph>
<glyph name="sfthyphen" format="2">
  <advance width="736"/>
  <unicode hex="00AD"/>
  <outline>
    <contour>
      <point x="625" y="551" type="line" smooth="yes"/>
      <point x="614" y="493"/>
      <point x="605" y="472"/>
      <point x="590" y="472" type="curve" smooth="yes"/>
      <point x="129" y="472" type="line" smooth="yes"/>
      <point x="113" y="472"/>
      <point x="114" y="493"/>
      <point x="125" y="551" type="curve" smooth="yes"/>
      <point x="135" y="604"/>
      <point x="145" y="630"/>
      <point x="162" y="630" type="curve" smooth="yes"/>
      <point x="618" y="630" type="line" smooth="yes"/>
      <point x="634" y="630"/>
      <point x="635" y="604"/>
      <point x="625" y="551" type="curve" smooth="yes"/>
    </contour>
  </outline>
</glyph>
<glyph name="macron" format="2">
  <advance width="863"/>
  <unicode hex="00AF"/>
  <outline>
    <contour>
      <point x="923" y="1184" type="curve"/>
      <point x="897" y="1217" type="line"/>
      <point x="200" y="1217" type="line"/>
      <point x="186" y="1192"/>
      <point x="146" y="1120"/>
      <point x="137" y="1095" type="curve"/>
      <point x="161" y="1064" type="line"/>
      <point x="859" y="1064" type="line"/>
      <point x="871" y="1084"/>
      <point x="915" y="1158"/>
    </contour>
  </outline>
</glyph>
<glyph name="degree" format="2">
  <advance width="627"/>
  <unicode hex="00B0"/>
  <outline>
    <contour>
      <point x="629" y="987" type="curve" smooth="yes"/>
      <point x="629" y="1079"/>
      <point x="574" y="1163"/>
      <point x="468" y="1163" type="curve" smooth="yes"/>
      <point x="333" y="1163"/>
      <point x="172" y="1014"/>
      <point x="172" y="844" type="curve" smooth="yes"/>
      <point x="172" y="762"/>
      <point x="215" y="670"/>
      <point x="333" y="670" type="curve" smooth="yes"/>
      <point x="462" y="670"/>
      <point x="629" y="805"/>
    </contour>
    <contour>
      <point x="388" y="810" type="curve" smooth="yes"/>
      <point x="350" y="810"/>
      <point x="316" y="840"/>
      <point x="316" y="897" type="curve" smooth="yes"/>
      <point x="316" y="967"/>
      <point x="369" y="1023"/>
      <point x="416" y="1023" type="curve" smooth="yes"/>
      <point x="463" y="1023"/>
      <point x="486" y="977"/>
      <point x="486" y="936" type="curve" smooth="yes"/>
      <point x="486" y="876"/>
      <point x="446" y="810"/>
    </contour>
  </outline>
</glyph>
<glyph name="threesuperior" format="2">
  <advance width="622"/>
  <unicode hex="00B3"/>
  <anchor x="288" y="504" name="L"/>
  <anchor x="417" y="1288" name="U"/>
  <outline>
    <contour>
      <point x="603" y="1112" type="curve" smooth="yes"/>
      <point x="603" y="1178"/>
      <point x="561" y="1241"/>
      <point x="412" y="1241" type="curve" smooth="yes"/>
      <point x="264" y="1241"/>
      <point x="145" y="1142"/>
      <point x="134" y="1081" type="curve"/>
      <point x="151" y="1041" type="line"/>
      <point x="192" y="1043"/>
      <point x="271" y="1067"/>
      <point x="306" y="1085" type="curve"/>
      <point x="301" y="1140"/>
      <point x="334" y="1173"/>
      <point x="376" y="1173" type="curve" smooth="yes"/>
      <point x="413" y="1173"/>
      <point x="430" y="1151"/>
      <point x="430" y="1105" type="curve" smooth="yes"/>
      <point x="430" y="1019"/>
      <point x="370" y="963"/>
      <point x="252" y="938" type="curve"/>
      <point x="255" y="883" type="line"/>
      <point x="279" y="886"/>
      <point x="286" y="886"/>
      <point x="306" y="886" type="curve" smooth="yes"/>
      <point x="368" y="886"/>
      <point x="412" y="854"/>
      <point x="412" y="781" type="curve" smooth="yes"/>
      <point x="412" y="685"/>
      <point x="345" y="626"/>
      <point x="269" y="626" type="curve" smooth="yes"/>
      <point x="209" y="626"/>
      <point x="147" y="644"/>
      <point x="84" y="695" type="curve"/>
      <point x="46" y="635" type="line"/>
      <point x="104" y="577"/>
      <point x="206" y="541"/>
      <point x="266" y="541" type="curve" smooth="yes"/>
      <point x="439" y="541"/>
      <point x="587" y="657"/>
      <point x="587" y="795" type="curve" smooth="yes"/>
      <point x="587" y="869"/>
      <point x="546" y="935"/>
      <point x="456" y="944" type="curve"/>
      <point x="539" y="974"/>
      <point x="603" y="1032"/>
    </contour>
  </outline>
</glyph>
<glyph name="acute" format="2">
  <advance width="557"/>
  <unicode hex="00B4"/>
  <anchor x="281" y="1260" name="U"/>
  <outline>
    <contour>
      <point x="545" y="1314" type="line"/>
      <point x="522" y="1322"/>
      <point x="378" y="1348"/>
      <point x="349" y="1351" type="curve"/>
      <point x="145" y="985" type="line"/>
      <point x="162" y="964"/>
      <point x="195" y="939"/>
      <point x="214" y="934" type="curve"/>
      <point x="568" y="1254" type="line"/>
    </contour>
  </outline>
</glyph>
<glyph name="mu" format="2">
  <advance width="1040"/>
  <unicode hex="00B5"/>
  <outline>
    <contour>
      <point x="1032" y="197" type="curve"/>
      <point x="1000" y="261" type="line"/>
      <point x="953" y="200"/>
      <point x="909" y="173"/>
      <point x="886" y="173" type="curve" smooth="yes"/>
      <point x="868" y="173"/>
      <point x="852" y="205"/>
      <point x="852" y="270" type="curve" smooth="yes"/>
      <point x="852" y="391"/>
      <point x="924" y="708"/>
      <point x="947" y="816" type="curve"/>
      <point x="943" y="827"/>
      <point x="929" y="848"/>
      <point x="919" y="861" type="curve"/>
      <point x="868" y="848"/>
      <point x="692" y="786"/>
      <point x="649" y="770" type="curve"/>
      <point x="661" y="747"/>
      <point x="665" y="701"/>
      <point x="665" y="662" type="curve" smooth="yes"/>
      <point x="665" y="572"/>
      <point x="605" y="333"/>
      <point x="605" y="205" type="curve" smooth="yes"/>
      <point x="605" y="88"/>
      <point x="657" y="-37"/>
      <point x="734" y="-37" type="curve" smooth="yes"/>
      <point x="802" y="-37"/>
      <point x="919" y="12"/>
    </contour>
    <contour>
      <point x="692" y="518" type="line"/>
      <point x="549" y="241"/>
      <point x="471" y="183"/>
      <point x="426" y="183" type="curve" smooth="yes"/>
      <point x="391" y="183"/>
      <point x="362" y="221"/>
      <point x="362" y="311" type="curve" smooth="yes"/>
      <point x="362" y="411"/>
      <point x="421" y="676"/>
      <point x="421" y="783" type="curve" smooth="yes"/>
      <point x="421" y="839"/>
      <point x="412" y="861"/>
      <point x="378" y="861" type="curve" smooth="yes"/>
      <point x="347" y="861"/>
      <point x="123" y="782"/>
      <point x="19" y="736" type="curve"/>
      <point x="32" y="665" type="line"/>
      <point x="32" y="665"/>
      <point x="93" y="687"/>
      <point x="116" y="687" type="curve" smooth="yes"/>
      <point x="137" y="687"/>
      <point x="152" y="681"/>
      <point x="152" y="625" type="curve" smooth="yes"/>
      <point x="152" y="535"/>
      <point x="125" y="448"/>
      <point x="125" y="339" type="curve" smooth="yes"/>
      <point x="125" y="129"/>
      <point x="228" y="-37"/>
      <point x="350" y="-37" type="curve" smooth="yes"/>
      <point x="465" y="-37"/>
      <point x="579" y="92"/>
      <point x="685" y="329" type="curve"/>
    </contour>
    <contour>
      <point x="247" y="406" type="curve"/>
      <point x="247" y="454"/>
      <point x="148" y="548"/>
      <point x="148" y="548" type="curve"/>
      <point x="122" y="339"/>
      <point x="20" y="-175"/>
      <point x="-11" y="-424" type="curve"/>
      <point x="27" y="-460" type="line"/>
      <point x="57" y="-444"/>
      <point x="257" y="-363"/>
      <point x="293" y="-349" type="curve"/>
      <point x="280" y="-316"/>
      <point x="164" y="-156"/>
      <point x="198" y="95" type="curve"/>
      <point x="219" y="237"/>
      <point x="225" y="296"/>
    </contour>
  </outline>
</glyph>
<glyph name="paragraph" format="2">
  <advance width="1166"/>
  <unicode hex="00B6"/>
  <outline>
    <contour>
      <point x="609" y="-439" type="line"/>
      <point x="707" y="-439" type="line"/>
      <point x="707" y="1281" type="line"/>
      <point x="891" y="1281" type="line" name="hr01"/>
      <point x="889" y="-439" type="line"/>
      <point x="989" y="-439" type="line"/>
      <point x="989" y="1131" type="line" smooth="yes"/>
      <point x="989" y="1275"/>
      <point x="1007" y="1316"/>
      <point x="1178" y="1316" type="curve"/>
      <point x="1178" y="1355" type="line"/>
      <point x="609" y="1355" type="line" smooth="yes" name="hr03"/>
      <point x="236" y="1355"/>
      <point x="69" y="1176"/>
      <point x="69" y="892" type="curve" smooth="yes" name="hr02"/>
      <point x="69" y="609"/>
      <point x="236" y="430"/>
      <point x="609" y="430" type="curve"/>
    </contour>
  </outline>
</glyph>
<glyph name="periodcentered" format="2">
  <advance width="422"/>
  <unicode hex="00B7"/>
  <outline>
    <contour>
      <point x="379" y="774" type="line" smooth="yes"/>
      <point x="379" y="693"/>
      <point x="318" y="588"/>
      <point x="225" y="588" type="curve" smooth="yes"/>
      <point x="174" y="588"/>
      <point x="131" y="629"/>
      <point x="131" y="718" type="curve" smooth="yes"/>
      <point x="131" y="797"/>
      <point x="193" y="900"/>
      <point x="285" y="900" type="curve" smooth="yes"/>
      <point x="339" y="900"/>
      <point x="379" y="851"/>
      <point x="379" y="774" type="curve" smooth="yes"/>
    </contour>
  </outline>
</glyph>
<glyph name="guillemotright" format="2">
  <advance width="918"/>
  <unicode hex="00BB"/>
  <outline>
    <contour>
      <point x="498" y="460" type="curve"/>
      <point x="201" y="858" type="line"/>
      <point x="141" y="812" type="line"/>
      <point x="178" y="683"/>
      <point x="215" y="554"/>
      <point x="252" y="425" type="curve"/>
      <point x="37" y="43" type="line"/>
      <point x="83" y="-2" type="line"/>
      <point x="488" y="392" type="line"/>
      <point x="492" y="414"/>
      <point x="494" y="437"/>
    </contour>
    <contour>
      <point x="858" y="460" type="curve"/>
      <point x="561" y="858" type="line"/>
      <point x="500" y="812" type="line"/>
      <point x="537" y="683"/>
      <point x="575" y="554"/>
      <point x="611" y="425" type="curve"/>
      <point x="396" y="43" type="line"/>
      <point x="443" y="-2" type="line"/>
      <point x="847" y="392" type="line"/>
      <point x="851" y="414"/>
      <point x="854" y="437"/>
    </contour>
  </outline>
</glyph>
<glyph name="onequarter" format="2">
  <advance width="1112"/>
  <unicode hex="00BC"/>
  <outline>
    <contour>
      <point x="1134" y="1110" type="line"/>
      <point x="1115" y="1136" type="line"/>
      <point x="1090" y="1130"/>
      <point x="1016" y="1116"/>
      <point x="992" y="1106" type="curve"/>
      <point x="44" y="0" type="line"/>
      <point x="61" y="-27" type="line"/>
      <point x="93" y="-19"/>
      <point x="160" y="-11"/>
      <point x="188" y="2" type="curve"/>
    </contour>
    <contour>
      <point x="1022" y="198" type="curve"/>
      <point x="1012" y="212" type="line"/>
      <point x="941" y="212" type="line"/>
      <point x="993" y="529" type="line"/>
      <point x="974" y="550" type="line"/>
      <point x="941" y="540"/>
      <point x="881" y="523"/>
      <point x="847" y="514" type="curve"/>
      <point x="558" y="164" type="line"/>
      <point x="576" y="145" type="line"/>
      <point x="805" y="145" type="line"/>
      <point x="792" y="68" type="line" smooth="yes"/>
      <point x="790" y="57"/>
      <point x="770" y="49"/>
      <point x="684" y="36" type="curve"/>
      <point x="678" y="0" type="line"/>
      <point x="976" y="0" type="line"/>
      <point x="981" y="36" type="line"/>
      <point x="929" y="47"/>
      <point x="916" y="55"/>
      <point x="917" y="63" type="curve" smooth="yes"/>
      <point x="931" y="145" type="line"/>
      <point x="961" y="145" type="line"/>
      <point x="977" y="155"/>
      <point x="1005" y="179"/>
    </contour>
    <contour>
      <point x="815" y="212" type="line"/>
      <point x="678" y="212" type="line"/>
      <point x="850" y="424" type="line"/>
    </contour>
    <contour>
      <point x="500" y="586" type="line"/>
      <point x="506" y="627" type="line"/>
      <point x="411" y="638"/>
      <point x="390" y="655"/>
      <point x="391" y="667" type="curve" smooth="yes"/>
      <point x="465" y="1115" type="line"/>
      <point x="445" y="1136" type="line"/>
      <point x="393" y="1117"/>
      <point x="235" y="1070"/>
      <point x="177" y="1060" type="curve"/>
      <point x="185" y="1020" type="line"/>
      <point x="274" y="1036"/>
      <point x="303" y="1034"/>
      <point x="310" y="1026" type="curve" smooth="yes"/>
      <point x="316" y="1018"/>
      <point x="315" y="1006"/>
      <point x="311" y="983" type="curve" smooth="yes"/>
      <point x="260" y="667" type="line" smooth="yes"/>
      <point x="258" y="654"/>
      <point x="226" y="638"/>
      <point x="121" y="627" type="curve"/>
      <point x="115" y="586" type="line"/>
    </contour>
  </outline>
</glyph>
<glyph name="Eth" format="2">
  <advance width="1138"/>
  <unicode hex="00D0"/>
  <anchor x="426" y="-92" name="L"/>
  <anchor x="606" y="1214" name="U"/>
  <outline>
    <contour>
      <point x="682" y="634" type="line"/>
      <point x="655" y="667" type="line"/>
      <point x="100" y="667" type="line"/>
      <point x="89" y="647"/>
      <point x="57" y="596"/>
      <point x="48" y="576" type="curve"/>
      <point x="75" y="547" type="line"/>
      <point x="631" y="547" type="line"/>
    </contour>
    <contour>
      <point x="1119" y="694" type="curve" smooth="yes"/>
      <point x="1119" y="998"/>
      <point x="955" y="1186"/>
      <point x="575" y="1186" type="curve" smooth="yes"/>
      <point x="449" y="1186"/>
      <point x="262" y="1164"/>
      <point x="122" y="1130" type="curve"/>
      <point x="122" y="1035" type="line"/>
      <point x="248" y="1056" type="line"/>
      <point x="120" y="132" type="line" smooth="yes"/>
      <point x="118" y="115"/>
      <point x="77" y="92"/>
      <point x="0" y="76" type="curve"/>
      <point x="-9" y="0" type="line"/>
      <point x="479" y="0" type="line" smooth="yes"/>
      <point x="868" y="0"/>
      <point x="1119" y="370"/>
    </contour>
    <contour>
      <point x="546" y="1081" type="curve" smooth="yes"/>
      <point x="777" y="1081"/>
      <point x="860" y="931"/>
      <point x="860" y="668" type="curve" smooth="yes"/>
      <point x="860" y="410"/>
      <point x="722" y="104"/>
      <point x="473" y="104" type="curve" smooth="yes"/>
      <point x="390" y="104"/>
      <point x="362" y="119"/>
      <point x="367" y="155" type="curve" smooth="yes"/>
      <point x="491" y="1077" type="line"/>
      <point x="509" y="1078"/>
      <point x="528" y="1081"/>
    </contour>
  </outline>
</glyph>
<glyph name="multiply" format="2">
  <advance width="708"/>
  <unicode hex="00D7"/>
  <outline>
    <contour>
      <point x="612" y="244" type="curve"/>
      <point x="619" y="292" type="line"/>
      <point x="212" y="828" type="line"/>
      <point x="187" y="821"/>
      <point x="124" y="799"/>
      <point x="102" y="788" type="curve"/>
      <point x="98" y="746" type="line"/>
      <point x="509" y="207" type="line"/>
      <point x="529" y="212"/>
      <point x="589" y="234"/>
    </contour>
    <contour>
      <point x="24" y="245" type="line"/>
      <point x="48" y="230"/>
      <point x="117" y="207"/>
      <point x="137" y="202" type="curve"/>
      <point x="691" y="739" type="line"/>
      <point x="696" y="786" type="line"/>
      <point x="669" y="798"/>
      <point x="604" y="821"/>
      <point x="581" y="828" type="curve"/>
      <point x="30" y="293" type="line"/>
    </contour>
  </outline>
</glyph>
<glyph name="Thorn" format="2">
  <advance width="1012"/>
  <unicode hex="00DE"/>
  <anchor x="439" y="-92" name="L"/>
  <anchor x="609" y="1214" name="U"/>
  <outline>
    <contour>
      <point x="997" y="634" type="curve" smooth="yes"/>
      <point x="997" y="819"/>
      <point x="842" y="947"/>
      <point x="600" y="947" type="curve" smooth="yes"/>
      <point x="505" y="947"/>
      <point x="424" y="932"/>
      <point x="370" y="908" type="curve"/>
      <point x="368" y="805" type="line"/>
      <point x="425" y="818"/>
      <point x="485" y="835"/>
      <point x="544" y="835" type="curve" smooth="yes"/>
      <point x="652" y="835"/>
      <point x="747" y="769"/>
      <point x="747" y="598" type="curve" smooth="yes"/>
      <point x="747" y="438"/>
      <point x="654" y="342"/>
      <point x="544" y="342" type="curve" smooth="yes"/>
      <point x="505" y="342"/>
      <point x="463" y="345"/>
      <point x="419" y="368" type="curve"/>
      <point x="429" y="264" type="line"/>
      <point x="463" y="242"/>
      <point x="508" y="233"/>
      <point x="559" y="233" type="curve" smooth="yes"/>
      <point x="820" y="233"/>
      <point x="997" y="420"/>
    </contour>
    <contour>
      <point x="646" y="1159" type="line"/>
      <point x="148" y="1159" type="line"/>
      <point x="138" y="1082" type="line"/>
      <point x="215" y="1065"/>
      <point x="243" y="1040"/>
      <point x="241" y="1025" type="curve" smooth="yes"/>
      <point x="119" y="132" type="line" smooth="yes"/>
      <point x="116" y="115"/>
      <point x="77" y="92"/>
      <point x="0" y="76" type="curve"/>
      <point x="-9" y="0" type="line"/>
      <point x="489" y="0" type="line"/>
      <point x="498" y="76" type="line"/>
      <point x="388" y="97"/>
      <point x="359" y="117"/>
      <point x="363" y="132" type="curve"/>
      <point x="483" y="1025" type="line" smooth="yes"/>
      <point x="485" y="1043"/>
      <point x="521" y="1061"/>
      <point x="636" y="1082" type="curve"/>
    </contour>
  </outline>
</glyph>
<glyph name="germandbls" format="2">
  <advance width="1069"/>
  <unicode hex="00DF"/>
  <anchor x="351" y="-92" name="L"/>
  <anchor x="570" y="1508" name="U"/>
  <outline>
    <contour>
      <point x="1030" y="1127" type="curve" smooth="yes"/>
      <point x="1030" y="1254"/>
      <point x="912" y="1396"/>
      <point x="708" y="1396" type="curve" smooth="yes"/>
      <point x="607" y="1396"/>
      <point x="506" y="1362"/>
      <point x="435" y="1311" type="curve" smooth="yes"/>
      <point x="279" y="1198"/>
      <point x="172" y="1028"/>
      <point x="147" y="827" type="curve"/>
      <point x="66" y="127" type="line"/>
      <point x="44" y="-73"/>
      <point x="-33" y="-292"/>
      <point x="-156" y="-360" type="curve"/>
      <point x="-113" y="-446" type="line"/>
      <point x="68" y="-335"/>
      <point x="286" y="-93"/>
      <point x="318" y="177" type="curve"/>
      <point x="399" y="875" type="line"/>
      <point x="421" y="1080"/>
      <point x="483" y="1257"/>
      <point x="638" y="1257" type="curve" smooth="yes"/>
      <point x="701" y="1257"/>
      <point x="790" y="1170"/>
      <point x="790" y="1060" type="curve" smooth="yes"/>
      <point x="790" y="827"/>
      <point x="510" y="838"/>
      <point x="510" y="614" type="curve" smooth="yes"/>
      <point x="510" y="418"/>
      <point x="798" y="420"/>
      <point x="798" y="214" type="curve" smooth="yes"/>
      <point x="798" y="111"/>
      <point x="733" y="89"/>
      <point x="681" y="89" type="curve" smooth="yes"/>
      <point x="587" y="89"/>
      <point x="530" y="297"/>
      <point x="507" y="297" type="curve" smooth="yes"/>
      <point x="480" y="297"/>
      <point x="397" y="129"/>
      <point x="397" y="104" type="curve" smooth="yes"/>
      <point x="397" y="50"/>
      <point x="534" y="-37"/>
      <point x="637" y="-37" type="curve" smooth="yes"/>
      <point x="843" y="-37"/>
      <point x="1034" y="135"/>
      <point x="1034" y="286" type="curve" smooth="yes"/>
      <point x="1034" y="495"/>
      <point x="741" y="539"/>
      <point x="741" y="672" type="curve" smooth="yes"/>
      <point x="741" y="832"/>
      <point x="1030" y="828"/>
    </contour>
  </outline>
</glyph>
<glyph name="oslash" format="2">
  <advance width="850"/>
  <unicode hex="00F8"/>
  <anchor x="358" y="0" name="H"/>
  <anchor x="355" y="-92" name="L"/>
  <anchor x="423" y="0" name="O"/>
  <anchor x="1003" y="800" name="R"/>
  <anchor x="494" y="920" name="U"/>
  <outline>
    <contour>
      <point x="862" y="842" type="line"/>
      <point x="831" y="881" type="line"/>
      <point x="801" y="872"/>
      <point x="714" y="839"/>
      <point x="685" y="827" type="curve"/>
      <point x="-12" y="-19" type="line"/>
      <point x="14" y="-56" type="line"/>
      <point x="43" y="-48"/>
      <point x="139" y="-13"/>
      <point x="162" y="-1" type="curve"/>
    </contour>
    <contour>
      <point x="819" y="514" type="curve" smooth="yes"/>
      <point x="819" y="717"/>
      <point x="704" y="861"/>
      <point x="512" y="861" type="curve" smooth="yes"/>
      <point x="427" y="861"/>
      <point x="328" y="821"/>
      <point x="264" y="772" type="curve" smooth="yes"/>
      <point x="99" y="647"/>
      <point x="30" y="492"/>
      <point x="30" y="316" type="curve" smooth="yes"/>
      <point x="30" y="115"/>
      <point x="151" y="-37"/>
      <point x="350" y="-37" type="curve" smooth="yes"/>
      <point x="424" y="-37"/>
      <point x="526" y="5"/>
      <point x="590" y="57" type="curve" smooth="yes"/>
      <point x="727" y="171"/>
      <point x="819" y="350"/>
    </contour>
    <contour>
      <point x="577" y="435" type="curve" smooth="yes"/>
      <point x="577" y="284"/>
      <point x="536" y="93"/>
      <point x="413" y="93" type="curve" smooth="yes"/>
      <point x="345" y="93"/>
      <point x="273" y="230"/>
      <point x="273" y="393" type="curve" smooth="yes"/>
      <point x="273" y="550"/>
      <point x="317" y="725"/>
      <point x="448" y="725" type="curve" smooth="yes"/>
      <point x="510" y="725"/>
      <point x="577" y="621"/>
    </contour>
  </outline>
</glyph>
<glyph name="thorn" format="2">
  <advance width="966"/>
  <unicode hex="00FE"/>
  <anchor x="563" y="-92" name="L"/>
  <anchor x="667" y="1508" name="U"/>
  <outline>
    <contour>
      <point x="910" y="576" type="curve" smooth="yes"/>
      <point x="910" y="760"/>
      <point x="813" y="861"/>
      <point x="700" y="861" type="curve" smooth="yes"/>
      <point x="613" y="861"/>
      <point x="515" y="839"/>
      <point x="356" y="638" type="curve"/>
      <point x="362" y="464" type="line"/>
      <point x="451" y="623"/>
      <point x="546" y="685"/>
      <point x="584" y="685" type="curve" smooth="yes"/>
      <point x="613" y="685"/>
      <point x="666" y="624"/>
      <point x="666" y="480" type="curve" smooth="yes"/>
      <point x="666" y="405"/>
      <point x="658" y="314"/>
      <point x="626" y="238" type="curve" smooth="yes"/>
      <point x="601" y="179"/>
      <point x="551" y="161"/>
      <point x="517" y="161" type="curve" smooth="yes"/>
      <point x="460" y="161"/>
      <point x="358" y="217"/>
      <point x="328" y="270" type="curve"/>
      <point x="303" y="135" type="line"/>
      <point x="371" y="20"/>
      <point x="483" y="-37"/>
      <point x="539" y="-37" type="curve" smooth="yes"/>
      <point x="635" y="-37"/>
      <point x="724" y="49"/>
      <point x="782" y="145" type="curve" smooth="yes"/>
      <point x="869" y="285"/>
      <point x="910" y="454"/>
    </contour>
    <contour>
      <point x="494" y="1312" type="curve" smooth="yes"/>
      <point x="494" y="1373"/>
      <point x="488" y="1398"/>
      <point x="439" y="1398" type="curve" smooth="yes"/>
      <point x="389" y="1398"/>
      <point x="184" y="1320"/>
      <point x="80" y="1274" type="curve"/>
      <point x="97" y="1201" type="line"/>
      <point x="97" y="1201"/>
      <point x="158" y="1226"/>
      <point x="180" y="1226" type="curve" smooth="yes"/>
      <point x="207" y="1226"/>
      <point x="229" y="1220"/>
      <point x="229" y="1164" type="curve" smooth="yes"/>
      <point x="229" y="992"/>
      <point x="60" y="14"/>
      <point x="-21" y="-424" type="curve"/>
      <point x="17" y="-460" type="line"/>
      <point x="49" y="-445"/>
      <point x="222" y="-374"/>
      <point x="258" y="-365" type="curve"/>
      <point x="245" y="-331"/>
      <point x="253" y="-247"/>
      <point x="297" y="5" type="curve"/>
      <point x="425" y="732"/>
      <point x="494" y="1238"/>
    </contour>
  </outline>
</glyph>
<glyph name="OE" format="2">
  <advance width="1508"/>
  <unicode hex="0152"/>
  <anchor x="694" y="-92" name="L"/>
  <anchor x="863" y="1214" name="U"/>
  <outline>
    <contour>
      <point x="1518" y="1127" type="curve"/>
      <point x="1485" y="1159" type="line"/>
      <point x="1046" y="1159" type="line"/>
      <point x="1004" y="1039" type="line"/>
      <point x="1327" y="1039" type="line" smooth="yes"/>
      <point x="1369" y="1039"/>
      <point x="1383" y="968"/>
      <point x="1372" y="855" type="curve"/>
      <point x="1445" y="855" type="line"/>
      <point x="1465" y="902"/>
      <point x="1506" y="1064"/>
    </contour>
    <contour>
      <point x="1363" y="641" type="curve"/>
      <point x="1336" y="676" type="line"/>
      <point x="961" y="676" type="line"/>
      <point x="928" y="565" type="line"/>
      <point x="1104" y="565" type="line" smooth="yes"/>
      <point x="1200" y="565"/>
      <point x="1237" y="551"/>
      <point x="1266" y="515" type="curve"/>
      <point x="1294" y="534"/>
      <point x="1339" y="607"/>
    </contour>
    <contour>
      <point x="1460" y="298" type="curve"/>
      <point x="1392" y="323" type="line"/>
      <point x="1323" y="180"/>
      <point x="1278" y="119"/>
      <point x="1173" y="119" type="curve" smooth="yes"/>
      <point x="1097" y="119" type="line" smooth="yes"/>
      <point x="946" y="119"/>
      <point x="926" y="142"/>
      <point x="931" y="178" type="curve" smooth="yes"/>
      <point x="1049" y="1046" type="line" smooth="yes"/>
      <point x="1052" y="1062"/>
      <point x="1099" y="1065"/>
      <point x="1179" y="1082" type="curve"/>
      <point x="1189" y="1159" type="line"/>
      <point x="1046" y="1159" type="line"/>
      <point x="710" y="1159" type="line"/>
      <point x="700" y="1082" type="line"/>
      <point x="779" y="1065"/>
      <point x="809" y="1040"/>
      <point x="807" y="1025" type="curve" smooth="yes"/>
      <point x="685" y="132" type="line" smooth="yes"/>
      <point x="683" y="115"/>
      <point x="641" y="92"/>
      <point x="562" y="76" type="curve"/>
      <point x="552" y="0" type="line"/>
      <point x="1384" y="0" type="line"/>
      <point x="1398" y="35"/>
      <point x="1437" y="192"/>
    </contour>
    <contour>
      <point x="884" y="1159" type="curve"/>
      <point x="806" y="1159"/>
      <point x="778" y="1186"/>
      <point x="682" y="1186" type="curve" smooth="yes"/>
      <point x="378" y="1186"/>
      <point x="117" y="897"/>
      <point x="71" y="563" type="curve" smooth="yes"/>
      <point x="29" y="253"/>
      <point x="177" y="-27"/>
      <point x="466" y="-27" type="curve" smooth="yes"/>
      <point x="571" y="-27"/>
      <point x="588" y="0"/>
      <point x="725" y="0" type="curve" smooth="yes"/>
      <point x="725" y="0"/>
      <point x="769" y="117"/>
      <point x="719" y="174" type="curve"/>
      <point x="653" y="125"/>
      <point x="624" y="101"/>
      <point x="526" y="101" type="curve" smooth="yes"/>
      <point x="372" y="101"/>
      <point x="282" y="314"/>
      <point x="320" y="589" type="curve" smooth="yes"/>
      <point x="361" y="889"/>
      <point x="465" y="1063"/>
      <point x="615" y="1063" type="curve" smooth="yes"/>
      <point x="704" y="1063"/>
      <point x="794" y="1015"/>
      <point x="825" y="920" type="curve"/>
      <point x="825" y="920"/>
      <point x="866" y="1121"/>
    </contour>
  </outline>
</glyph>
<glyph name="oe" format="2">
  <advance width="1345"/>
  <unicode hex="0153"/>
  <anchor x="632" y="0" name="H"/>
  <anchor x="610" y="-92" name="L"/>
  <anchor x="929" y="0" name="O"/>
  <anchor x="1507" y="800" name="R"/>
  <anchor x="749" y="920" name="U"/>
  <outline>
    <contour>
      <point x="1314" y="699" type="curve" smooth="yes"/>
      <point x="1314" y="778"/>
      <point x="1238" y="861"/>
      <point x="1095" y="861" type="curve" smooth="yes"/>
      <point x="984" y="861"/>
      <point x="876" y="795"/>
      <point x="819" y="750" type="curve" smooth="yes"/>
      <point x="657" y="624"/>
      <point x="582" y="471"/>
      <point x="582" y="278" type="curve" smooth="yes"/>
      <point x="582" y="28"/>
      <point x="759" y="-37"/>
      <point x="843" y="-37" type="curve" smooth="yes"/>
      <point x="968" y="-37"/>
      <point x="1092" y="36"/>
      <point x="1293" y="211" type="curve"/>
      <point x="1289" y="220"/>
      <point x="1253" y="278"/>
      <point x="1242" y="286" type="curve"/>
      <point x="1092" y="167"/>
      <point x="997" y="115"/>
      <point x="943" y="115" type="curve" smooth="yes"/>
      <point x="872" y="115"/>
      <point x="804" y="214"/>
      <point x="804" y="346" type="curve" smooth="yes"/>
      <point x="804" y="482"/>
      <point x="828" y="585"/>
      <point x="902" y="664" type="curve" smooth="yes"/>
      <point x="934" y="699"/>
      <point x="965" y="727"/>
      <point x="1000" y="727" type="curve" smooth="yes"/>
      <point x="1035" y="727"/>
      <point x="1064" y="689"/>
      <point x="1064" y="648" type="curve" smooth="yes"/>
      <point x="1064" y="557"/>
      <point x="1023" y="505"/>
      <point x="694" y="359" type="curve"/>
      <point x="671" y="333"/>
      <point x="700" y="254"/>
      <point x="700" y="254" type="curve"/>
      <point x="1253" y="432"/>
      <point x="1314" y="591"/>
    </contour>
    <contour>
      <point x="809" y="514" type="curve" smooth="yes"/>
      <point x="809" y="717"/>
      <point x="710" y="861"/>
      <point x="507" y="861" type="curve" smooth="yes"/>
      <point x="437" y="861"/>
      <point x="322" y="821"/>
      <point x="260" y="772" type="curve" smooth="yes"/>
      <point x="97" y="642"/>
      <point x="30" y="492"/>
      <point x="30" y="316" type="curve" smooth="yes"/>
      <point x="30" y="115"/>
      <point x="150" y="-37"/>
      <point x="347" y="-37" type="curve" smooth="yes"/>
      <point x="415" y="-37"/>
      <point x="529" y="3"/>
      <point x="590" y="57" type="curve"/>
      <point x="728" y="183"/>
      <point x="809" y="350"/>
    </contour>
    <contour>
      <point x="586" y="436" type="curve" smooth="yes"/>
      <point x="586" y="285"/>
      <point x="540" y="93"/>
      <point x="407" y="93" type="curve" smooth="yes"/>
      <point x="348" y="93"/>
      <point x="264" y="230"/>
      <point x="264" y="394" type="curve" smooth="yes"/>
      <point x="264" y="551"/>
      <point x="325" y="725"/>
      <point x="443" y="725" type="curve" smooth="yes"/>
      <point x="516" y="725"/>
      <point x="586" y="622"/>
    </contour>
  </outline>
</glyph>
<glyph name="dotaccent" format="2">
  <advance width="342"/>
  <unicode hex="02D9"/>
  <outline>
    <contour>
      <point x="412" y="1170" type="curve" smooth="yes"/>
      <point x="412" y="1220"/>
      <point x="381" y="1272"/>
      <point x="316" y="1272" type="curve" smooth="yes"/>
      <point x="218" y="1272"/>
      <point x="161" y="1165"/>
      <point x="161" y="1091" type="curve" smooth="yes"/>
      <point x="161" y="1040"/>
      <point x="189" y="989"/>
      <point x="254" y="989" type="curve" smooth="yes"/>
      <point x="353" y="989"/>
      <point x="412" y="1092"/>
    </contour>
  </outline>
</glyph>
<glyph name="ogonek" format="2">
  <advance width="346"/>
  <unicode hex="02DB"/>
  <anchor x="77" y="-552" name="L"/>
  <outline>
    <contour>
      <point x="354" y="-267" type="curve"/>
      <point x="336" y="-198" type="line"/>
      <point x="286" y="-245"/>
      <point x="233" y="-262"/>
      <point x="207" y="-262" type="curve" smooth="yes"/>
      <point x="171" y="-262"/>
      <point x="145" y="-236"/>
      <point x="145" y="-195" type="curve" smooth="yes"/>
      <point x="145" y="-135"/>
      <point x="214" y="-49"/>
      <point x="315" y="17" type="curve"/>
      <point x="205" y="23" type="line"/>
      <point x="68" y="-47"/>
      <point x="-83" y="-163"/>
      <point x="-83" y="-287" type="curve" smooth="yes"/>
      <point x="-83" y="-391"/>
      <point x="14" y="-410"/>
      <point x="71" y="-410" type="curve" smooth="yes"/>
      <point x="177" y="-410"/>
      <point x="297" y="-333"/>
    </contour>
  </outline>
</glyph>
<glyph name="hungarumlaut" format="2">
  <advance width="593"/>
  <unicode hex="02DD"/>
  <outline>
    <contour>
      <point x="744" y="1272" type="line"/>
      <point x="724" y="1328" type="line"/>
      <point x="706" y="1333"/>
      <point x="598" y="1349"/>
      <point x="575" y="1351" type="curve"/>
      <point x="407" y="972" type="line"/>
      <point x="424" y="957"/>
      <point x="460" y="936"/>
      <point x="478" y="934" type="curve"/>
    </contour>
    <contour>
      <point x="463" y="1272" type="line"/>
      <point x="444" y="1328" type="line"/>
      <point x="425" y="1333"/>
      <point x="318" y="1349"/>
      <point x="294" y="1351" type="curve"/>
      <point x="126" y="972" type="line"/>
      <point x="143" y="957"/>
      <point x="179" y="936"/>
      <point x="197" y="934" type="curve"/>
    </contour>
  </outline>
</glyph>
<glyph name="pi" format="2">
  <advance width="1023"/>
  <unicode hex="03C0"/>
  <anchor x="398" y="-92" name="L"/>
  <anchor x="537" y="920" name="U"/>
  <outline>
    <contour>
      <point x="1030" y="878" type="line"/>
      <point x="990" y="848"/>
      <point x="954" y="823"/>
      <point x="906" y="823" type="curve" smooth="yes"/>
      <point x="749" y="823"/>
      <point x="516" y="861"/>
      <point x="252" y="861" type="curve" smooth="yes"/>
      <point x="178" y="861"/>
      <point x="79" y="723"/>
      <point x="0" y="638" type="curve"/>
      <point x="34" y="578" type="line"/>
      <point x="105" y="626"/>
      <point x="192" y="662"/>
      <point x="247" y="662" type="curve" smooth="yes"/>
      <point x="419" y="662"/>
      <point x="632" y="621"/>
      <point x="827" y="621" type="curve" smooth="yes"/>
      <point x="893" y="621"/>
      <point x="1013" y="740"/>
      <point x="1074" y="819" type="curve"/>
    </contour>
    <contour>
      <point x="977" y="179" type="curve"/>
      <point x="929" y="245" type="line"/>
      <point x="872" y="170"/>
      <point x="828" y="153"/>
      <point x="799" y="153" type="curve" smooth="yes"/>
      <point x="765" y="153"/>
      <point x="754" y="183"/>
      <point x="754" y="293" type="curve" smooth="yes"/>
      <point x="754" y="407"/>
      <point x="772" y="522"/>
      <point x="823" y="678" type="curve"/>
      <point x="655" y="668" type="line"/>
      <point x="573" y="378"/>
      <point x="542" y="214"/>
      <point x="542" y="139" type="curve" smooth="yes"/>
      <point x="542" y="0"/>
      <point x="618" y="-37"/>
      <point x="692" y="-37" type="curve" smooth="yes"/>
      <point x="760" y="-37"/>
      <point x="856" y="0"/>
    </contour>
    <contour>
      <point x="439" y="749" type="curve"/>
      <point x="439" y="749"/>
      <point x="291" y="738"/>
      <point x="264" y="727" type="curve"/>
      <point x="190" y="306"/>
      <point x="112" y="166"/>
      <point x="7" y="-1" type="curve"/>
      <point x="7" y="-1"/>
      <point x="33" y="-35"/>
      <point x="36" y="-43" type="curve"/>
      <point x="92" y="-28"/>
      <point x="314" y="46"/>
      <point x="348" y="67" type="curve"/>
      <point x="353" y="271"/>
      <point x="385" y="522"/>
    </contour>
  </outline>
</glyph>
<glyph name="uni1980" format="2">
  <advance width="1686"/>
  <unicode hex="1980"/>
  <outline>
    <contour>
      <point x="1599" y="580" type="line" smooth="yes"/>
      <point x="1595" y="320"/>
      <point x="1460" y="124"/>
      <point x="1207" y="42" type="curve"/>
      <point x="1331" y="26"/>
      <point x="1491" y="-79"/>
      <point x="1489" y="-240" type="curve" smooth="yes" name="hr01"/>
      <point x="1485" y="-529"/>
      <point x="1214" y="-610"/>
      <point x="980" y="-610" type="curve" smooth="yes"/>
      <point x="845" y="-610"/>
      <point x="663" y="-528"/>
      <point x="602" y="-424" type="curve" smooth="yes"/>
      <point x="570" y="-370"/>
      <point x="570" y="-363"/>
      <point x="579" y="-353" type="curve" smooth="yes"/>
      <point x="590" y="-341"/>
      <point x="602" y="-354"/>
      <point x="622" y="-381" type="curve" smooth="yes"/>
      <point x="653" y="-424"/>
      <point x="779" y="-484"/>
      <point x="918" y="-484" type="curve" smooth="yes"/>
      <point x="1068" y="-484"/>
      <point x="1298" y="-376"/>
      <point x="1285" y="-193" type="curve" smooth="yes"/>
      <point x="1277" y="-85"/>
      <point x="1163" y="-10"/>
      <point x="1085" y="-10" type="curve" smooth="yes"/>
      <point x="1031" y="-10"/>
      <point x="974" y="-34"/>
      <point x="939" y="-44" type="curve" smooth="yes"/>
      <point x="928" y="-47"/>
      <point x="923" y="-42"/>
      <point x="920" y="7" type="curve" smooth="yes"/>
      <point x="917" y="53"/>
      <point x="926" y="64"/>
      <point x="938" y="66" type="curve" smooth="yes"/>
      <point x="971" y="72"/>
      <point x="1061" y="73"/>
      <point x="1103" y="88" type="curve" smooth="yes"/>
      <point x="1261" y="145"/>
      <point x="1335" y="500"/>
      <point x="1335" y="665" type="curve" smooth="yes" name="hr02"/>
      <point x="1335" y="849"/>
      <point x="1259" y="908"/>
      <point x="1180" y="908" type="curve" smooth="yes"/>
      <point x="1094" y="908"/>
      <point x="980" y="786"/>
      <point x="907" y="605" type="curve"/>
      <point x="892" y="270"/>
      <point x="749" y="-17"/>
      <point x="370" y="-17" type="curve" smooth="yes"/>
      <point x="144" y="-17"/>
      <point x="51" y="107"/>
      <point x="23" y="198" type="curve" smooth="yes"/>
      <point x="15" y="226"/>
      <point x="36" y="250"/>
      <point x="121" y="275" type="curve" smooth="yes"/>
      <point x="218" y="304"/>
      <point x="248" y="284"/>
      <point x="247" y="269" type="curve" smooth="yes"/>
      <point x="238" y="142"/>
      <point x="273" y="43"/>
      <point x="354" y="43" type="curve" smooth="yes"/>
      <point x="569" y="43"/>
      <point x="652" y="554"/>
      <point x="648" y="735" type="curve" smooth="yes"/>
      <point x="646" y="856"/>
      <point x="605" y="908"/>
      <point x="528" y="908" type="curve" smooth="yes"/>
      <point x="447" y="908"/>
      <point x="383" y="821"/>
      <point x="331" y="702" type="curve" smooth="yes"/>
      <point x="321" y="679"/>
      <point x="283" y="674"/>
      <point x="208" y="707" type="curve" smooth="yes"/>
      <point x="124" y="744"/>
      <point x="125" y="769"/>
      <point x="140" y="786" type="curve" smooth="yes"/>
      <point x="251" y="912"/>
      <point x="364" y="968"/>
      <point x="518" y="968" type="curve" smooth="yes"/>
      <point x="695" y="968"/>
      <point x="809" y="895"/>
      <point x="847" y="790" type="curve"/>
      <point x="949" y="898"/>
      <point x="1048" y="968"/>
      <point x="1181" y="968" type="curve" smooth="yes"/>
      <point x="1429" y="968"/>
      <point x="1603" y="841"/>
      <point x="1599" y="580" type="curve" smooth="yes"/>
    </contour>
  </outline>
</glyph>
<glyph name="uni1982" format="2">
  <advance width="1596"/>
  <unicode hex="1982"/>
  <outline>
    <contour>
      <point x="1069" y="-20" type="curve" smooth="yes"/>
      <point x="1382" y="-20"/>
      <point x="1519" y="345"/>
      <point x="1519" y="611" type="curve" smooth="yes"/>
      <point x="1519" y="826"/>
      <point x="1398" y="968"/>
      <point x="1193" y="968" type="curve" smooth="yes"/>
      <point x="1014" y="968"/>
      <point x="932" y="850"/>
      <point x="845" y="710" type="curve"/>
      <point x="820" y="853"/>
      <point x="742" y="968"/>
      <point x="563" y="968" type="curve" smooth="yes"/>
      <point x="236" y="968"/>
      <point x="53" y="626"/>
      <point x="53" y="333" type="curve" smooth="yes"/>
      <point x="53" y="105"/>
      <point x="206" y="-19"/>
      <point x="358" y="-19" type="curve" smooth="yes"/>
      <point x="461" y="-19"/>
      <point x="487" y="-5"/>
      <point x="517" y="4" type="curve" smooth="yes"/>
      <point x="539" y="10"/>
      <point x="558" y="63"/>
      <point x="586" y="133" type="curve" smooth="yes"/>
      <point x="625" y="227"/>
      <point x="617" y="252"/>
      <point x="598" y="240" type="curve" smooth="yes"/>
      <point x="566" y="220"/>
      <point x="488" y="197"/>
      <point x="406" y="197" type="curve" smooth="yes"/>
      <point x="302" y="197"/>
      <point x="155" y="258"/>
      <point x="155" y="413" type="curve" smooth="yes"/>
      <point x="155" y="617"/>
      <point x="344" y="706"/>
      <point x="524" y="706" type="curve" smooth="yes"/>
      <point x="682" y="706"/>
      <point x="734" y="639"/>
      <point x="732" y="507" type="curve" smooth="yes"/>
      <point x="732" y="500"/>
      <point x="780" y="486"/>
      <point x="801" y="486" type="curve" smooth="yes"/>
      <point x="820" y="486"/>
      <point x="877" y="500"/>
      <point x="880" y="507" type="curve" smooth="yes"/>
      <point x="933" y="635"/>
      <point x="1035" y="706"/>
      <point x="1164" y="706" type="curve" smooth="yes"/>
      <point x="1306" y="706"/>
      <point x="1413" y="615"/>
      <point x="1413" y="500" type="curve" smooth="yes"/>
      <point x="1413" y="310"/>
      <point x="1260" y="196"/>
      <point x="1085" y="196" type="curve" smooth="yes"/>
      <point x="1013" y="196"/>
      <point x="918" y="218"/>
      <point x="899" y="239" type="curve" smooth="yes"/>
      <point x="887" y="252"/>
      <point x="872" y="227"/>
      <point x="870" y="132" type="curve" smooth="yes"/>
      <point x="869" y="59"/>
      <point x="880" y="9"/>
      <point x="899" y="3" type="curve" smooth="yes"/>
      <point x="926" y="-6"/>
      <point x="966" y="-20"/>
    </contour>
  </outline>
</glyph>
